<?xml version="1.0" encoding="iso-8859-1"?>
<!-- Generator: Adobe Illustrator 19.0.0, SVG Export Plug-In . SVG Version: 6.00 Build 0)  -->
<svg version="1.1" id="Layer_1" xmlns="http://www.w3.org/2000/svg" xmlns:xlink="http://www.w3.org/1999/xlink" x="0px" y="0px"
	 viewBox="0 0 512 512" style="enable-background:new 0 0 512 512;" xml:space="preserve">
<circle style="fill:#FFD55C;" cx="256" cy="256" r="256"/>
<path style="fill:#FFFFFF;" d="M457.778,417.927c1.589-2.851,2.474-5.982,2.474-9.259c0-13.246-14.346-23.981-32.035-23.981
	c-17.695,0-32.038,10.735-32.038,23.981c0,3.277,0.882,6.405,2.477,9.259H457.778z"/>
<g>
	<path style="fill:#E6E5E5;" d="M396.513,412.097c0.383,2.038,1.113,3.994,2.14,5.833h59.121c1.031-1.84,1.754-3.792,2.134-5.833
		H396.513z"/>
	<polygon style="fill:#E6E5E5;" points="304.769,410.634 207.185,410.634 219.569,350.304 292.365,350.304 	"/>
</g>
<polygon style="fill:#D9D8D7;" points="304.769,410.634 292.365,350.304 219.569,350.304 279.892,410.634 "/>
<path style="fill:#FFFFFF;" d="M330.901,417.927H181.06v-2.517c0-1.222,0.466-2.444,1.397-3.373
	c0.932-0.938,2.157-1.407,3.373-1.407h140.298c1.219,0,2.448,0.469,3.379,1.407c0.928,0.928,1.397,2.15,1.397,3.373v2.517H330.901z"
	/>
<path style="fill:#242D3C;" d="M77.824,102.05c-4.991,0-9.094,4.119-9.094,9.127V341.19c0,5.014,4.103,9.117,9.094,9.117H434.14
	c5.024,0,9.14-4.103,9.14-9.117V111.173c0-5.008-4.116-9.127-9.14-9.127H77.824V102.05z"/>
<rect x="87.638" y="120.981" style="fill:#FFFFFF;" width="336.665" height="210.382"/>
<g>
	<rect x="115.844" y="284.771" style="fill:#E6E5E5;" width="123.144" height="5.47"/>
	<rect x="115.844" y="295.738" style="fill:#E6E5E5;" width="123.144" height="5.473"/>
	<rect x="115.844" y="306.671" style="fill:#E6E5E5;" width="61.575" height="5.473"/>
	<path style="fill:#E6E5E5;" d="M206.144,189.47c0,7.934-3.211,15.116-8.423,20.315l14.518,14.518
		c8.929-8.915,14.432-21.233,14.432-34.833H206.144z"/>
</g>
<path style="fill:#242D3C;" d="M197.715,209.801c-5.193,5.189-12.374,8.403-20.302,8.403c-15.865,0-28.728-12.869-28.728-28.735
	c0-11.964,7.323-22.224,17.732-26.538l-7.848-18.961c-17.851,7.379-30.413,24.982-30.413,45.509
	c0,27.199,22.066,49.251,49.244,49.251c13.596,0,25.924-5.5,34.839-14.405L197.715,209.801z"/>
<path style="fill:#FFD55C;" d="M177.4,160.735v-20.53c-6.663,0-13.031,1.331-18.832,3.762l7.848,18.961
	C169.806,161.521,173.509,160.735,177.4,160.735z"/>
<path style="fill:#FF6D3B;" d="M177.413,160.735c15.879,0,28.731,12.869,28.731,28.731v0.003h20.526
	c0-27.209-22.056-49.264-49.261-49.264L177.413,160.735L177.413,160.735z"/>
<rect x="115.844" y="256.33" style="fill:#242D3C;" width="8.255" height="8.238"/>
<rect x="129.553" y="259.105" style="fill:#E6E5E5;" width="11.29" height="5.467"/>
<rect x="148.549" y="256.33" style="fill:#FFD55C;" width="8.245" height="8.238"/>
<rect x="162.254" y="259.105" style="fill:#E6E5E5;" width="11.29" height="5.467"/>
<rect x="181.265" y="256.33" style="fill:#FF6D3B;" width="8.245" height="8.238"/>
<g>
	<rect x="194.956" y="259.105" style="fill:#E6E5E5;" width="11.304" height="5.467"/>
	<rect x="213.98" y="256.33" style="fill:#E6E5E5;" width="8.251" height="8.238"/>
	<rect x="227.705" y="259.105" style="fill:#E6E5E5;" width="11.284" height="5.467"/>
</g>
<rect x="272.979" y="140.222" style="fill:#242D3C;" width="123.144" height="5.473"/>
<rect x="272.979" y="151.156" style="fill:#E6E5E5;" width="61.575" height="5.473"/>
<g>
	<rect x="272.979" y="176.855" style="fill:#FFD55C;" width="58.83" height="54.886"/>
	<rect x="337.259" y="176.855" style="fill:#FFD55C;" width="58.837" height="54.886"/>
</g>
<g>
	<rect x="272.979" y="284.771" style="fill:#E6E5E5;" width="123.144" height="5.47"/>
	<rect x="272.979" y="273.837" style="fill:#E6E5E5;" width="123.144" height="5.467"/>
	<rect x="272.979" y="262.904" style="fill:#E6E5E5;" width="123.144" height="5.473"/>
	<rect x="272.979" y="251.937" style="fill:#E6E5E5;" width="123.144" height="5.47"/>
	<rect x="272.979" y="295.738" style="fill:#E6E5E5;" width="123.144" height="5.473"/>
	<rect x="272.979" y="306.671" style="fill:#E6E5E5;" width="61.579" height="5.473"/>
</g>
<rect x="47.5" y="313.575" style="fill:#FFFFFF;" width="80.288" height="104.365"/>
<rect x="87.638" y="313.575" style="fill:#F2F2F2;" width="40.147" height="104.365"/>
<rect x="107.715" y="313.575" style="fill:#E6E5E5;" width="20.07" height="104.365"/>
<path style="fill:#F2F2F2;" d="M137.421,395.043h-9.632v-8.823h9.632c2.035,0,3.947-0.786,5.391-2.233
	c1.44-1.44,2.243-3.366,2.243-5.394v-25.696c0-2.031-0.803-3.947-2.243-5.381c-1.444-1.447-3.356-2.24-5.391-2.24h-9.632v-8.833
	h9.632c4.387,0,8.522,1.708,11.631,4.813c3.115,3.108,4.823,7.244,4.823,11.637v25.696c0,4.397-1.708,8.532-4.823,11.637
	C145.943,393.338,141.807,395.043,137.421,395.043z"/>
<g>
	<path style="fill:#F15424;" d="M58.484,313.565v8.146c0,1.678-1.361,3.022-3.039,3.022c-1.668,0-3.022-1.344-3.022-3.022v-8.146
		H58.484z"/>
	<path style="fill:#F15424;" d="M64.532,313.565v8.146c0-1.671-1.351-3.032-3.026-3.032c-1.671,0-3.022,1.361-3.022,3.032v-8.146
		H64.532z"/>
	<path style="fill:#F15424;" d="M70.587,313.565v32.048c0,1.671-1.341,3.022-3.019,3.022s-3.036-1.351-3.036-3.022v-32.048H70.587z"
		/>
	<path style="fill:#F15424;" d="M82.713,313.565v20.295c0,1.671-1.351,3.029-3.036,3.029c-1.671,0-3.026-1.358-3.026-3.029v-20.295
		H82.713z"/>
	<path style="fill:#F15424;" d="M76.651,313.565v5.487c0-1.678-1.354-3.026-3.046-3.026c-1.658,0-3.019,1.348-3.019,3.026v-5.487
		H76.651z"/>
</g>
<rect x="22.155" y="436.158" style="fill:#242D3C;" width="467.704" height="6.834"/>
<rect x="3.303" y="417.924" style="fill:#3E4959;" width="505.394" height="18.221"/>
<g>
</g>
<g>
</g>
<g>
</g>
<g>
</g>
<g>
</g>
<g>
</g>
<g>
</g>
<g>
</g>
<g>
</g>
<g>
</g>
<g>
</g>
<g>
</g>
<g>
</g>
<g>
</g>
<g>
</g>
</svg>
