<?xml version="1.0" encoding="iso-8859-1"?>
<!-- Generator: Adobe Illustrator 19.0.0, SVG Export Plug-In . SVG Version: 6.00 Build 0)  -->
<svg version="1.1" id="Layer_1" xmlns="http://www.w3.org/2000/svg" xmlns:xlink="http://www.w3.org/1999/xlink" x="0px" y="0px"
	 viewBox="0 0 512 512" style="enable-background:new 0 0 512 512;" xml:space="preserve">
<circle style="fill:#21D8DE;" cx="256" cy="256" r="256"/>
<polygon style="fill:#CCCBCA;" points="342.317,420.461 237.162,420.461 242.883,370.011 336.602,370.011 "/>
<g>
	<path style="fill:#FFFFFF;" d="M363.318,426.361H216.15v-2.501c0-0.872,0.334-1.731,0.981-2.408
		c0.647-0.641,1.519-0.994,2.388-0.994h140.456c0.856,0,1.724,0.35,2.372,0.994c0.657,0.674,0.978,1.536,0.978,2.408v2.501H363.318z
		"/>
	<path style="fill:#FFFFFF;" d="M478.968,361.614c0,2.15-0.819,4.324-2.484,5.936c-1.622,1.642-3.769,2.461-5.923,2.461H108.917
		c-2.157,0-4.301-0.819-5.942-2.461c-1.645-1.612-2.468-3.786-2.468-5.936v-25.253h378.461V361.614z"/>
</g>
<path style="fill:#242D3C;" d="M478.968,94.056c0-2.16-0.819-4.304-2.484-5.962c-1.622-1.625-3.769-2.454-5.923-2.454H108.917
	c-2.157,0-4.301,0.829-5.942,2.454c-1.645,1.658-2.468,3.799-2.468,5.962v242.305h378.461V94.056z"/>
<rect x="119.445" y="104.567" style="fill:#FFFFFF;" width="340.596" height="212.86"/>
<rect x="143.618" y="262.309" style="fill:#FF6D3B;" width="24.358" height="35.166"/>
<rect x="167.976" y="201.53" style="fill:#F15424;" width="24.345" height="95.959"/>
<rect x="192.314" y="233.505" style="fill:#E64717;" width="24.371" height="63.964"/>
<rect x="216.692" y="219.665" style="fill:#FF6D3B;" width="24.355" height="77.814"/>
<rect x="241.046" y="244.703" style="fill:#F15424;" width="24.345" height="52.766"/>
<rect x="265.381" y="181.288" style="fill:#E64717;" width="24.358" height="116.207"/>
<rect x="289.759" y="221.779" style="fill:#FF6D3B;" width="24.335" height="75.693"/>
<rect x="314.071" y="229.244" style="fill:#F15424;" width="24.374" height="68.225"/>
<rect x="338.449" y="201.53" style="fill:#E64717;" width="24.348" height="95.959"/>
<rect x="362.793" y="170.631" style="fill:#FF6D3B;" width="24.358" height="126.844"/>
<rect x="387.171" y="156.771" style="fill:#F15424;" width="24.365" height="140.704"/>
<g>
	<rect x="411.516" y="189.275" style="fill:#E64717;" width="24.348" height="108.2"/>
	<rect x="265.381" y="129.486" style="fill:#E64717;" width="13.246" height="13.279"/>
</g>
<rect x="285.3" y="136.126" style="fill:#E6E5E5;" width="29.861" height="6.639"/>
<rect x="325.731" y="129.486" style="fill:#FF6D3B;" width="13.279" height="13.279"/>
<rect x="345.65" y="136.126" style="fill:#E6E5E5;" width="29.894" height="6.639"/>
<rect x="386.114" y="129.486" style="fill:#F15424;" width="13.279" height="13.279"/>
<rect x="405.999" y="136.126" style="fill:#E6E5E5;" width="29.894" height="6.639"/>
<rect x="143.618" y="118.427" style="fill:#242D3C;" width="97.429" height="24.341"/>
<rect x="154.756" y="127.656" style="fill:#FFFFFF;" width="37.564" height="6.639"/>
<g>
	<rect x="143.618" y="149.405" style="fill:#E6E5E5;" width="97.429" height="6.606"/>
	<rect x="143.618" y="162.684" style="fill:#E6E5E5;" width="48.706" height="6.639"/>
</g>
<rect x="366.856" y="336.731" style="fill:#3E4959;" width="16.229" height="19.786"/>
<path style="fill:#242D3C;" d="M442.493,270.693c0,37.297-30.234,67.491-67.501,67.491c-37.27,0-67.495-30.195-67.495-67.491
	c0-37.267,30.221-67.501,67.495-67.501C412.259,203.195,442.493,233.426,442.493,270.693z"/>
<path style="fill:#FFFFFF;" d="M428.997,270.693c0,29.838-24.176,53.991-54.001,53.991c-29.831,0-54.004-24.153-54.004-53.991
	c0-29.822,24.17-54.001,54.004-54.001C404.82,216.695,428.997,240.871,428.997,270.693z"/>
<rect x="362.199" y="370.027" style="fill:#3E4959;" width="25.58" height="56.353"/>
<rect x="360.085" y="356.517" style="fill:#242D3C;" width="29.828" height="13.507"/>
<g>
	<g>
		<rect x="321.007" y="298.612" style="fill:#E64717;" width="35.982" height="141.814"/>
		<rect x="356.98" y="252.895" style="fill:#FF6D3B;" width="35.992" height="187.511"/>
		<rect x="392.985" y="232.415" style="fill:#F15424;" width="36.025" height="207.991"/>
	</g>
</g>
<path style="fill:#242D3C;" d="M33.032,237.875c0-4.037,3.29-7.343,7.333-7.343h120.28c4.027,0,7.33,3.307,7.33,7.343v181.156
	c0,4.017-3.303,7.333-7.33,7.333H40.365c-4.043,0-7.333-3.316-7.333-7.333V237.875z"/>
<g>
	<path style="fill:#3E4959;" d="M93.062,418.188c-1.79,0-3.267-1.473-3.267-3.28v-0.806c0-1.807,1.477-3.28,3.267-3.28h14.891
		c1.797,0,3.267,1.473,3.267,3.28v0.806c0,1.807-1.47,3.28-3.267,3.28H93.062z"/>
	<path style="fill:#3E4959;" d="M100.491,243.464c-1.853,0-3.333-1.513-3.333-3.369c0-1.837,1.48-3.373,3.333-3.373
		c1.856,0,3.373,1.536,3.373,3.373C103.863,241.951,102.344,243.464,100.491,243.464z"/>
</g>
<path style="fill:#242D3C;" d="M100.504,241.502c-0.773,0-1.394-0.628-1.394-1.407c0-0.77,0.621-1.397,1.394-1.397
	c0.78,0,1.41,0.624,1.41,1.397C101.914,240.875,101.284,241.502,100.504,241.502z"/>
<rect x="40.683" y="249.658" style="fill:#FFFFFF;" width="119.643" height="152.972"/>
<rect x="56.872" y="375.445" style="fill:#E6E5E5;" width="87.258" height="3.006"/>
<rect x="56.872" y="361.802" style="fill:#CCCBCA;" width="87.258" height="10.617"/>
<g>
	<rect x="56.872" y="381.423" style="fill:#E6E5E5;" width="87.258" height="3.009"/>
	<rect x="56.872" y="387.468" style="fill:#E6E5E5;" width="43.619" height="3.006"/>
	<path style="fill:#E6E5E5;" d="M123.303,310.516c0,6.283-2.547,11.991-6.679,16.133l11.528,11.512
		c7.092-7.059,11.462-16.853,11.462-27.645H123.303z"/>
</g>
<path style="fill:#F15424;" d="M116.617,326.663c-4.122,4.103-9.83,6.656-16.126,6.656c-12.595,0-22.805-10.204-22.805-22.799
	c0-9.503,5.807-17.669,14.072-21.084l-6.227-15.049c-14.174,5.847-24.147,19.826-24.147,36.137c0,21.587,17.514,39.1,39.107,39.1
	c10.802,0,20.582-4.367,27.658-11.446L116.617,326.663z"/>
<path style="fill:#3E4959;" d="M100.491,287.685V271.4c-5.298,0-10.349,1.04-14.96,2.983l6.227,15.049
	C94.459,288.325,97.386,287.685,100.491,287.685z"/>
<path style="fill:#131A26;" d="M100.491,287.685c12.605,0,22.812,10.23,22.812,22.832l0,0h16.311
	c0-21.623-17.51-39.117-39.123-39.117L100.491,287.685L100.491,287.685z"/>
<g>
</g>
<g>
</g>
<g>
</g>
<g>
</g>
<g>
</g>
<g>
</g>
<g>
</g>
<g>
</g>
<g>
</g>
<g>
</g>
<g>
</g>
<g>
</g>
<g>
</g>
<g>
</g>
<g>
</g>
</svg>
