<?xml version="1.0" encoding="iso-8859-1"?>
<!-- Generator: Adobe Illustrator 19.0.0, SVG Export Plug-In . SVG Version: 6.00 Build 0)  -->
<svg version="1.1" id="Layer_1" xmlns="http://www.w3.org/2000/svg" xmlns:xlink="http://www.w3.org/1999/xlink" x="0px" y="0px"
	 viewBox="0 0 512 512" style="enable-background:new 0 0 512 512;" xml:space="preserve">
<circle style="fill:#21D8DE;" cx="256" cy="256" r="256"/>
<path style="fill:#CCCBCA;" d="M392.978,58.88h-39.011v39.011h39.011h39.018C431.993,76.344,414.522,58.88,392.978,58.88z"/>
<path style="fill:#FFFFFF;" d="M392.981,58.88c-21.54,0-39.014,17.464-39.014,39.011v316.218c0,21.55-17.467,39.011-39.014,39.011
	H102.79V97.891c0-21.544,17.474-39.011,39.018-39.011H392.981z"/>
<path style="fill:#CCCBCA;" d="M275.961,414.109H24.774c0,21.55,17.464,39.011,39.008,39.011h251.174
	C293.412,453.113,275.961,435.662,275.961,414.109z"/>
<rect x="127.528" y="197.47" style="fill:#FF6D3B;" width="7.882" height="63.158"/>
<rect x="139.297" y="173.122" style="fill:#242D3C;" width="7.858" height="87.512"/>
<rect x="151.04" y="205.791" style="fill:#FFD55C;" width="7.895" height="54.853"/>
<rect x="162.783" y="187.702" style="fill:#CCCBCA;" width="7.875" height="72.935"/>
<rect x="180.383" y="242.655" style="fill:#FF6D3B;" width="7.875" height="17.963"/>
<rect x="192.149" y="219.797" style="fill:#242D3C;" width="7.875" height="40.838"/>
<rect x="203.892" y="227.371" style="fill:#FFD55C;" width="7.895" height="33.263"/>
<rect x="215.668" y="200.39" style="fill:#CCCBCA;" width="7.875" height="60.241"/>
<rect x="233.241" y="239.154" style="fill:#FF6D3B;" width="7.878" height="21.487"/>
<rect x="245" y="242.985" style="fill:#242D3C;" width="7.868" height="17.639"/>
<rect x="256.727" y="210.505" style="fill:#FFD55C;" width="7.891" height="50.13"/>
<rect x="268.519" y="225.775" style="fill:#CCCBCA;" width="7.858" height="34.842"/>
<rect x="286.092" y="180.191" style="fill:#FF6D3B;" width="7.891" height="80.443"/>
<rect x="297.852" y="205.461" style="fill:#242D3C;" width="7.895" height="55.174"/>
<rect x="309.611" y="229.838" style="fill:#FFD55C;" width="7.865" height="30.783"/>
<rect x="321.371" y="192.677" style="fill:#CCCBCA;" width="7.872" height="67.97"/>
<g>
	<rect x="127.528" y="357.673" style="fill:#E6E5E5;" width="201.695" height="5.777"/>
	<rect x="127.528" y="372.141" style="fill:#E6E5E5;" width="201.695" height="5.794"/>
	<rect x="127.528" y="386.61" style="fill:#E6E5E5;" width="100.851" height="5.797"/>
</g>
<rect x="127.528" y="123.927" style="fill:#242D3C;" width="201.695" height="5.784"/>
<rect x="127.528" y="97.891" style="fill:#FF6D3B;" width="201.695" height="17.345"/>
<g>
	<rect x="127.528" y="138.395" style="fill:#E6E5E5;" width="201.695" height="5.787"/>
	<rect x="127.528" y="152.84" style="fill:#E6E5E5;" width="100.851" height="5.797"/>
	<rect x="127.528" y="301.155" style="fill:#E6E5E5;" width="95.615" height="42.053"/>
	<rect x="233.604" y="301.155" style="fill:#E6E5E5;" width="95.618" height="42.053"/>
</g>
<rect x="127.528" y="275.093" style="fill:#CCCBCA;" width="11.594" height="11.594"/>
<rect x="144.919" y="280.906" style="fill:#E6E5E5;" width="26.102" height="5.797"/>
<rect x="180.257" y="275.093" style="fill:#FF6D3B;" width="11.601" height="11.594"/>
<rect x="197.652" y="280.906" style="fill:#E6E5E5;" width="26.105" height="5.797"/>
<rect x="233.01" y="275.093" style="fill:#FFD55C;" width="11.594" height="11.594"/>
<rect x="250.385" y="280.906" style="fill:#E6E5E5;" width="26.109" height="5.797"/>
<rect x="285.729" y="275.093" style="fill:#242D3C;" width="11.601" height="11.594"/>
<rect x="303.137" y="280.906" style="fill:#E6E5E5;" width="26.109" height="5.797"/>
<g>
	<path style="fill:#3E4959;" d="M393.626,365.228v9.431c0,5.298-2.065,10.276-5.807,14.019c-3.743,3.749-8.73,5.814-14.019,5.814
		c-5.302,0-10.283-2.065-14.032-5.814c-3.736-3.743-5.8-8.724-5.8-14.019v-92.814c0-5.298,2.065-10.28,5.8-14.022
		c3.749-3.746,8.73-5.814,14.032-5.814h31.969v-24.896H373.8c-11.951,0-23.189,4.658-31.635,13.097
		c-8.45,8.453-13.107,19.691-13.107,31.635v92.817c0,11.948,4.658,23.185,13.107,31.632s19.684,13.097,31.635,13.097
		c11.941,0,23.175-4.651,31.625-13.097c8.45-8.45,13.104-19.684,13.104-31.632v-9.431h-24.903V365.228z"/>
	<rect x="405.768" y="214.056" style="fill:#3E4959;" width="46.12" height="71.016"/>
</g>
<polygon style="fill:#131A26;" points="444.968,207.598 412.685,207.598 405.768,214.056 451.888,214.056 "/>
<rect x="412.672" y="184.535" style="fill:#3E4959;" width="32.282" height="23.06"/>
<rect x="405.768" y="173.485" style="fill:#131A26;" width="46.12" height="11.066"/>
<path style="fill:#3E4959;" d="M471.407,325.632l-14.997,14.997l-19.991-19.991c-1.916-1.919-3.102-4.568-3.108-7.502
	c0.007-2.923,1.192-5.579,3.108-7.498l0,0c1.919-1.916,4.575-3.105,7.502-3.105c2.923,0,5.576,1.189,7.502,3.105L471.407,325.632z"
	/>
<polygon style="fill:#131A26;" points="471.41,333.127 463.905,340.629 456.41,340.629 471.41,325.632 "/>
<rect x="386.246" y="285.068" style="fill:#3E4959;" width="85.164" height="9.015"/>
<path style="fill:#131A26;" d="M394.029,294.083c0,19.221,15.588,34.803,34.803,34.803s34.796-15.581,34.796-34.803H394.029z"/>
<path style="fill:#3E4959;" d="M439.735,341.263h-21.207v-28.266c0-2.715,1.034-5.434,3.105-7.502
	c2.074-2.071,4.783-3.108,7.495-3.108l0,0c2.715,0,5.434,1.037,7.508,3.108c2.065,2.071,3.098,4.786,3.098,7.502V341.263z"/>
<g>
	<polygon style="fill:#131A26;" points="434.444,348.411 423.834,348.411 418.529,341.263 439.735,341.263 	"/>
	<circle style="fill:#131A26;" cx="405.768" cy="249.559" r="19.525"/>
</g>
<circle style="fill:#3E4959;" cx="405.768" cy="249.559" r="7.908"/>
<g>
	<rect x="386.246" y="356.22" style="fill:#131A26;" width="85.164" height="9.015"/>
	<circle style="fill:#131A26;" cx="406.066" cy="365.238" r="6.455"/>
	<path style="fill:#131A26;" d="M386.246,424.93h-24.9v-17.989c0-3.181,1.216-6.369,3.647-8.803
		c2.431-2.428,5.615-3.643,8.806-3.643l0,0c3.184,0,6.372,1.212,8.8,3.643c2.438,2.434,3.647,5.622,3.647,8.803L386.246,424.93
		L386.246,424.93z"/>
</g>
<circle style="fill:#3E4959;" cx="373.793" cy="406.924" r="5.536"/>
<rect x="353.974" y="424.927" style="fill:#131A26;" width="39.672" height="4.608"/>
<path style="fill:#3E4959;" d="M321.632,429.535c-2.147,0-4.294,0.819-5.929,2.461c-1.638,1.638-2.461,3.782-2.461,5.929v10.587
	h173.984v-10.587c0-2.147-0.813-4.291-2.454-5.929c-1.635-1.642-3.785-2.461-5.933-2.461H321.632z"/>
<g>
	<rect x="313.245" y="448.512" style="fill:#131A26;" width="46.12" height="4.608"/>
	<rect x="441.113" y="448.512" style="fill:#131A26;" width="46.116" height="4.608"/>
</g>
<g>
</g>
<g>
</g>
<g>
</g>
<g>
</g>
<g>
</g>
<g>
</g>
<g>
</g>
<g>
</g>
<g>
</g>
<g>
</g>
<g>
</g>
<g>
</g>
<g>
</g>
<g>
</g>
<g>
</g>
</svg>
