<?xml version="1.0" encoding="iso-8859-1"?>
<!-- Generator: Adobe Illustrator 19.0.0, SVG Export Plug-In . SVG Version: 6.00 Build 0)  -->
<svg version="1.1" id="Layer_1" xmlns="http://www.w3.org/2000/svg" xmlns:xlink="http://www.w3.org/1999/xlink" x="0px" y="0px"
	 viewBox="0 0 512 512" style="enable-background:new 0 0 512 512;" xml:space="preserve">
<circle style="fill:#21D8DE;" cx="256" cy="256" r="256"/>
<g>
	<polygon style="fill:#E6E5E5;" points="187.831,388.849 141.319,388.849 141.319,409.6 193.767,409.6 193.767,388.836 
		187.831,388.843 	"/>
	<polygon style="fill:#E6E5E5;" points="187.831,344.517 187.831,344.311 187.831,366.878 187.831,366.675 193.767,366.675 
		193.767,366.671 187.831,366.671 	"/>
	<polygon style="fill:#E6E5E5;" points="187.831,300.387 187.831,300.184 193.767,300.184 193.767,279.436 141.319,279.436 
		141.319,300.174 187.831,300.174 	"/>
</g>
<polygon style="fill:#3E4959;" points="101.984,222.601 233.109,222.601 233.109,165.766 101.98,165.766 101.98,185.763 
	101.984,185.763 "/>
<g>
	<polygon style="fill:#242D3C;" points="233.109,279.436 233.109,222.601 101.984,222.601 101.984,259.429 101.98,259.429 
		101.98,279.436 141.319,279.436 193.767,279.436 	"/>
	<path style="fill:#242D3C;" d="M424.659,222.598c0-14.508-10.729-26.504-24.685-28.5v56.998
		C413.93,249.101,424.659,237.115,424.659,222.598z"/>
</g>
<g>
	<polygon style="fill:#FF6D3B;" points="399.974,350.162 399.974,251.095 399.974,194.097 399.974,102.4 382.487,102.4 
		382.487,113.298 382.497,113.294 382.497,222.585 382.497,331.868 382.487,331.865 382.487,350.162 	"/>
	<polygon style="fill:#FF6D3B;" points="101.984,222.601 101.984,185.763 101.98,185.763 90.353,185.763 90.353,259.429 
		101.98,259.429 101.984,259.429 	"/>
</g>
<g>
	<rect x="78.72" y="199.33" style="fill:#FFFFFF;" width="11.631" height="46.526"/>
	<polygon style="fill:#FFFFFF;" points="382.497,222.585 382.497,113.294 382.487,113.298 233.122,165.746 233.122,222.585 	"/>
</g>
<g>
	<polygon style="fill:#E6E5E5;" points="382.497,222.585 233.122,222.585 233.122,279.41 382.487,331.865 382.497,331.868 	"/>
	<polygon style="fill:#E6E5E5;" points="101.984,388.849 101.984,377.763 101.98,377.763 101.98,311.263 101.984,311.263 
		101.984,300.174 90.353,300.174 90.353,388.849 	"/>
</g>
<path style="fill:#242D3C;" d="M39.731,393.021h50.622v-4.172v-88.675v-4.162H3.12C8.651,331.251,21.37,364.101,39.731,393.021z
	 M75.267,372.743c2.871,0,5.196,2.325,5.196,5.189c0,2.874-2.325,5.203-5.196,5.203c-2.864,0-5.196-2.329-5.196-5.203
	C70.071,375.068,72.403,372.743,75.267,372.743z"/>
<g>
	<path style="fill:#FFFFFF;" d="M75.267,383.135c2.871,0,5.196-2.329,5.196-5.203c0-2.864-2.325-5.189-5.196-5.189
		c-2.864,0-5.196,2.326-5.196,5.189C70.071,380.806,72.403,383.135,75.267,383.135z"/>
	<path style="fill:#FFFFFF;" d="M101.98,377.763h0.003h21.227v0.003c0,2.821,1.08,5.678,3.234,7.845
		c2.187,2.167,5.014,3.237,7.852,3.237h7.023h46.513v-0.007l5.936-0.006l7.033-0.007c2.831,0.01,5.672-1.06,7.839-3.234
		c2.154-2.167,3.237-5.008,3.237-7.839c0-2.834-1.083-5.672-3.237-7.839c-2.174-2.164-5.011-3.244-7.839-3.244h-7.033h-5.936v0.203
		v-22.567v0.205v22.155h5.936h7.033c2.828,0,5.665-1.08,7.839-3.234c2.154-2.174,3.237-5.011,3.237-7.842
		c0-2.828-1.083-5.678-3.237-7.839c-2.174-2.16-5.008-3.237-7.839-3.237v-0.003c2.831,0,5.672-1.093,7.839-3.254
		c2.154-2.16,3.237-4.994,3.237-7.839c0-2.818-1.083-5.662-3.237-7.822c-2.167-2.16-5.008-3.26-7.839-3.26v-0.003
		c2.831,0,5.665-1.054,7.839-3.244c2.154-2.154,3.237-4.998,3.237-7.819c0-2.844-1.083-5.678-3.237-7.845
		c-2.174-2.167-5.011-3.244-7.839-3.244v-0.003h-7.033h-5.936v0.203v-0.213h-46.513h-7.023c-2.837,0-5.665,1.083-7.852,3.264
		c-2.157,2.16-3.234,4.995-3.234,7.825h-21.227h-0.003C101.98,311.259,101.98,377.763,101.98,377.763z"/>
	<rect x="437.13" y="219.67" style="fill:#FFFFFF;" width="19.387" height="5.814"/>
	
		<rect x="433.296" y="239.197" transform="matrix(-0.924 -0.3825 0.3825 -0.924 759.688 635.2354)" style="fill:#FFFFFF;" width="19.382" height="5.814"/>
	
		<rect x="429.036" y="248.955" transform="matrix(-0.7069 0.7074 -0.7074 -0.7069 920.2269 135.932)" style="fill:#FFFFFF;" width="5.821" height="19.382"/>
	
		<rect x="405.67" y="266.76" transform="matrix(0.3828 0.9238 -0.9238 0.3828 505.48 -217.2847)" style="fill:#FFFFFF;" width="19.378" height="5.813"/>
	
		<rect x="433.24" y="200.159" transform="matrix(-0.9237 0.3831 -0.3831 -0.9237 929.8628 220.9553)" style="fill:#FFFFFF;" width="19.38" height="5.817"/>
	
		<rect x="428.984" y="176.851" transform="matrix(0.7074 0.7068 -0.7068 0.7074 258.218 -250.682)" style="fill:#FFFFFF;" width="5.814" height="19.383"/>
	
		<rect x="405.664" y="172.59" transform="matrix(0.3807 -0.9247 0.9247 0.3807 94.954 492.7689)" style="fill:#FFFFFF;" width="19.397" height="5.81"/>
</g>
<g>
</g>
<g>
</g>
<g>
</g>
<g>
</g>
<g>
</g>
<g>
</g>
<g>
</g>
<g>
</g>
<g>
</g>
<g>
</g>
<g>
</g>
<g>
</g>
<g>
</g>
<g>
</g>
<g>
</g>
</svg>
