<?xml version="1.0" encoding="iso-8859-1"?>
<!-- Generator: Adobe Illustrator 19.0.0, SVG Export Plug-In . SVG Version: 6.00 Build 0)  -->
<svg version="1.1" id="Layer_1" xmlns="http://www.w3.org/2000/svg" xmlns:xlink="http://www.w3.org/1999/xlink" x="0px" y="0px"
	 viewBox="0 0 512 512" style="enable-background:new 0 0 512 512;" xml:space="preserve">
<circle style="fill:#3E4959;" cx="256" cy="256" r="256"/>
<g>
	<g>
		<circle style="fill:#21D8DE;" cx="42.014" cy="286.423" r="42.014"/>
		<path style="fill:#21D8DE;" d="M82.168,230.978c0,17.88-14.485,32.365-32.358,32.365c-17.867,0-32.348-14.485-32.348-32.365
			c0-17.867,14.485-32.348,32.348-32.348C67.68,198.63,82.168,213.111,82.168,230.978z"/>
		<circle style="fill:#21D8DE;" cx="90.046" cy="216.857" r="33.574"/>
		<path style="fill:#21D8DE;" d="M140.641,277.953c0,27.949-22.647,50.599-50.596,50.599s-50.599-22.65-50.599-50.599
			c0-27.955,22.65-50.612,50.599-50.612S140.641,250.001,140.641,277.953z"/>
	</g>
	<g>
		<rect x="63.868" y="249.195" style="fill:#FFFFFF;" width="3.247" height="148.942"/>
		
			<rect x="50.156" y="257.088" transform="matrix(-0.7081 0.7061 -0.7061 -0.7081 283.8242 436.0797)" style="fill:#FFFFFF;" width="3.244" height="39.232"/>
		
			<rect x="69.424" y="260.534" transform="matrix(-0.7064 -0.7079 0.7079 -0.7064 -69.0196 508.9072)" style="fill:#FFFFFF;" width="3.244" height="16.471"/>
		
			<rect x="73.486" y="287.955" transform="matrix(-0.7059 -0.7083 0.7083 -0.7059 -85.6875 568.1749)" style="fill:#FFFFFF;" width="3.25" height="27.843"/>
	</g>
	<rect x="101.918" y="362.925" style="fill:#D9D8D7;" width="308.158" height="17.619"/>
	<g>
		<rect x="90.915" y="380.532" style="fill:#FFFFFF;" width="330.157" height="17.6"/>
		<rect x="90.915" y="213.587" style="fill:#FFFFFF;" width="330.157" height="17.593"/>
		<rect x="123.375" y="231.18" style="fill:#FFFFFF;" width="24.209" height="131.736"/>
	</g>
	<rect x="117.889" y="231.18" style="fill:#D9D8D7;" width="35.219" height="17.689"/>
	<rect x="203.73" y="231.18" style="fill:#FFFFFF;" width="24.213" height="131.736"/>
	<rect x="198.227" y="231.18" style="fill:#D9D8D7;" width="35.216" height="17.689"/>
	<rect x="284.064" y="231.18" style="fill:#FFFFFF;" width="24.206" height="131.736"/>
	<rect x="278.561" y="231.18" style="fill:#D9D8D7;" width="35.212" height="17.689"/>
	<rect x="364.412" y="231.18" style="fill:#FFFFFF;" width="24.213" height="131.736"/>
	<g>
		<rect x="358.895" y="231.18" style="fill:#D9D8D7;" width="35.209" height="17.689"/>
		<polygon style="fill:#D9D8D7;" points="256,107.256 101.918,213.587 410.082,213.587 		"/>
	</g>
	<polygon style="fill:#FFFFFF;" points="153.412,197.543 256,126.751 358.588,197.543 	"/>
</g>
<path style="fill:#D9D8D7;" d="M256,189.42c-11.502,0-20.857-9.351-20.857-20.853c0-11.502,9.355-20.857,20.857-20.857
	c11.502,0,20.857,9.358,20.857,20.857C276.857,180.065,267.502,189.42,256,189.42z M256,157.336
	c-6.194,0-11.231,5.037-11.231,11.231c0,6.19,5.037,11.228,11.231,11.228c6.194,0,11.224-5.037,11.224-11.228
	C267.224,162.373,262.194,157.336,256,157.336z"/>
<g>
	<g>
		<circle style="fill:#21D8DE;" cx="441.377" cy="321.007" r="29.927"/>
		<circle style="fill:#21D8DE;" cx="444.878" cy="277.253" r="23.043"/>
		<circle style="fill:#21D8DE;" cx="475.466" cy="280.477" r="18.148"/>
		<circle style="fill:#21D8DE;" cx="478.472" cy="321.14" r="33.528"/>
	</g>
	<g>
		<rect x="457.926" y="295.474" style="fill:#FFFFFF;" width="3.079" height="102.664"/>
		
			<rect x="455.151" y="306.491" transform="matrix(-0.705 0.7092 -0.7092 -0.705 998.965 205.7389)" style="fill:#FFFFFF;" width="3.085" height="8.281"/>
		
			<rect x="449.198" y="307.939" transform="matrix(-0.7071 0.7071 -0.7071 -0.7071 996.0864 228.4229)" style="fill:#FFFFFF;" width="3.075" height="25.137"/>
		
			<rect x="465.43" y="321.214" transform="matrix(0.7061 0.7082 -0.7082 0.7061 372.2005 -233.1686)" style="fill:#FFFFFF;" width="3.079" height="21.092"/>
	</g>
	<g>
		<rect x="66.461" y="382.117" style="fill:#21D8DE;" width="44.508" height="16.021"/>
		<circle style="fill:#21D8DE;" cx="66.461" cy="382.547" r="15.585"/>
		<path style="fill:#21D8DE;" d="M119.983,389.137c0,4.968-4.037,9.001-9.005,9.001s-9.005-4.033-9.005-9.001
			c0-4.981,4.037-9.008,9.005-9.008S119.983,384.155,119.983,389.137z"/>
		<circle style="fill:#21D8DE;" cx="89.167" cy="377.691" r="20.43"/>
	</g>
</g>
<g>
</g>
<g>
</g>
<g>
</g>
<g>
</g>
<g>
</g>
<g>
</g>
<g>
</g>
<g>
</g>
<g>
</g>
<g>
</g>
<g>
</g>
<g>
</g>
<g>
</g>
<g>
</g>
<g>
</g>
</svg>
