<?xml version="1.0" encoding="iso-8859-1"?>
<!-- Generator: Adobe Illustrator 19.0.0, SVG Export Plug-In . SVG Version: 6.00 Build 0)  -->
<svg version="1.1" id="Layer_1" xmlns="http://www.w3.org/2000/svg" xmlns:xlink="http://www.w3.org/1999/xlink" x="0px" y="0px"
	 viewBox="0 0 512 512" style="enable-background:new 0 0 512 512;" xml:space="preserve">
<circle style="fill:#FFD55C;" cx="256" cy="256" r="256"/>
<rect x="79.928" y="245.01" style="fill:#3E4959;" width="352.14" height="228.88"/>
<path style="fill:#343D4B;" d="M79.928,313.04c3.62,10.643,9.642,20.404,17.794,28.586c14.052,14.052,32.761,21.775,52.62,21.775
	H361.66c19.866,0,38.562-7.73,52.594-21.775c8.175-8.185,14.201-17.953,17.821-28.586v-68.027H79.928V313.04z"/>
<path style="fill:#3E4959;" d="M432.072,209.801H79.928v79.215c0,18.022,6.877,36.035,20.615,49.783
	c13.761,13.765,31.807,20.632,49.796,20.632h211.317c17.979,0,36.025-6.867,49.773-20.632c13.761-13.748,20.639-31.76,20.639-49.783
	v-79.215H432.072z"/>
<g>
	<rect x="116.89" y="207.14" style="fill:#131A26;" width="87.62" height="2.659"/>
	<rect x="307.5" y="207.14" style="fill:#131A26;" width="87.61" height="2.659"/>
	<rect x="150.34" y="204.49" style="fill:#131A26;" width="28.16" height="272.03"/>
	<rect x="333.49" y="204.49" style="fill:#131A26;" width="28.17" height="272.03"/>
</g>
<g>
	<rect x="133.65" y="274.06" style="fill:#3E4959;" width="61.62" height="21.11"/>
	<rect x="316.7" y="274.06" style="fill:#3E4959;" width="61.64" height="21.11"/>
</g>
<path style="fill:#FFFFFF;" d="M181.169,344.493c-2.018-1.995-4.697-3.105-7.521-3.105h-18.439c-2.837,0-5.483,1.11-7.452,3.105
	c-2.002,2.008-3.102,4.658-3.102,7.498v25.481h5.691v-4.364h-1.305V351.99c0-1.688,0.614-3.221,1.82-4.38
	c1.13-1.169,2.722-1.81,4.347-1.81h18.439c1.698,0,3.214,0.638,4.42,1.81c1.116,1.163,1.771,2.692,1.771,4.38v21.118h-1.335v4.364
	h5.767v-25.481C184.267,349.151,183.164,346.502,181.169,344.493z"/>
<path style="fill:#CCCBCA;" d="M162.258,355.837h4.393v-12.255c0-0.426-0.205-0.872-0.555-1.216
	c-0.347-0.353-0.733-0.512-1.199-0.512h-0.882c-0.443,0-0.935,0.159-1.288,0.512c-0.337,0.344-0.472,0.789-0.472,1.216v12.255
	H162.258z"/>
<path style="fill:#FFFFFF;" d="M364.243,344.493c-1.992-1.995-4.621-3.105-7.459-3.105h-18.442c-2.824,0-5.49,1.11-7.525,3.105
	c-1.995,2.008-3.098,4.658-3.098,7.498v25.481h5.771v-4.364h-1.325V351.99c0-1.688,0.644-3.221,1.787-4.38
	c1.183-1.169,2.702-1.81,4.393-1.81h18.442c1.622,0,3.224,0.638,4.35,1.81c1.199,1.163,1.843,2.692,1.843,4.38v21.118h-1.318v4.364
	h5.678v-25.481C367.335,349.151,366.232,346.502,364.243,344.493z"/>
<path style="fill:#CCCBCA;" d="M345.329,355.837h4.393v-12.255c0-0.426-0.122-0.872-0.472-1.216
	c-0.344-0.353-0.819-0.512-1.272-0.512h-0.865c-0.479,0-0.895,0.159-1.226,0.512c-0.344,0.344-0.562,0.789-0.562,1.216v12.255
	H345.329z"/>
<path style="fill:#131A26;" d="M315.451,173.224c-2.844-2.808-6.606-4.37-10.587-4.37h-97.716c-4,0-7.749,1.566-10.593,4.37
	c-2.837,2.834-4.354,6.59-4.354,10.603v23.314h12.301v-23.314c0-0.71,0.261-1.374,0.799-1.883c0.472-0.505,1.163-0.786,1.85-0.786
	h97.716c0.687,0,1.374,0.281,1.843,0.786c0.545,0.509,0.796,1.173,0.796,1.883v23.314h12.311v-23.314
	C319.812,179.818,318.279,176.062,315.451,173.224z"/>
<polygon style="fill:#E6E5E5;" points="294.625,81.527 294.625,81.53 307.504,81.53 307.504,68.013 204.499,68.013 204.499,81.53 
	217.379,81.53 217.379,81.527 "/>
<path style="fill:#242D3C;" d="M312.34,68.013V6.234C294.21,2.162,275.359,0,256,0c-19.36,0-38.213,2.163-56.343,6.235v61.778h4.843
	h103.005H312.34z M217.174,56.535c-3.33,0-6.028-2.705-6.028-6.042c0-3.32,2.699-6.035,6.028-6.035c3.343,0,6.045,2.715,6.045,6.035
	C223.219,53.829,220.517,56.535,217.174,56.535z"/>
<g>
	<path style="fill:#FFFFFF;" d="M217.174,44.458c-3.33,0-6.028,2.715-6.028,6.035c0,3.336,2.699,6.042,6.028,6.042
		c3.343,0,6.045-2.705,6.045-6.042C223.219,47.173,220.517,44.458,217.174,44.458z"/>
	<path style="fill:#FFFFFF;" d="M294.625,81.527h-77.246v0.003v24.655c-3.27,0-6.597,1.249-9.114,3.753
		c-2.51,2.547-3.766,5.83-3.766,9.12l0.017,70.21c-0.007,3.293,1.245,6.597,3.769,9.11c2.51,2.504,5.804,3.766,9.104,3.766
		c3.293,0,6.59-1.262,9.107-3.766c2.507-2.524,3.766-5.82,3.766-9.11c0,3.29,1.259,6.587,3.772,9.11
		c2.51,2.504,5.81,3.766,9.1,3.766c3.29,0,6.6-1.262,9.117-3.766c2.504-2.524,3.756-5.817,3.756-9.11
		c0,3.293,1.265,6.597,3.782,9.11c2.504,2.504,5.8,3.766,9.104,3.766c3.287,0,6.583-1.262,9.1-3.766
		c2.514-2.514,3.766-5.817,3.766-9.11c0,3.293,1.239,6.587,3.769,9.11c2.517,2.504,5.814,3.766,9.104,3.766
		c3.3,0,6.59-1.262,9.11-3.766c2.524-2.524,3.769-5.82,3.769-9.11l0.007-70.21c-0.013-3.29-1.258-6.57-3.795-9.12
		c-2.514-2.504-5.804-3.753-9.097-3.753V81.53v-0.003H294.625z"/>
</g>
<g>
</g>
<g>
</g>
<g>
</g>
<g>
</g>
<g>
</g>
<g>
</g>
<g>
</g>
<g>
</g>
<g>
</g>
<g>
</g>
<g>
</g>
<g>
</g>
<g>
</g>
<g>
</g>
<g>
</g>
</svg>
