<?xml version="1.0" encoding="iso-8859-1"?>
<!-- Generator: Adobe Illustrator 19.0.0, SVG Export Plug-In . SVG Version: 6.00 Build 0)  -->
<svg version="1.1" id="Layer_1" xmlns="http://www.w3.org/2000/svg" xmlns:xlink="http://www.w3.org/1999/xlink" x="0px" y="0px"
	 viewBox="0 0 512 512" style="enable-background:new 0 0 512 512;" xml:space="preserve">
<circle style="fill:#3E4959;" cx="256" cy="256" r="256"/>
<polygon style="fill:#FFFFFF;" points="451.346,238.866 444.637,238.866 439.412,256.026 456.569,256.026 "/>
<polygon style="fill:#CCCBCA;" points="451.346,238.866 449.242,238.866 451.181,256.026 456.569,256.026 "/>
<rect x="439.428" y="256.033" style="fill:#FFD55C;" width="17.154" height="203.862"/>
<rect x="451.188" y="256.033" style="fill:#FFB733;" width="5.388" height="203.862"/>
<polygon style="fill:#242D3C;" points="451.346,238.866 447.997,227.84 444.621,238.866 "/>
<polygon style="fill:#131A26;" points="451.346,238.866 447.997,227.84 449.239,238.866 "/>
<rect x="439.428" y="459.875" style="fill:#F2F2F2;" width="17.154" height="9.943"/>
<rect x="451.188" y="459.875" style="fill:#CCCBCA;" width="5.388" height="9.943"/>
<path style="fill:#242D3C;" d="M456.569,475.238c0,2.193-0.839,4.393-2.51,6.065c-1.675,1.678-3.871,2.517-6.065,2.517l0,0
	c-2.197,0-4.4-0.839-6.068-2.517c-1.678-1.671-2.514-3.871-2.514-6.065v-5.397h17.154v5.397H456.569z"/>
<path style="fill:#131A26;" d="M451.181,469.841c0,2.197-0.846,4.397-2.52,6.071c-1.678,1.675-3.871,2.514-6.065,2.514
	c-0.922,0-1.823-0.188-2.712-0.472c0.41,1.219,1.067,2.375,2.041,3.35c1.668,1.678,3.871,2.517,6.068,2.517
	c2.193,0,4.39-0.839,6.065-2.517c1.671-1.671,2.51-3.871,2.51-6.065v-5.397H451.181z"/>
<path style="fill:#FFFFFF;" d="M109.981,460.803H404.1V74.924c0-24.064-19.486-43.543-43.533-43.543H109.981V460.803z"/>
<path style="fill:#CCCBCA;" d="M66.454,74.924H317.03c0-24.057,19.496-43.543,43.536-43.543H109.981
	C85.947,31.381,66.454,50.863,66.454,74.924z"/>
<rect x="146.267" y="342.908" style="fill:#3E4959;" width="52.515" height="30.076"/>
<rect x="211.539" y="342.908" style="fill:#CCCBCA;" width="156.276" height="30.076"/>
<polygon style="fill:#FF6D3B;" points="320.604,476.223 320.604,446.414 350.426,446.414 "/>
<polygon style="fill:#F15424;" points="350.426,476.223 350.426,446.414 320.604,446.414 "/>
<path style="fill:#FFD55C;" d="M331.925,390.782c1.965-2.325,5.203-2.325,7.165,0l0.978,1.136c1.975,2.329,6.005,3.647,8.988,2.92
	l1.437-0.35c2.973-0.737,5.586,1.179,5.804,4.218l0.112,1.493c0.225,3.042,2.738,6.474,5.546,7.637l1.397,0.562
	c2.818,1.156,3.815,4.231,2.213,6.818l-0.789,1.278c-1.595,2.6-1.595,6.844,0,9.444l0.789,1.272
	c1.602,2.593,0.604,5.655-2.213,6.824l-1.397,0.565c-2.808,1.146-5.318,4.578-5.546,7.64l-0.112,1.477
	c-0.215,3.059-2.828,4.942-5.804,4.225l-1.437-0.36c-2.98-0.727-7.013,0.595-8.988,2.917l-0.978,1.146
	c-1.962,2.322-5.199,2.322-7.165,0l-0.968-1.146c-1.972-2.322-6.022-3.643-8.978-2.917l-1.457,0.36
	c-2.96,0.717-5.576-1.169-5.797-4.225l-0.122-1.477c-0.215-3.065-2.722-6.497-5.543-7.64l-1.381-0.565
	c-2.824-1.169-3.819-4.231-2.226-6.824l0.786-1.272c1.599-2.6,1.599-6.844,0-9.444l-0.786-1.278
	c-1.592-2.586-0.601-5.665,2.22-6.818l1.387-0.562c2.821-1.163,5.325-4.595,5.543-7.637l0.122-1.493
	c0.218-3.039,2.834-4.955,5.797-4.218l1.457,0.35c2.956,0.727,7.006-0.591,8.978-2.92L331.925,390.782z"/>
<path style="fill:#FFB733;" d="M356.286,421.201c0,11.472-9.299,20.79-20.771,20.79c-11.492,0-20.79-9.318-20.79-20.79
	c0-11.492,9.299-20.774,20.79-20.774C346.987,400.427,356.286,409.709,356.286,421.201z"/>
<rect x="197.962" y="430.741" style="fill:#CCCBCA;" width="70.894" height="6.362"/>
<rect x="146.267" y="168.927" style="fill:#FF6D3B;" width="221.547" height="11.231"/>
<g>
	<rect x="146.267" y="189.704" style="fill:#CCCBCA;" width="221.547" height="6.355"/>
	<rect x="146.267" y="205.593" style="fill:#CCCBCA;" width="221.547" height="6.362"/>
	<rect x="146.267" y="221.481" style="fill:#CCCBCA;" width="221.547" height="6.349"/>
	<rect x="146.267" y="237.38" style="fill:#CCCBCA;" width="221.547" height="6.349"/>
	<rect x="146.267" y="253.258" style="fill:#CCCBCA;" width="221.547" height="6.362"/>
	<rect x="146.267" y="269.147" style="fill:#CCCBCA;" width="221.547" height="6.369"/>
	<rect x="146.267" y="285.068" style="fill:#CCCBCA;" width="221.547" height="6.352"/>
	<rect x="146.267" y="300.957" style="fill:#CCCBCA;" width="221.547" height="6.355"/>
	<rect x="146.267" y="316.845" style="fill:#CCCBCA;" width="110.774" height="6.362"/>
</g>
<rect x="146.267" y="98.631" style="fill:#3E4959;" width="87.156" height="60.773"/>
<g>
	<rect x="242.919" y="98.631" style="fill:#CCCBCA;" width="124.888" height="6.369"/>
	<rect x="242.919" y="114.523" style="fill:#CCCBCA;" width="124.888" height="6.362"/>
	<rect x="242.919" y="130.418" style="fill:#CCCBCA;" width="62.441" height="6.349"/>
</g>
<path style="fill:#3E4959;" d="M233.416,422.476c-8.149,0-14.765-6.623-14.765-14.762c0-8.133,6.616-14.756,14.765-14.756
	c8.136,0,14.756,6.623,14.756,14.756C248.171,415.856,241.552,422.476,233.416,422.476z M233.416,397.662
	c-5.553,0-10.065,4.512-10.065,10.055c0,5.556,4.512,10.058,10.065,10.058c5.536,0,10.048-4.502,10.048-10.058
	C243.464,402.174,238.952,397.662,233.416,397.662z"/>
<rect id="SVGCleanerId_0" x="211.539" y="405.372" style="fill:#3E4959;" width="43.741" height="4.704"/>
<g>
	<rect id="SVGCleanerId_0_1_" x="211.539" y="405.372" style="fill:#3E4959;" width="43.741" height="4.704"/>
</g>
<g>
</g>
<g>
</g>
<g>
</g>
<g>
</g>
<g>
</g>
<g>
</g>
<g>
</g>
<g>
</g>
<g>
</g>
<g>
</g>
<g>
</g>
<g>
</g>
<g>
</g>
<g>
</g>
<g>
</g>
</svg>
