<?xml version="1.0" encoding="iso-8859-1"?>
<!-- Generator: Adobe Illustrator 19.0.0, SVG Export Plug-In . SVG Version: 6.00 Build 0)  -->
<svg version="1.1" id="Layer_1" xmlns="http://www.w3.org/2000/svg" xmlns:xlink="http://www.w3.org/1999/xlink" x="0px" y="0px"
	 viewBox="0 0 512 512" style="enable-background:new 0 0 512 512;" xml:space="preserve">
<circle style="fill:#FF6D3B;" cx="256" cy="256" r="256"/>
<rect x="145.606" y="274.465" style="fill:#21D8DE;" width="311.891" height="180.749"/>
<rect x="154.994" y="283.846" style="fill:#06B2B8;" width="293.095" height="162.056"/>
<rect x="164.715" y="293.558" style="fill:#21D8DE;" width="273.639" height="142.6"/>
<path style="fill:#06B2B8;" d="M246.784,364.884c0-30.274,24.51-54.814,54.787-54.814c30.215,0,54.738,24.54,54.738,54.814
	c0,30.211-24.523,54.777-54.738,54.777C271.294,419.662,246.784,395.096,246.784,364.884z"/>
<g>
	<path style="fill:#21D8DE;" d="M306.625,368.848h-10.151c-4.231,0-8.215-1.675-11.191-4.667c-2.979-2.943-4.631-6.93-4.631-11.191
		c0-4.218,1.652-8.215,4.644-11.205c2.937-2.96,6.904-4.595,11.178-4.595h21.986v7.967h-21.986c-2.127,0-4.099,0.839-5.52,2.273
		c-1.51,1.486-2.316,3.455-2.316,5.559c0,2.137,0.799,4.096,2.266,5.526c1.52,1.526,3.478,2.339,5.573,2.339h10.151v7.994H306.625z"
		/>
	<path style="fill:#21D8DE;" d="M306.625,392.516h-21.973v-7.997h21.973c2.091,0,4.07-0.806,5.573-2.279
		c1.447-1.453,2.276-3.422,2.276-5.54c0-2.121-0.823-4.083-2.256-5.5c-1.523-1.533-3.505-2.352-5.592-2.352h-10.151v-7.994h10.151
		c4.231,0,8.199,1.678,11.191,4.661c2.97,2.933,4.628,6.924,4.628,11.185c0,4.231-1.652,8.228-4.654,11.198
		C314.801,390.887,310.82,392.516,306.625,392.516z"/>
	<rect x="297.555" y="334.419" style="fill:#21D8DE;" width="7.974" height="60.872"/>
</g>
<g>
	<path style="fill:#06B2B8;" d="M448.096,328.288v-44.438h-44.432C407.602,306.536,425.416,324.35,448.096,328.288z"/>
	<path style="fill:#06B2B8;" d="M154.994,401.405v44.498h44.422C195.482,423.166,177.69,405.359,154.994,401.405z"/>
	<path style="fill:#06B2B8;" d="M154.994,328.288c22.683-3.934,40.468-21.752,44.422-44.438h-44.422V328.288z"/>
	<path style="fill:#06B2B8;" d="M403.664,445.899h44.432v-44.498C425.416,405.359,407.588,423.166,403.664,445.899z"/>
</g>
<path style="fill:#FFFFFF;" d="M308.934,97.581c2.89,0,5.797,1.1,8,3.316c2.2,2.2,3.323,5.11,3.323,8l-0.01,131.488
	c0.01,2.91-1.113,5.82-3.313,8.033c-2.216,2.207-5.11,3.297-7.997,3.303H100.349c-2.897,0-5.791-1.097-8.004-3.303
	c-2.203-2.213-3.313-5.123-3.313-8.033V108.911c0-2.904,1.11-5.814,3.313-8.027c2.213-2.203,5.107-3.303,7.997-3.303H308.934z"/>
<path style="fill:#FF6D3B;" d="M234.764,174.655c0-11.257,5.649-21.207,14.247-27.189c-3.174-1.179-6.597-1.863-10.194-1.863
	c-16.037,0-29.042,13.011-29.042,29.055s13.005,29.062,29.042,29.062c3.597,0,7.019-0.684,10.194-1.889
	C240.412,195.858,234.764,185.909,234.764,174.655z"/>
<g>
	<path style="fill:#CCCBCA;" d="M267.885,203.71c-16.031,0-29.065-13.035-29.065-29.062s13.035-29.049,29.065-29.049v1.754
		c-15.056,0-27.304,12.238-27.304,27.295s12.248,27.301,27.304,27.301L267.885,203.71L267.885,203.71z"/>
	<path style="fill:#CCCBCA;" d="M267.885,203.71c-4.103,0-7.928-3.102-10.755-8.74c-2.728-5.437-4.202-12.658-4.202-20.321
		c0-7.654,1.473-14.881,4.202-20.312c2.824-5.639,6.653-8.737,10.755-8.737v1.754c-3.409,0-6.676,2.761-9.18,7.763
		c-2.586,5.219-4.017,12.139-4.017,19.532c0,7.399,1.43,14.326,4.017,19.525c2.507,5.024,5.771,7.776,9.18,7.776V203.71z"/>
	<rect x="267" y="146.465" style="fill:#CCCBCA;" width="1.764" height="56.353"/>
	<path style="fill:#CCCBCA;" d="M267.885,203.71v-1.761c3.406,0,6.672-2.748,9.173-7.776c2.593-5.199,4.023-12.126,4.023-19.525
		c0-7.393-1.43-14.313-4.023-19.532c-2.504-5.001-5.767-7.763-9.173-7.763V145.6c4.096,0,7.924,3.098,10.755,8.737
		c2.715,5.434,4.198,12.658,4.198,20.312c0,7.663-1.483,14.888-4.198,20.321C275.809,200.605,271.981,203.71,267.885,203.71z"/>
	<path style="fill:#CCCBCA;" d="M267.885,203.71v-1.761c15.056,0,27.295-12.245,27.295-27.301c0-15.056-12.238-27.295-27.295-27.295
		V145.6c16.021,0,29.058,13.021,29.058,29.049S283.902,203.71,267.885,203.71z"/>
	<rect x="243.481" y="159.678" style="fill:#CCCBCA;" width="48.792" height="1.757"/>
	<rect x="239.715" y="173.763" style="fill:#CCCBCA;" width="56.353" height="1.774"/>
	<rect x="243.481" y="187.848" style="fill:#CCCBCA;" width="48.792" height="1.757"/>
</g>
<path style="fill:#FFD55C;" d="M150.763,186.827c0,1.678-1.381,3.079-3.065,3.079h-32.266c-1.711,0-3.092-1.401-3.092-3.079v-24.348
	c0-1.678,1.381-3.072,3.092-3.072h32.266c1.685,0,3.065,1.394,3.065,3.072V186.827z"/>
<rect x="112.343" y="166.945" style="fill:#FFB733;" width="38.42" height="15.403"/>
<g>
	<rect x="112.343" y="222.043" style="fill:#CCCBCA;" width="38.42" height="4.591"/>
	<rect x="161.065" y="222.043" style="fill:#CCCBCA;" width="38.42" height="4.591"/>
	<rect x="209.788" y="222.043" style="fill:#CCCBCA;" width="38.426" height="4.591"/>
	<rect x="258.51" y="222.043" style="fill:#CCCBCA;" width="38.44" height="4.591"/>
</g>
<rect x="112.343" y="116.009" style="fill:#242D3C;" width="87.142" height="10.792"/>
<rect x="89.032" y="131.776" style="fill:#FF6D3B;" width="231.216" height="2.17"/>
<rect x="67.425" y="436.191" style="fill:#FFC640;" width="91.06" height="19.036"/>
<rect x="67.425" y="434.275" style="fill:#FFD55C;" width="91.06" height="19.023"/>
<rect x="54.503" y="415.282" style="fill:#FFB733;" width="91.09" height="19.027"/>
<g>
	<rect x="54.503" y="413.366" style="fill:#FFC640;" width="91.09" height="19.01"/>
	<rect x="74.788" y="394.306" style="fill:#FFC640;" width="91.077" height="19.043"/>
</g>
<rect x="74.788" y="392.39" style="fill:#FFD55C;" width="91.077" height="19.07"/>
<rect x="77.646" y="373.364" style="fill:#FFC640;" width="91.057" height="19.007"/>
<g>
	<rect x="77.646" y="371.481" style="fill:#FFB733;" width="91.057" height="19.056"/>
	<rect x="69.467" y="352.454" style="fill:#FFB733;" width="91.07" height="19.027"/>
</g>
<rect x="69.467" y="350.538" style="fill:#FFC640;" width="91.07" height="19.017"/>
<rect x="72.605" y="331.512" style="fill:#FFB733;" width="91.077" height="19.03"/>
<g>
	<rect x="72.605" y="329.596" style="fill:#FFC640;" width="91.077" height="19.043"/>
	<rect x="67.425" y="310.602" style="fill:#FFC640;" width="91.06" height="19.003"/>
</g>
<rect x="67.425" y="308.686" style="fill:#FFD55C;" width="91.06" height="19.02"/>
<path style="fill:#FFB733;" d="M242.909,409.669c0,25.138-20.381,45.545-45.528,45.545c-25.161,0-45.532-20.407-45.532-45.545
	c0-25.134,20.371-45.528,45.532-45.528C222.528,364.141,242.909,384.535,242.909,409.669z"/>
<path style="fill:#FFD55C;" d="M233.779,409.669c0,20.163-16.285,36.438-36.402,36.438c-20.136,0-36.431-16.275-36.431-36.438
	c0-20.11,16.298-36.402,36.431-36.402C217.498,373.271,233.779,389.563,233.779,409.669z"/>
<g>
	<path style="fill:#FFB733;" d="M201.206,412.689h-7.657c-3.198,0-6.194-1.245-8.427-3.518c-2.259-2.22-3.505-5.206-3.505-8.403
		c0-3.214,1.245-6.197,3.515-8.469c2.193-2.2,5.186-3.462,8.413-3.462h16.576v6.032h-16.576c-1.612,0-3.085,0.601-4.182,1.685
		c-1.113,1.126-1.724,2.616-1.724,4.215c0,1.586,0.614,3.042,1.704,4.149c1.153,1.14,2.629,1.777,4.202,1.777h7.657v5.995H201.206z"
		/>
	<path style="fill:#FFB733;" d="M201.206,430.529h-16.585v-6.015h16.585c1.556,0,3.059-0.591,4.195-1.718
		c1.083-1.103,1.728-2.586,1.728-4.179c0-1.605-0.644-3.098-1.728-4.142c-1.136-1.15-2.639-1.79-4.195-1.79h-7.657v-5.995h7.657
		c3.181,0,6.167,1.245,8.427,3.501c2.246,2.18,3.492,5.209,3.492,8.43c0,3.184-1.245,6.207-3.508,8.446
		C207.373,429.284,204.364,430.529,201.206,430.529z"/>
	<rect x="194.382" y="386.742" style="fill:#FFB733;" width="5.982" height="45.882"/>
</g>
<g>
</g>
<g>
</g>
<g>
</g>
<g>
</g>
<g>
</g>
<g>
</g>
<g>
</g>
<g>
</g>
<g>
</g>
<g>
</g>
<g>
</g>
<g>
</g>
<g>
</g>
<g>
</g>
<g>
</g>
</svg>
