<?xml version="1.0" encoding="iso-8859-1"?>
<!-- Generator: Adobe Illustrator 19.0.0, SVG Export Plug-In . SVG Version: 6.00 Build 0)  -->
<svg version="1.1" id="Layer_1" xmlns="http://www.w3.org/2000/svg" xmlns:xlink="http://www.w3.org/1999/xlink" x="0px" y="0px"
	 viewBox="0 0 512 512" style="enable-background:new 0 0 512 512;" xml:space="preserve">
<circle style="fill:#FF6D3B;" cx="256" cy="256" r="256"/>
<path style="fill:#FFFFFF;" d="M319.699,18.845H86.429v410.323h279.909V65.513C366.338,39.754,345.428,18.845,319.699,18.845z"/>
<g>
	<path style="fill:#CCCBCA;" d="M86.429,18.852c-25.788,0-46.638,20.903-46.638,46.648h233.237
		c0-25.745,20.863-46.648,46.658-46.648C319.686,18.852,86.429,18.852,86.429,18.852z"/>
	<rect x="117.416" y="380.102" style="fill:#CCCBCA;" width="217.937" height="6.253"/>
	<rect x="117.416" y="364.478" style="fill:#CCCBCA;" width="217.937" height="6.263"/>
	<rect x="117.416" y="348.821" style="fill:#CCCBCA;" width="217.937" height="6.26"/>
	<rect x="117.416" y="333.196" style="fill:#CCCBCA;" width="217.937" height="6.263"/>
	<rect x="117.416" y="317.572" style="fill:#CCCBCA;" width="217.937" height="6.26"/>
	<rect x="117.416" y="395.759" style="fill:#CCCBCA;" width="108.967" height="6.26"/>
	<rect x="183.56" y="229.31" style="fill:#CCCBCA;" width="2.005" height="0.433"/>
	<rect x="187.564" y="229.31" style="fill:#CCCBCA;" width="2.005" height="0.433"/>
	<rect x="179.563" y="229.31" style="fill:#CCCBCA;" width="2.005" height="0.433"/>
	<rect x="167.553" y="229.31" style="fill:#CCCBCA;" width="1.998" height="0.433"/>
	<rect x="191.564" y="229.31" style="fill:#CCCBCA;" width="2.005" height="0.433"/>
	<rect x="171.553" y="229.31" style="fill:#CCCBCA;" width="2.005" height="0.433"/>
	<rect x="175.566" y="229.31" style="fill:#CCCBCA;" width="1.998" height="0.433"/>
	<rect x="195.584" y="229.31" style="fill:#CCCBCA;" width="1.998" height="0.433"/>
	<rect x="211.572" y="229.31" style="fill:#CCCBCA;" width="1.998" height="0.433"/>
	<rect x="215.569" y="229.31" style="fill:#CCCBCA;" width="2.005" height="0.433"/>
	<rect x="163.543" y="229.31" style="fill:#CCCBCA;" width="2.005" height="0.433"/>
	<rect x="219.598" y="229.31" style="fill:#CCCBCA;" width="1.998" height="0.433"/>
	<rect x="199.581" y="229.31" style="fill:#CCCBCA;" width="1.995" height="0.433"/>
	<rect x="207.585" y="229.31" style="fill:#CCCBCA;" width="1.995" height="0.433"/>
	<rect x="203.578" y="229.31" style="fill:#CCCBCA;" width="1.995" height="0.433"/>
	<rect x="223.595" y="229.31" style="fill:#CCCBCA;" width="1.998" height="0.433"/>
	<rect x="127.531" y="229.31" style="fill:#CCCBCA;" width="1.995" height="0.433"/>
	<rect x="147.532" y="229.31" style="fill:#CCCBCA;" width="2.005" height="0.433"/>
	<rect x="151.539" y="229.31" style="fill:#CCCBCA;" width="2.005" height="0.433"/>
	<rect x="159.546" y="229.31" style="fill:#CCCBCA;" width="1.998" height="0.433"/>
	<rect x="155.549" y="229.31" style="fill:#CCCBCA;" width="2.005" height="0.433"/>
	<rect x="135.531" y="229.31" style="fill:#CCCBCA;" width="2.005" height="0.433"/>
	<rect x="131.531" y="229.31" style="fill:#CCCBCA;" width="1.998" height="0.433"/>
	<rect x="139.528" y="229.31" style="fill:#CCCBCA;" width="2.005" height="0.433"/>
	<rect x="143.525" y="229.31" style="fill:#CCCBCA;" width="2.005" height="0.433"/>
	<rect x="235.586" y="229.31" style="fill:#CCCBCA;" width="1.998" height="0.433"/>
	<rect x="323.65" y="229.31" style="fill:#CCCBCA;" width="1.998" height="0.433"/>
	<rect x="295.639" y="229.31" style="fill:#CCCBCA;" width="1.998" height="0.433"/>
	<rect x="319.653" y="229.31" style="fill:#CCCBCA;" width="1.998" height="0.433"/>
	<rect x="315.656" y="229.31" style="fill:#CCCBCA;" width="2.005" height="0.433"/>
	<rect x="299.636" y="229.31" style="fill:#CCCBCA;" width="1.998" height="0.433"/>
	<rect x="303.633" y="229.31" style="fill:#CCCBCA;" width="2.005" height="0.433"/>
	<rect x="307.629" y="229.31" style="fill:#CCCBCA;" width="1.998" height="0.433"/>
	<rect x="311.659" y="229.31" style="fill:#CCCBCA;" width="1.995" height="0.433"/>
	<rect x="327.647" y="229.31" style="fill:#CCCBCA;" width="1.998" height="0.433"/>
	<rect x="283.615" y="229.31" style="fill:#CCCBCA;" width="1.998" height="0.433"/>
	<rect x="251.607" y="229.31" style="fill:#CCCBCA;" width="1.998" height="0.433"/>
	<rect x="247.597" y="229.31" style="fill:#CCCBCA;" width="2.005" height="0.433"/>
	<rect x="259.6" y="229.31" style="fill:#CCCBCA;" width="2.005" height="0.433"/>
	<rect x="255.604" y="229.31" style="fill:#CCCBCA;" width="1.995" height="0.433"/>
	<rect x="291.642" y="229.31" style="fill:#CCCBCA;" width="1.995" height="0.433"/>
	<rect x="231.589" y="229.31" style="fill:#CCCBCA;" width="1.998" height="0.433"/>
	<rect x="239.583" y="229.31" style="fill:#CCCBCA;" width="1.998" height="0.433"/>
	<rect x="243.613" y="229.31" style="fill:#CCCBCA;" width="1.998" height="0.433"/>
	<rect x="227.589" y="229.31" style="fill:#CCCBCA;" width="1.998" height="0.433"/>
	<rect x="279.618" y="229.31" style="fill:#CCCBCA;" width="2.005" height="0.433"/>
	<rect x="287.645" y="229.31" style="fill:#CCCBCA;" width="1.995" height="0.433"/>
	<rect x="271.624" y="229.31" style="fill:#CCCBCA;" width="1.998" height="0.433"/>
	<rect x="267.627" y="229.31" style="fill:#CCCBCA;" width="2.005" height="0.433"/>
	<rect x="263.63" y="229.31" style="fill:#CCCBCA;" width="1.998" height="0.433"/>
	<rect x="275.621" y="229.31" style="fill:#CCCBCA;" width="2.005" height="0.433"/>
	<rect x="127.531" y="244.085" style="fill:#CCCBCA;" width="3.904" height="45.892"/>
	<rect x="134.867" y="234.255" style="fill:#CCCBCA;" width="3.918" height="55.719"/>
	<rect x="142.204" y="258.048" style="fill:#CCCBCA;" width="3.911" height="31.936"/>
	<rect x="149.537" y="248.964" style="fill:#CCCBCA;" width="3.924" height="41.006"/>
	<rect x="156.87" y="231.325" style="fill:#CCCBCA;" width="3.924" height="58.649"/>
	<rect x="164.236" y="239.021" style="fill:#CCCBCA;" width="3.911" height="50.959"/>
	<rect x="186.269" y="248.964" style="fill:#CCCBCA;" width="3.918" height="41.006"/>
	<rect x="193.602" y="264.952" style="fill:#CCCBCA;" width="3.918" height="25.025"/>
	<rect x="200.939" y="239.946" style="fill:#CCCBCA;" width="3.911" height="50.044"/>
	<rect x="215.602" y="234.793" style="fill:#CCCBCA;" width="3.918" height="55.167"/>
	<rect x="245" y="237.228" style="fill:#CCCBCA;" width="3.918" height="52.746"/>
	<rect x="252.333" y="255.009" style="fill:#CCCBCA;" width="3.911" height="34.948"/>
	<rect x="259.667" y="241.235" style="fill:#CCCBCA;" width="3.918" height="48.756"/>
	<rect x="267" y="246.421" style="fill:#CCCBCA;" width="3.924" height="43.566"/>
	<rect x="274.366" y="234.793" style="fill:#CCCBCA;" width="3.911" height="55.167"/>
	<rect x="281.699" y="239.946" style="fill:#CCCBCA;" width="3.911" height="50.044"/>
	<rect x="296.365" y="232.25" style="fill:#CCCBCA;" width="3.918" height="57.73"/>
	<rect x="303.732" y="259.204" style="fill:#CCCBCA;" width="3.904" height="30.756"/>
	<rect x="311.065" y="239.021" style="fill:#CCCBCA;" width="3.918" height="50.959"/>
	<rect x="318.398" y="244.868" style="fill:#CCCBCA;" width="3.911" height="45.092"/>
	<rect x="325.764" y="234.826" style="fill:#CCCBCA;" width="3.904" height="55.141"/>
	<rect x="289.032" y="229.508" style="fill:#CCCBCA;" width="3.911" height="60.479"/>
	<rect x="237.641" y="229.508" style="fill:#CCCBCA;" width="3.918" height="60.479"/>
	<rect x="230.301" y="229.508" style="fill:#CCCBCA;" width="3.928" height="60.479"/>
	<rect x="222.968" y="229.508" style="fill:#CCCBCA;" width="3.904" height="60.479"/>
	<rect x="208.268" y="229.508" style="fill:#CCCBCA;" width="3.924" height="60.479"/>
	<rect x="178.903" y="229.508" style="fill:#CCCBCA;" width="3.911" height="60.479"/>
	<rect x="171.583" y="229.508" style="fill:#CCCBCA;" width="3.904" height="60.479"/>
</g>
<g>
	<path style="fill:#FF6D3B;" d="M175.487,210.287v19.215h-3.904v-19.215c0-1.093,0.865-1.969,1.949-1.969
		C174.609,208.318,175.487,209.193,175.487,210.287z"/>
	<path style="fill:#FF6D3B;" d="M182.824,216.583v12.919h-3.911v-12.919c0-1.07,0.885-1.956,1.956-1.956
		C181.945,214.63,182.824,215.512,182.824,216.583z"/>
	<path style="fill:#FF6D3B;" d="M212.189,211.737v17.768h-3.921v-17.768c0-1.09,0.885-1.952,1.969-1.952
		C211.314,209.785,212.189,210.647,212.189,211.737z"/>
	<path style="fill:#FF6D3B;" d="M226.882,200.915c0,0.017-0.013,0.017-0.013,0.017v28.57h-3.904v-28.586
		c0-1.074,0.879-1.959,1.949-1.959C226.01,198.957,226.882,199.842,226.882,200.915z"/>
	<path style="fill:#FF6D3B;" d="M234.222,206.851v22.65h-3.928v-22.65c0-1.07,0.885-1.949,1.962-1.949
		C233.346,204.902,234.222,205.781,234.222,206.851z"/>
	<path style="fill:#FF6D3B;" d="M241.558,213.425v16.077h-3.918v-16.077c0-1.074,0.879-1.952,1.969-1.952
		C240.68,211.476,241.558,212.351,241.558,213.425z"/>
	<path style="fill:#FF6D3B;" d="M292.947,214.353v15.152h-3.911v-15.152c0-1.087,0.879-1.965,1.956-1.965
		C292.081,212.387,292.947,213.266,292.947,214.353z"/>
</g>
<g>
	<rect x="121.836" y="294.417" style="fill:#3E4959;" width="213.521" height="2.517"/>
	<rect x="120.578" y="197.612" style="fill:#3E4959;" width="2.517" height="99.295"/>
	<rect x="117.416" y="197.612" style="fill:#3E4959;" width="4.42" height="2.517"/>
	<rect x="117.416" y="203.314" style="fill:#3E4959;" width="4.42" height="2.517"/>
	<rect x="117.416" y="208.995" style="fill:#3E4959;" width="4.42" height="2.517"/>
	<rect x="117.416" y="214.696" style="fill:#3E4959;" width="4.42" height="2.517"/>
	<rect x="117.416" y="220.391" style="fill:#3E4959;" width="4.42" height="2.517"/>
	<rect x="117.416" y="226.073" style="fill:#3E4959;" width="4.42" height="2.517"/>
	<rect x="117.416" y="231.787" style="fill:#3E4959;" width="4.42" height="2.517"/>
	<rect x="117.416" y="237.475" style="fill:#3E4959;" width="4.42" height="2.517"/>
	<rect x="117.416" y="243.15" style="fill:#3E4959;" width="4.42" height="2.517"/>
	<rect x="117.416" y="248.865" style="fill:#3E4959;" width="4.42" height="2.517"/>
	<rect x="117.416" y="254.547" style="fill:#3E4959;" width="4.42" height="2.517"/>
	<rect x="117.416" y="260.228" style="fill:#3E4959;" width="4.42" height="2.517"/>
	<rect x="117.416" y="265.943" style="fill:#3E4959;" width="4.42" height="2.517"/>
	<rect x="117.416" y="271.624" style="fill:#3E4959;" width="4.42" height="2.517"/>
	<rect x="117.416" y="277.329" style="fill:#3E4959;" width="4.42" height="2.517"/>
	<rect x="117.416" y="283.02" style="fill:#3E4959;" width="4.42" height="2.517"/>
	<rect x="117.416" y="288.702" style="fill:#3E4959;" width="4.42" height="2.517"/>
	<rect x="117.416" y="294.417" style="fill:#3E4959;" width="4.42" height="2.517"/>
	<rect x="217.461" y="92.655" style="fill:#3E4959;" width="117.889" height="6.25"/>
</g>
<g>
	<rect x="217.461" y="108.283" style="fill:#CCCBCA;" width="117.889" height="6.263"/>
	<rect x="217.461" y="123.927" style="fill:#CCCBCA;" width="117.889" height="6.24"/>
	<rect x="217.461" y="139.561" style="fill:#CCCBCA;" width="117.889" height="6.246"/>
	<rect x="217.461" y="155.186" style="fill:#CCCBCA;" width="117.889" height="6.26"/>
	<rect x="217.461" y="170.81" style="fill:#CCCBCA;" width="61.334" height="6.263"/>
</g>
<rect x="117.416" y="92.655" style="fill:#FF6D3B;" width="84.421" height="84.411"/>
<rect x="335.343" y="336.83" style="fill:#3E4959;" width="136.853" height="136.853"/>
<rect x="349.415" y="350.439" style="fill:#242D3C;" width="47.814" height="16.87"/>
<rect x="351.959" y="352.95" style="fill:#CCCBCA;" width="42.747" height="11.806"/>
<g>
	<rect x="379.177" y="352.95" style="fill:#242D3C;" width="2.527" height="11.806"/>
	<rect x="364.94" y="352.95" style="fill:#242D3C;" width="2.52" height="11.806"/>
	<rect x="411.285" y="350.439" style="fill:#242D3C;" width="16.866" height="16.87"/>
	<rect x="442.203" y="350.439" style="fill:#242D3C;" width="16.873" height="16.87"/>
	<rect x="349.415" y="381.357" style="fill:#242D3C;" width="16.873" height="16.863"/>
	<rect x="380.333" y="381.357" style="fill:#242D3C;" width="16.886" height="16.863"/>
	<rect x="411.285" y="381.357" style="fill:#242D3C;" width="16.866" height="16.863"/>
	<rect x="442.203" y="381.357" style="fill:#242D3C;" width="16.873" height="16.863"/>
	<rect x="349.415" y="412.276" style="fill:#242D3C;" width="16.873" height="16.883"/>
	<rect x="380.333" y="412.276" style="fill:#242D3C;" width="16.886" height="16.883"/>
	<rect x="411.285" y="412.276" style="fill:#242D3C;" width="16.866" height="16.883"/>
	<rect x="349.415" y="443.227" style="fill:#242D3C;" width="16.873" height="16.87"/>
	<rect x="380.333" y="443.227" style="fill:#242D3C;" width="16.886" height="16.87"/>
	<rect x="411.285" y="443.227" style="fill:#242D3C;" width="16.866" height="16.87"/>
</g>
<rect x="442.203" y="412.276" style="fill:#CCCBCA;" width="16.873" height="47.817"/>
<rect x="335.343" y="275.918" style="fill:#242D3C;" width="136.853" height="60.915"/>
<rect x="345.088" y="285.663" style="fill:#06B2B8;" width="117.387" height="41.459"/>
<rect x="350.142" y="290.717" style="fill:#21D8DE;" width="107.272" height="31.334"/>
<circle style="fill:#FFB733;" cx="128.624" cy="336.301" r="24.777"/>
<path style="fill:#FFD55C;" d="M101.66,336.311c0,13.692,11.079,24.781,24.748,24.781c13.715,0,24.82-11.089,24.82-24.781
	c0-13.679-11.102-24.768-24.82-24.768C112.739,311.54,101.66,322.633,101.66,336.311z"/>
<path style="fill:#FFC640;" d="M108.273,336.311c0,10.045,8.123,18.174,18.135,18.174c10.052,0,18.194-8.129,18.194-18.174
	c0-10.025-8.142-18.168-18.194-18.168C116.396,318.144,108.273,326.283,108.273,336.311z"/>
<g>
	<path style="fill:#FFB733;" d="M110.466,336.311c0-9.659,7.535-17.537,17.058-18.102c-0.367-0.02-0.73-0.066-1.116-0.066
		c-10.012,0-18.135,8.142-18.135,18.168c0,10.045,8.123,18.174,18.135,18.174c0.386,0,0.75-0.033,1.116-0.053
		C118.004,353.865,110.466,345.986,110.466,336.311z"/>
	<circle style="fill:#FFB733;" cx="71.967" cy="423.936" r="24.778"/>
</g>
<path style="fill:#FFD55C;" d="M45.003,423.923c0,13.692,11.079,24.781,24.748,24.781c13.715,0,24.82-11.089,24.82-24.781
	c0-13.685-11.102-24.768-24.82-24.768C56.082,399.155,45.003,410.238,45.003,423.923z"/>
<path style="fill:#FFC640;" d="M51.616,423.923c0,10.045,8.123,18.174,18.135,18.174c10.052,0,18.194-8.129,18.194-18.174
	c0-10.025-8.142-18.168-18.194-18.168C59.739,405.755,51.616,413.897,51.616,423.923z"/>
<g>
	<path style="fill:#FFB733;" d="M53.803,423.923c0-9.659,7.541-17.537,17.064-18.102c-0.367-0.02-0.73-0.066-1.116-0.066
		c-10.012,0-18.135,8.142-18.135,18.168c0,10.045,8.123,18.174,18.135,18.174c0.386,0,0.75-0.033,1.116-0.053
		C61.344,441.476,53.803,433.601,53.803,423.923z"/>
	<circle style="fill:#FFB733;" cx="203.991" cy="468.364" r="24.774"/>
</g>
<path style="fill:#FFD55C;" d="M177.023,468.374c0,13.692,11.082,24.781,24.748,24.781c13.715,0,24.82-11.089,24.82-24.781
	c0-13.685-11.102-24.768-24.82-24.768C188.105,443.607,177.023,454.689,177.023,468.374z"/>
<path style="fill:#FFC640;" d="M183.636,468.374c0,10.045,8.129,18.174,18.135,18.174c10.052,0,18.194-8.129,18.194-18.174
	c0-10.025-8.142-18.168-18.194-18.168C191.765,450.207,183.636,458.349,183.636,468.374z"/>
<path style="fill:#FFB733;" d="M185.823,468.374c0-9.659,7.541-17.537,17.064-18.102c-0.367-0.02-0.73-0.066-1.117-0.066
	c-10.005,0-18.135,8.142-18.135,18.168c0,10.045,8.129,18.174,18.135,18.174c0.386,0,0.75-0.033,1.117-0.053
	C193.364,485.928,185.823,478.053,185.823,468.374z"/>
<rect x="401.441" y="45.096" style="fill:#242D3C;" width="18.567" height="178.771"/>
<rect x="401.441" y="133.318" style="fill:#FFFFFF;" width="18.567" height="2.309"/>
<rect x="401.441" y="230.037" style="fill:#242D3C;" width="18.567" height="9.91"/>
<polygon style="fill:#131A26;" points="413.151,23.859 408.299,23.859 401.441,45.096 420.008,45.096 "/>
<rect x="409.798" y="18.852" style="fill:#242D3C;" width="1.86" height="5.008"/>
<rect x="403.225" y="223.86" style="fill:#FFFFFF;" width="15.02" height="6.161"/>
<path style="fill:#131A26;" d="M423.86,150.495v63.396c0,0.426-0.162,0.826-0.466,1.126c-0.304,0.301-0.697,0.472-1.123,0.472
	h-20.833v3.184h20.833c1.272,0,2.471-0.492,3.373-1.401c0.902-0.902,1.401-2.107,1.401-3.379v-63.399H423.86z"/>
<g>
</g>
<g>
</g>
<g>
</g>
<g>
</g>
<g>
</g>
<g>
</g>
<g>
</g>
<g>
</g>
<g>
</g>
<g>
</g>
<g>
</g>
<g>
</g>
<g>
</g>
<g>
</g>
<g>
</g>
</svg>
