<?xml version="1.0" encoding="iso-8859-1"?>
<!-- Generator: Adobe Illustrator 19.0.0, SVG Export Plug-In . SVG Version: 6.00 Build 0)  -->
<svg version="1.1" id="Layer_1" xmlns="http://www.w3.org/2000/svg" xmlns:xlink="http://www.w3.org/1999/xlink" x="0px" y="0px"
	 viewBox="0 0 512 512" style="enable-background:new 0 0 512 512;" xml:space="preserve">
<circle style="fill:#FF6D3B;" cx="256" cy="256" r="256"/>
<polygon style="fill:#FFB733;" points="203.01,130.824 203.01,108.425 101.171,108.425 101.171,130.824 84.546,130.824 
	84.546,372.406 427.451,372.406 427.451,130.824 "/>
<rect x="105.251" y="147.552" style="fill:#FFFFFF;" width="301.485" height="208.136"/>
<rect x="70.765" y="164.26" style="fill:#FFD55C;" width="370.457" height="208.136"/>
<path style="fill:#FFFFFF;" d="M328.318,268.347c0,39.926-32.368,72.304-72.327,72.304c-39.919,0-72.331-32.378-72.331-72.304
	c0-39.962,32.415-72.331,72.331-72.331C295.949,196.017,328.318,228.388,328.318,268.347z"/>
<g>
	<polygon style="fill:#3E4959;" points="259.875,217.187 252.115,217.187 249.849,228.461 262.141,228.461 	"/>
	<polygon style="fill:#3E4959;" points="233.769,222.082 227.044,225.97 230.737,236.884 241.387,230.737 	"/>
	<polygon style="fill:#3E4959;" points="213.626,239.395 209.755,246.117 218.399,253.724 224.537,243.084 	"/>
	<polygon style="fill:#3E4959;" points="204.826,264.453 204.833,272.212 216.13,274.482 216.13,262.187 	"/>
	<polygon style="fill:#3E4959;" points="209.755,290.545 213.626,297.277 224.537,293.584 218.399,282.935 	"/>
	<polygon style="fill:#3E4959;" points="227.044,310.701 233.769,314.573 241.387,305.928 230.744,299.794 	"/>
	<polygon style="fill:#3E4959;" points="252.115,319.491 259.875,319.491 262.141,308.201 249.853,308.201 	"/>
	<polygon style="fill:#3E4959;" points="278.214,314.573 284.93,310.701 281.253,299.794 270.6,305.928 	"/>
	<polygon style="fill:#3E4959;" points="298.354,297.277 302.235,290.545 293.591,282.935 287.44,293.584 	"/>
	<polygon style="fill:#3E4959;" points="307.147,272.212 307.141,264.453 295.863,262.187 295.863,274.482 	"/>
	<polygon style="fill:#3E4959;" points="302.235,246.117 298.354,239.395 287.44,243.084 293.591,253.724 	"/>
	<polygon style="fill:#3E4959;" points="284.93,225.97 278.208,222.089 270.6,230.737 281.253,236.868 	"/>
</g>
<path style="fill:#242D3C;" d="M255.987,228.005c-22.27,0-40.329,18.049-40.329,40.336c0,22.277,18.059,40.322,40.329,40.322
	c22.29,0,40.342-18.046,40.342-40.322C296.329,246.054,278.277,228.005,255.987,228.005z M255.987,279.506
	c-6.151,0-11.168-5.011-11.168-11.165c0-6.167,5.018-11.185,11.168-11.185c6.167,0,11.181,5.018,11.181,11.185
	C267.168,274.498,262.154,279.506,255.987,279.506z"/>
<path style="fill:#D9D8D7;" d="M255.987,248.964c-10.696,0-19.354,8.674-19.354,19.377c0,10.689,8.658,19.354,19.354,19.354
	s19.367-8.664,19.367-19.354C275.354,257.638,266.683,248.964,255.987,248.964z M255.987,278.023c-5.335,0-9.678-4.337-9.678-9.682
	c0-5.351,4.34-9.682,9.678-9.682c5.345,0,9.692,4.331,9.692,9.682C265.678,273.685,261.331,278.023,255.987,278.023z"/>
<path style="fill:#242D3C;" d="M70.775,449.82l370.453-0.007l0.007-53.892l-370.47,0.01L70.775,449.82z M101.191,422.889
	c-0.003,4.251-3.449,7.697-7.72,7.697c-4.274,0.017-7.703-3.452-7.703-7.683c0-4.281,3.429-7.716,7.703-7.723
	C97.742,415.192,101.184,418.621,101.191,422.889z"/>
<g>
	<rect x="115.567" y="395.925" style="fill:#FFFFFF;" width="3.059" height="9.86"/>
	<rect x="146.432" y="395.925" style="fill:#FFFFFF;" width="3.089" height="9.847"/>
	<polygon style="fill:#FFFFFF;" points="180.386,405.775 177.297,405.785 177.314,395.921 180.369,395.931 	"/>
	<polygon style="fill:#FFFFFF;" points="211.261,405.775 208.163,405.785 208.173,395.928 211.255,395.921 	"/>
	<rect x="239.054" y="395.958" style="fill:#FFFFFF;" width="3.065" height="9.84"/>
	<rect x="269.94" y="395.925" style="fill:#FFFFFF;" width="3.049" height="9.844"/>
	<polygon style="fill:#FFFFFF;" points="303.864,405.768 300.749,405.781 300.762,395.928 303.86,395.925 	"/>
	<rect x="331.644" y="395.925" style="fill:#FFFFFF;" width="3.059" height="9.847"/>
	<polygon style="fill:#FFFFFF;" points="365.588,405.775 362.529,405.775 362.509,395.935 365.594,395.921 	"/>
	<polygon style="fill:#FFFFFF;" points="396.456,405.781 393.375,405.768 393.368,395.935 396.453,395.928 	"/>
	<rect x="424.266" y="395.925" style="fill:#FFFFFF;" width="3.062" height="9.854"/>
	<rect x="408.84" y="395.925" style="fill:#FFFFFF;" width="3.059" height="9.85"/>
	<polygon style="fill:#FFFFFF;" points="381.027,405.775 377.975,405.775 377.968,395.928 381.04,395.931 	"/>
	<rect x="347.07" y="395.925" style="fill:#FFFFFF;" width="3.102" height="9.84"/>
	<rect x="316.218" y="395.925" style="fill:#FFFFFF;" width="3.079" height="9.857"/>
	<rect x="285.333" y="395.925" style="fill:#FFFFFF;" width="3.082" height="9.844"/>
	<rect x="254.481" y="395.925" style="fill:#FFFFFF;" width="3.085" height="9.844"/>
	<polygon style="fill:#FFFFFF;" points="226.684,405.781 223.622,405.768 223.615,395.921 226.684,395.928 	"/>
	<rect x="192.743" y="395.925" style="fill:#FFFFFF;" width="3.069" height="9.86"/>
	<polygon style="fill:#FFFFFF;" points="164.937,405.775 161.858,405.791 161.865,395.931 164.93,395.928 	"/>
	<rect x="130.989" y="395.925" style="fill:#FFFFFF;" width="3.098" height="9.857"/>
	<polygon style="fill:#FFFFFF;" points="477.841,176.567 470.366,176.567 464.536,195.703 483.672,195.703 	"/>
</g>
<polygon style="fill:#CCCBCA;" points="477.841,176.567 475.496,176.567 477.66,195.703 483.672,195.703 "/>
<rect x="464.533" y="195.716" style="fill:#FFD55C;" width="19.136" height="227.42"/>
<rect x="477.646" y="195.716" style="fill:#FFB733;" width="6.012" height="227.42"/>
<polygon style="fill:#242D3C;" points="477.841,176.567 474.102,164.26 470.34,176.567 "/>
<polygon style="fill:#131A26;" points="477.841,176.567 474.102,164.26 475.493,176.567 "/>
<rect x="464.533" y="423.11" style="fill:#F2F2F2;" width="19.136" height="11.102"/>
<rect x="477.646" y="423.11" style="fill:#CCCBCA;" width="6.012" height="11.102"/>
<path style="fill:#242D3C;" d="M483.672,440.237c0,2.451-0.931,4.905-2.794,6.775c-1.87,1.87-4.324,2.801-6.775,2.801l0,0
	c-2.444,0-4.902-0.928-6.765-2.801c-1.873-1.866-2.804-4.324-2.804-6.775v-6.012h19.136v6.012H483.672z"/>
<path style="fill:#131A26;" d="M477.66,434.226c0,2.444-0.938,4.899-2.808,6.768c-1.87,1.87-4.324,2.801-6.762,2.801
	c-1.034,0-2.038-0.208-3.032-0.522c0.453,1.358,1.192,2.656,2.279,3.743c1.86,1.87,4.321,2.801,6.765,2.801
	c2.451,0,4.902-0.928,6.775-2.801c1.86-1.866,2.794-4.324,2.794-6.775v-6.012h-6.012V434.226z"/>
<g>
</g>
<g>
</g>
<g>
</g>
<g>
</g>
<g>
</g>
<g>
</g>
<g>
</g>
<g>
</g>
<g>
</g>
<g>
</g>
<g>
</g>
<g>
</g>
<g>
</g>
<g>
</g>
<g>
</g>
</svg>
