<?xml version="1.0" encoding="iso-8859-1"?>
<!-- Generator: Adobe Illustrator 19.0.0, SVG Export Plug-In . SVG Version: 6.00 Build 0)  -->
<svg version="1.1" id="Layer_1" xmlns="http://www.w3.org/2000/svg" xmlns:xlink="http://www.w3.org/1999/xlink" x="0px" y="0px"
	 viewBox="0 0 512 512" style="enable-background:new 0 0 512 512;" xml:space="preserve">
<circle style="fill:#FFD55C;" cx="256" cy="256" r="256"/>
<polygon style="fill:#3E4959;" points="240.29,444.502 130.877,255.045 21.471,444.502 "/>
<g>
	<polygon style="fill:#242D3C;" points="490.529,444.502 403.895,294.496 317.268,444.502 	"/>
	<polygon style="fill:#242D3C;" points="403.895,444.502 240.29,161.174 76.671,444.502 	"/>
</g>
<polygon style="fill:#3E4959;" points="317.278,444.515 403.889,444.515 360.567,369.496 "/>
<polygon style="fill:#131A26;" points="76.671,444.515 240.316,444.515 158.528,302.866 "/>
<g>
	<rect x="237.931" y="72.162" style="fill:#FFFFFF;" width="4.671" height="91.955"/>
	<rect x="236.379" y="67.485" style="fill:#FFFFFF;" width="7.792" height="4.677"/>
	<rect x="233.961" y="164.117" style="fill:#FFFFFF;" width="12.645" height="7.997"/>
</g>
<polygon style="fill:#F15424;" points="333.883,131.756 282.578,131.756 282.578,85.947 333.883,85.947 317.817,108.848 "/>
<polygon style="fill:#E64717;" points="295.523,85.947 282.578,85.947 282.578,131.756 303.646,131.756 "/>
<rect x="242.622" y="76.833" style="fill:#FF6D3B;" width="51.319" height="45.812"/>
<polygon style="fill:#F15424;" points="293.938,122.645 282.578,122.645 282.578,131.762 "/>
<g>
</g>
<g>
</g>
<g>
</g>
<g>
</g>
<g>
</g>
<g>
</g>
<g>
</g>
<g>
</g>
<g>
</g>
<g>
</g>
<g>
</g>
<g>
</g>
<g>
</g>
<g>
</g>
<g>
</g>
</svg>
