<?xml version="1.0" encoding="iso-8859-1"?>
<!-- Generator: Adobe Illustrator 19.0.0, SVG Export Plug-In . SVG Version: 6.00 Build 0)  -->
<svg version="1.1" id="Layer_1" xmlns="http://www.w3.org/2000/svg" xmlns:xlink="http://www.w3.org/1999/xlink" x="0px" y="0px"
	 viewBox="0 0 512 512" style="enable-background:new 0 0 512 512;" xml:space="preserve">
<circle style="fill:#F2F2F2;" cx="256" cy="256" r="256"/>
<path style="fill:#FFD55C;" d="M255.993,412.091c56.386-0.01,102.103-45.703,102.103-102.113c0-29.881-12.846-56.726-33.29-75.409
	c-0.968-0.839-1.956-1.665-2.93-2.537c-15.961-14.534-25.986-35.477-25.986-58.774v-7.336h-39.896h-39.89v7.336
	c0,23.298-10.029,44.24-25.986,58.774c-0.974,0.872-1.959,1.698-2.93,2.537c-20.444,18.683-33.29,45.528-33.29,75.409
	C153.897,366.387,199.614,412.081,255.993,412.091z"/>
<polygon style="fill:#FFFFFF;" points="248.994,271.334 262.993,318.021 268.143,300.888 293.607,300.888 293.607,305.902 
	271.879,305.902 262.993,335.482 248.994,288.775 243.844,305.902 218.389,305.902 218.389,300.888 240.108,300.888 "/>
<g>
	<polygon style="fill:#242D3C;" points="268.123,159.239 295.794,304.891 292.111,305.605 264.42,159.955 	"/>
	<polygon style="fill:#242D3C;" points="243.871,159.239 247.573,159.955 219.883,305.605 216.199,304.891 	"/>
	<circle style="fill:#242D3C;" cx="218.376" cy="303.401" r="7.521"/>
	<circle style="fill:#242D3C;" cx="293.591" cy="303.401" r="7.515"/>
	<path style="fill:#242D3C;" d="M300.574,112.987c0-8.559-3.25-17.117-9.787-23.641c-6.53-6.521-15.089-9.797-23.651-9.797h-22.277
		c-8.562,0-17.121,3.277-23.648,9.797c-6.537,6.527-9.791,15.083-9.791,23.641v39.008h89.154V112.987z"/>
</g>
<g>
	<rect x="204.453" y="151.981" style="fill:#131A26;" width="103.094" height="13.93"/>
	<rect x="246.255" y="68.407" style="fill:#131A26;" width="19.512" height="11.142"/>
</g>
<g>
	<rect x="252.499" style="fill:#242D3C;" width="6.963" height="68.407"/>
	<polygon style="fill:#242D3C;" points="173.485,199.832 176.732,197.447 185.602,209.659 182.335,212.037 	"/>
	
		<rect x="157.304" y="215.395" transform="matrix(0.6665 -0.7455 0.7455 0.6665 -113.0708 193.1304)" style="fill:#242D3C;" width="4.046" height="15.099"/>
	<polygon style="fill:#242D3C;" points="135.786,242.913 137.811,239.411 150.885,246.966 148.863,250.484 	"/>
	<polygon style="fill:#242D3C;" points="124.492,269.378 125.731,265.53 140.073,270.191 138.831,274.046 	"/>
	<polygon style="fill:#242D3C;" points="118.916,297.614 119.329,293.574 134.322,295.166 133.909,299.186 	"/>
	<polygon style="fill:#242D3C;" points="118.916,322.355 133.909,320.78 134.322,324.8 119.329,326.395 	"/>
	
		<rect x="124.738" y="348.171" transform="matrix(0.9511 -0.3089 0.3089 0.9511 -101.7033 57.9864)" style="fill:#242D3C;" width="15.079" height="4.033"/>
	
		<rect x="135.766" y="373.015" transform="matrix(0.8663 -0.4996 0.4996 0.8663 -168.1962 121.7519)" style="fill:#242D3C;" width="15.096" height="4.047"/>
	
		<rect x="151.81" y="395.016" transform="matrix(0.7433 -0.6689 0.6689 0.7433 -224.6847 208.503)" style="fill:#242D3C;" width="15.089" height="4.036"/>
	
		<rect x="172.026" y="413.218" transform="matrix(0.5876 -0.8091 0.8091 0.5876 -261.9306 316.5209)" style="fill:#242D3C;" width="15.072" height="4.026"/>
	
		<rect x="195.557" y="426.8" transform="matrix(0.4069 -0.9135 0.9135 0.4069 -271.27 439.8738)" style="fill:#242D3C;" width="15.086" height="4.07"/>
	<polygon style="fill:#242D3C;" points="225.386,444.201 228.544,429.433 232.484,430.278 229.359,445.021 	"/>
	<rect x="253.978" y="432.524" style="fill:#242D3C;" width="4.037" height="15.073"/>
	<polygon style="fill:#242D3C;" points="279.469,430.278 283.447,429.433 286.608,444.201 282.634,445.021 	"/>
	<polygon style="fill:#242D3C;" points="304.012,422.757 307.682,421.102 313.826,434.883 310.123,436.541 	"/>
	<polygon style="fill:#242D3C;" points="326.388,410.304 329.652,407.938 338.548,420.134 335.251,422.516 	"/>
	
		<rect x="350.638" y="389.482" transform="matrix(0.6703 -0.7421 0.7421 0.6703 -178.3555 392.6074)" style="fill:#242D3C;" width="4.043" height="15.083"/>
	
		<rect x="366.65" y="367.489" transform="matrix(0.4997 -0.8662 0.8662 0.4997 -140.4091 506.972)" style="fill:#242D3C;" width="4.04" height="15.092"/>
	
		<rect x="377.696" y="342.621" transform="matrix(0.3076 -0.9515 0.9515 0.3076 -70.2722 603.7474)" style="fill:#242D3C;" width="4.027" height="15.076"/>
	<polygon style="fill:#242D3C;" points="377.664,324.806 378.077,320.793 393.077,322.355 392.664,326.395 	"/>
	<polygon style="fill:#242D3C;" points="377.664,295.17 392.658,293.574 393.084,297.614 378.077,299.186 	"/>
	
		<rect x="372.126" y="267.769" transform="matrix(0.951 -0.3093 0.3093 0.951 -64.8275 130.6557)" style="fill:#242D3C;" width="15.083" height="4.043"/>
	
		<rect x="361.065" y="242.926" transform="matrix(0.8659 -0.5003 0.5003 0.8659 -73.1012 217.2668)" style="fill:#242D3C;" width="15.096" height="4.057"/>
	<polygon style="fill:#242D3C;" points="345.716,226.489 356.923,216.384 359.619,219.4 348.408,229.492 	"/>
	<polygon style="fill:#242D3C;" points="326.402,209.659 335.251,197.45 338.548,199.839 329.659,212.037 	"/>
</g>
<g>
</g>
<g>
</g>
<g>
</g>
<g>
</g>
<g>
</g>
<g>
</g>
<g>
</g>
<g>
</g>
<g>
</g>
<g>
</g>
<g>
</g>
<g>
</g>
<g>
</g>
<g>
</g>
<g>
</g>
</svg>
