<?xml version="1.0" encoding="iso-8859-1"?>
<!-- Generator: Adobe Illustrator 19.0.0, SVG Export Plug-In . SVG Version: 6.00 Build 0)  -->
<svg version="1.1" id="Layer_1" xmlns="http://www.w3.org/2000/svg" xmlns:xlink="http://www.w3.org/1999/xlink" x="0px" y="0px"
	 viewBox="0 0 512 512" style="enable-background:new 0 0 512 512;" xml:space="preserve">
<circle style="fill:#F2F2F2;" cx="256" cy="256" r="256"/>
<path style="fill:#FFFFFF;" d="M69.979,368.042c-8.215,0-16.443,3.131-22.713,9.384c-6.279,6.279-9.421,14.495-9.421,22.729
	c0,8.228,3.138,16.437,9.421,22.716c6.27,6.289,14.498,9.391,22.713,9.391h215.39v-64.218H69.979V368.042z"/>
<polygon style="fill:#D9D8D7;" points="285.369,400.173 285.369,372.835 69.979,372.835 "/>
<path style="fill:#242D3C;" d="M69.979,74.904c-20.397,0-36.947,16.556-36.947,36.927v288.315h9.645
	c0-7.3,2.837-14.131,7.994-19.301c5.153-5.17,12.017-8.014,19.307-8.014h225.022V74.904H69.979z"/>
<g>
	<rect x="120.138" y="224.566" style="fill:#FFFFFF;" width="124.717" height="9.566"/>
	<rect x="132.195" y="245.165" style="fill:#FFFFFF;" width="100.61" height="9.566"/>
	<rect x="120.138" y="203.977" style="fill:#FFFFFF;" width="124.717" height="9.56"/>
</g>
<rect x="149.57" y="183.395" style="fill:#FFD55C;" width="65.856" height="9.566"/>
<path style="fill:#3E4959;" d="M33.032,111.831v288.315h9.645c0-7.3,2.837-14.131,7.994-19.301
	c5.153-5.17,12.017-8.014,19.307-8.014V74.904C49.581,74.904,33.032,91.46,33.032,111.831z"/>
<path style="fill:#131A26;" d="M69.979,427.457c-7.294,0-14.154-2.834-19.307-8.007c-5.156-5.13-7.994-12.011-7.994-19.304
	c0-7.3,2.837-14.125,7.994-19.301c5.156-5.17,12.017-8.014,19.307-8.014h225.022v-9.642H69.979c-9.873,0-19.136,3.852-26.125,10.844
	c-6.97,6.95-10.818,16.255-10.818,26.115c0,9.85,3.845,19.152,10.818,26.102c6.986,6.993,16.249,10.838,26.125,10.838h225.022
	v-9.639H69.979V427.457z"/>
<path style="fill:#3E4959;" d="M277.322,345.527H87.651V92.58h189.671V345.527z M93.884,339.284h177.225V98.826H93.884V339.284z"/>
<rect x="348.292" y="167.206" style="fill:#242D3C;" width="105.64" height="64.443"/>
<path style="fill:#3E4959;" d="M434.685,239.16c0,1.298-0.472,2.586-1.457,3.548c-0.984,0.984-2.246,1.49-3.548,1.49h-58.001
	c-1.298,0-2.56-0.505-3.561-1.49c-0.978-0.961-1.453-2.253-1.453-3.548v-79.462c0-1.295,0.479-2.593,1.453-3.548
	c1.001-0.991,2.266-1.467,3.561-1.467h58.001c1.305,0,2.563,0.479,3.548,1.467c0.988,0.955,1.457,2.256,1.457,3.548V239.16z"/>
<rect x="375.511" y="154.68" style="fill:#FFD55C;" width="49.42" height="89.517"/>
<rect x="375.511" y="199.449" style="fill:#FFB733;" width="49.42" height="37.069"/>
<g>
	<path style="fill:#3E4959;" d="M344.592,158.35c-2.411-2.458-5.652-3.667-8.829-3.667c-3.234,0-6.441,1.209-8.882,3.667
		c-2.428,2.441-3.66,5.652-3.66,8.859v64.443c0,3.207,1.232,6.412,3.66,8.859c2.441,2.454,5.648,3.693,8.882,3.693
		c3.178,0,6.415-1.239,8.829-3.693c2.451-2.444,3.693-5.652,3.693-8.859v-64.446C348.286,163.999,347.047,160.791,344.592,158.35z"
		/>
	<path style="fill:#3E4959;" d="M475.311,158.35c-2.451-2.458-5.652-3.667-8.866-3.667c-3.198,0-6.405,1.209-8.859,3.667
		c-2.451,2.441-3.657,5.652-3.657,8.859v64.443c0,3.207,1.206,6.412,3.657,8.859c2.451,2.454,5.662,3.693,8.859,3.693
		c3.214,0,6.412-1.239,8.866-3.693c2.448-2.444,3.657-5.652,3.657-8.859v-64.446C478.968,163.999,477.759,160.791,475.311,158.35z"
		/>
	<path style="fill:#3E4959;" d="M384.344,300.154v120.604c0,4.192,1.576,8.351,4.77,11.538c3.188,3.221,7.373,4.8,11.561,4.8
		c4.192,0,8.377-1.582,11.565-4.8c3.194-3.188,4.773-7.35,4.773-11.538V300.154H384.344z"/>
</g>
<rect x="390.441" y="244.201" style="fill:#242D3C;" width="20.437" height="55.953"/>
<g>
</g>
<g>
</g>
<g>
</g>
<g>
</g>
<g>
</g>
<g>
</g>
<g>
</g>
<g>
</g>
<g>
</g>
<g>
</g>
<g>
</g>
<g>
</g>
<g>
</g>
<g>
</g>
<g>
</g>
</svg>
