<?xml version="1.0" encoding="iso-8859-1"?>
<!-- Generator: Adobe Illustrator 19.0.0, SVG Export Plug-In . SVG Version: 6.00 Build 0)  -->
<svg version="1.1" id="Layer_1" xmlns="http://www.w3.org/2000/svg" xmlns:xlink="http://www.w3.org/1999/xlink" x="0px" y="0px"
	 viewBox="0 0 512 512" style="enable-background:new 0 0 512 512;" xml:space="preserve">
<circle style="fill:#3E4959;" cx="256" cy="256" r="256"/>
<rect x="119.709" y="71.161" style="fill:#FFFFFF;" width="272.549" height="385.453"/>
<g>
	<rect x="191.009" y="299.536" style="fill:#E6E5E5;" width="6.187" height="12.367"/>
	<rect x="160.074" y="318.134" style="fill:#E6E5E5;" width="6.17" height="12.367"/>
	<rect x="221.944" y="318.134" style="fill:#E6E5E5;" width="6.184" height="12.367"/>
	<rect x="160.074" y="311.924" style="fill:#E6E5E5;" width="68.063" height="6.203"/>
	<rect x="252.895" y="237.644" style="fill:#E6E5E5;" width="6.2" height="12.374"/>
	<rect x="191.009" y="256.231" style="fill:#E6E5E5;" width="6.187" height="12.377"/>
	<rect x="314.797" y="256.231" style="fill:#E6E5E5;" width="6.197" height="12.377"/>
	<rect x="191.009" y="250.021" style="fill:#E6E5E5;" width="129.982" height="6.2"/>
	<rect x="314.797" y="299.536" style="fill:#E6E5E5;" width="6.197" height="12.367"/>
	<rect x="283.846" y="318.134" style="fill:#E6E5E5;" width="6.203" height="12.367"/>
	<rect x="345.749" y="318.134" style="fill:#E6E5E5;" width="6.184" height="12.367"/>
	<rect x="283.846" y="311.924" style="fill:#E6E5E5;" width="68.096" height="6.203"/>
</g>
<rect x="147.687" y="330.488" style="fill:#CCCBCA;" width="30.948" height="30.951"/>
<rect x="155.417" y="342.875" style="fill:#FFFFFF;" width="15.482" height="6.2"/>
<rect x="209.59" y="330.488" style="fill:#CCCBCA;" width="30.945" height="30.951"/>
<rect x="217.329" y="342.875" style="fill:#FFFFFF;" width="15.469" height="6.2"/>
<rect x="271.492" y="330.488" style="fill:#CCCBCA;" width="30.958" height="30.951"/>
<rect x="279.222" y="342.875" style="fill:#FFFFFF;" width="15.476" height="6.2"/>
<rect x="333.395" y="330.488" style="fill:#CCCBCA;" width="30.951" height="30.951"/>
<rect x="341.124" y="342.875" style="fill:#FFFFFF;" width="15.482" height="6.2"/>
<rect x="163.179" y="268.585" style="fill:#242D3C;" width="61.899" height="30.951"/>
<rect x="175.566" y="280.972" style="fill:#FFFFFF;" width="37.118" height="6.203"/>
<rect x="286.984" y="268.585" style="fill:#242D3C;" width="61.886" height="30.951"/>
<rect x="299.305" y="280.972" style="fill:#FFFFFF;" width="37.151" height="6.203"/>
<rect x="225.082" y="194.319" style="fill:#F15424;" width="61.906" height="43.338"/>
<g>
	<rect x="237.436" y="219.07" style="fill:#FFFFFF;" width="37.132" height="6.19"/>
	<rect x="237.436" y="206.683" style="fill:#FFFFFF;" width="37.132" height="6.197"/>
</g>
<g>
	<rect x="147.687" y="384.76" style="fill:#CCCBCA;" width="216.659" height="6.213"/>
	<rect x="147.687" y="400.318" style="fill:#CCCBCA;" width="216.659" height="6.22"/>
	<rect x="147.687" y="415.843" style="fill:#CCCBCA;" width="108.326" height="6.22"/>
</g>
<rect x="147.687" y="133.691" style="fill:#242D3C;" width="216.659" height="6.213"/>
<rect x="147.687" y="105.736" style="fill:#F15424;" width="216.659" height="18.637"/>
<g>
	<rect x="147.687" y="149.24" style="fill:#CCCBCA;" width="216.659" height="6.213"/>
	<rect x="147.687" y="164.768" style="fill:#CCCBCA;" width="108.326" height="6.23"/>
	<circle style="fill:#CCCBCA;" cx="392.291" cy="432.59" r="71.161"/>
</g>
<path style="fill:#FFFFFF;" d="M465.709,452.638c-0.515,1.896-1.747,3.6-3.594,4.644c-1.85,1.047-3.941,1.259-5.84,0.743
	l-22.264-6.071l4.05-14.841l22.257,6.075c1.903,0.519,3.614,1.761,4.664,3.614C466.032,448.631,466.227,450.732,465.709,452.638z"/>
<path style="fill:#D9D8D7;" d="M438.061,437.113l-4.05,14.841l8.298,2.259c2.015-4.644,3.399-9.639,4.033-14.838L438.061,437.113z"
	/>
<path style="fill:#FFFFFF;" d="M440.363,432.59c0,26.558-21.54,48.075-48.092,48.075c-26.538,0-48.072-21.517-48.072-48.075
	c0-26.555,21.534-48.082,48.072-48.082C418.826,384.509,440.363,406.036,440.363,432.59z"/>
<path style="fill:#FF6D3B;" d="M432.666,432.59c0,22.3-18.072,40.392-40.395,40.392c-22.307,0-40.382-18.092-40.382-40.392
	s18.075-40.385,40.382-40.385C414.598,392.205,432.666,410.29,432.666,432.59z"/>
<path style="fill:#F15424;" d="M363.434,444.135c0-22.317,18.075-40.389,40.375-40.389c8.205,0,15.839,2.444,22.201,6.643
	c-7.224-10.947-19.621-18.184-33.736-18.184c-22.307,0-40.382,18.085-40.382,40.385c0,14.101,7.234,26.518,18.204,33.733
	C365.885,459.954,363.434,452.324,363.434,444.135z"/>
<polygon style="fill:#FFFFFF;" points="95.526,288.497 89.633,288.497 85.048,303.583 100.127,303.583 "/>
<polygon style="fill:#CCCBCA;" points="95.526,288.497 93.67,288.497 95.384,303.583 100.127,303.583 "/>
<rect x="85.048" y="303.599" style="fill:#FF6D3B;" width="15.076" height="179.134"/>
<rect x="95.384" y="303.599" style="fill:#F15424;" width="4.743" height="179.134"/>
<polygon style="fill:#242D3C;" points="95.526,288.497 92.58,278.809 89.617,288.497 "/>
<polygon style="fill:#131A26;" points="95.526,288.497 92.58,278.809 93.666,288.497 "/>
<rect x="85.048" y="482.7" style="fill:#F2F2F2;" width="15.076" height="8.744"/>
<rect x="95.384" y="482.7" style="fill:#CCCBCA;" width="4.743" height="8.744"/>
<path style="fill:#242D3C;" d="M100.127,496.204c0,1.929-0.756,3.861-2.22,5.331c-1.47,1.47-3.399,2.207-5.325,2.207l0,0
	c-1.932,0-3.868-0.737-5.335-2.207c-1.473-1.47-2.197-3.402-2.197-5.331v-4.75h15.076V496.204z"/>
<path style="fill:#131A26;" d="M95.384,491.454c0,1.932-0.756,3.868-2.226,5.338c-1.467,1.467-3.402,2.207-5.328,2.207
	c-0.789,0-1.592-0.162-2.388-0.406c0.367,1.064,0.945,2.078,1.804,2.943c1.467,1.47,3.402,2.207,5.335,2.207
	c1.926,0,3.855-0.737,5.325-2.207c1.463-1.47,2.22-3.402,2.22-5.331v-4.75H95.384z"/>
<path style="fill:#FFD55C;" d="M182.622,71.161c0,34.75-28.15,62.903-62.903,62.903c-34.747,0-62.887-28.153-62.887-62.903
	c0-34.74,28.143-62.903,62.887-62.903C154.472,8.258,182.622,36.421,182.622,71.161z"/>
<path style="fill:#FFC640;" d="M119.725,120.72c-13.959,0-27.337-5.985-36.765-16.394c-0.984-1.1-0.902-2.778,0.218-3.769
	c1.08-0.994,2.752-0.902,3.743,0.185c8.41,9.318,20.368,14.653,32.804,14.653c24.411,0,44.243-19.839,44.243-44.233
	c0-1.463,1.176-2.679,2.649-2.679s2.686,1.212,2.686,2.679C169.3,98.482,147.063,120.72,119.725,120.72z"/>
<path style="fill:#FFF584;" d="M72.836,73.827c-1.467,0-2.659-1.186-2.659-2.666c0-27.318,22.227-49.558,49.542-49.558
	c1.47,0,2.686,1.186,2.686,2.666c0,1.467-1.212,2.672-2.686,2.672c-24.368,0-44.207,19.836-44.207,44.224
	C75.512,72.638,74.303,73.827,72.836,73.827z"/>
<rect x="91.433" y="127.141" style="fill:#FFC640;" width="56.584" height="20.748"/>
<rect x="102.033" y="187.134" style="fill:#CCCBCA;" width="35.411" height="15.687"/>
<rect x="88.285" y="147.889" style="fill:#242D3C;" width="62.86" height="39.246"/>
<g>
	<rect x="85.048" y="152.246" style="fill:#131A26;" width="69.368" height="4.36"/>
	<rect x="85.048" y="160.969" style="fill:#131A26;" width="69.368" height="4.364"/>
	<rect x="85.048" y="169.687" style="fill:#131A26;" width="69.368" height="4.364"/>
	<rect x="85.048" y="178.407" style="fill:#131A26;" width="69.368" height="4.364"/>
</g>
<g>
	<rect x="109.106" y="76.172" style="fill:#FFFFFF;" width="2.686" height="71.71"/>
	<rect x="127.693" y="76.172" style="fill:#FFFFFF;" width="2.656" height="71.71"/>
	<rect x="97.045" y="73.51" style="fill:#FFFFFF;" width="45.357" height="2.672"/>
</g>
<g>
</g>
<g>
</g>
<g>
</g>
<g>
</g>
<g>
</g>
<g>
</g>
<g>
</g>
<g>
</g>
<g>
</g>
<g>
</g>
<g>
</g>
<g>
</g>
<g>
</g>
<g>
</g>
<g>
</g>
</svg>
