<?xml version="1.0" encoding="iso-8859-1"?>
<!-- Generator: Adobe Illustrator 19.0.0, SVG Export Plug-In . SVG Version: 6.00 Build 0)  -->
<svg version="1.1" id="Layer_1" xmlns="http://www.w3.org/2000/svg" xmlns:xlink="http://www.w3.org/1999/xlink" x="0px" y="0px"
	 viewBox="0 0 512 512" style="enable-background:new 0 0 512 512;" xml:space="preserve">
<circle style="fill:#FFD55C;" cx="256" cy="256" r="256"/>
<path style="fill:#CCCBCA;" d="M465.154,13.213c-18.564,0-33.633,15.056-33.633,33.633h67.267
	C498.787,28.269,483.728,13.213,465.154,13.213z"/>
<path style="fill:#F2F2F2;" d="M248.634,13.213c-18.574,0-33.637,15.056-33.637,33.633v272.655h182.896
	c18.571,0,33.63-15.056,33.63-33.627V46.846c0-18.577,15.066-33.633,33.63-33.633H248.634z"/>
<path style="fill:#FFFFFF;" d="M330.633,192.499c-18.574,0-33.633,15.063-33.633,33.633v239.021
	c0,18.581-15.056,33.633-33.63,33.633H80.47V226.132c0-18.571,15.059-33.633,33.633-33.633H330.633z"/>
<g>
	<path style="fill:#CCCBCA;" d="M364.26,285.874v-59.742c0-18.571-15.063-33.633-33.637-33.633
		c-18.567,0-33.627,15.063-33.627,33.633v93.369H397.89C379.326,319.501,364.26,304.445,364.26,285.874z"/>
	<path style="fill:#CCCBCA;" d="M80.47,465.154v33.633H46.843C65.42,498.787,80.47,483.734,80.47,465.154z"/>
	<path style="fill:#CCCBCA;" d="M229.749,465.154H13.213c0,18.581,15.056,33.633,33.63,33.633h216.53
		C244.799,498.78,229.749,483.734,229.749,465.154z"/>
</g>
<rect x="104.696" y="226.139" style="fill:#242D3C;" width="168.078" height="7.472"/>
<g>
	<rect x="104.696" y="241.076" style="fill:#E6E5E5;" width="84.037" height="7.465"/>
	<rect x="104.696" y="412.441" style="fill:#E6E5E5;" width="168.078" height="7.475"/>
	<rect x="104.696" y="427.371" style="fill:#E6E5E5;" width="168.078" height="7.469"/>
	<rect x="104.696" y="442.302" style="fill:#E6E5E5;" width="84.037" height="7.475"/>
</g>
<path style="fill:#242D3C;" d="M200.334,370.13c-10.141,10.124-24.156,16.387-39.625,16.387c-30.921,0-56.013-25.095-56.013-56.016
	c0-23.35,14.283-43.375,34.595-51.775l21.418,51.775L200.334,370.13z"/>
<path style="fill:#FF6D3B;" d="M216.748,330.488h-56.033v-56.029C191.66,274.458,216.748,299.55,216.748,330.488z"/>
<path style="fill:#E6E5E5;" d="M216.748,330.488c0,15.472-6.266,29.475-16.407,39.626l-39.625-39.626H216.748z"/>
<path style="fill:#FFD55C;" d="M160.709,274.455v56.046l-21.418-51.775C145.884,275.968,153.131,274.455,160.709,274.455z"/>
<rect x="230.169" y="274.465" style="fill:#FF6D3B;" width="13.071" height="13.071"/>
<rect x="230.169" y="307.464" style="fill:#E6E5E5;" width="13.068" height="13.074"/>
<rect x="230.169" y="340.43" style="fill:#242D3C;" width="13.068" height="13.077"/>
<rect x="230.169" y="373.463" style="fill:#FFD55C;" width="13.071" height="13.071"/>
<g>
	<rect x="252.036" y="280.047" style="fill:#E6E5E5;" width="20.741" height="7.469"/>
	<rect x="252.036" y="313.047" style="fill:#E6E5E5;" width="20.741" height="7.472"/>
	<rect x="252.036" y="346.046" style="fill:#E6E5E5;" width="20.741" height="7.475"/>
	<rect x="252.036" y="379.045" style="fill:#E6E5E5;" width="20.741" height="7.469"/>
</g>
<rect x="239.22" y="119.18" style="fill:#242D3C;" width="24.018" height="20.133"/>
<g>
	<rect x="275.225" y="90.251" style="fill:#CCCBCA;" width="24.021" height="49.056"/>
	<rect x="311.263" y="106.463" style="fill:#CCCBCA;" width="24.005" height="32.841"/>
</g>
<rect x="347.268" y="46.846" style="fill:#FF6D3B;" width="24.008" height="92.461"/>
<g>
	<rect x="383.306" y="79.938" style="fill:#CCCBCA;" width="24.001" height="59.366"/>
	<rect x="239.22" y="154.693" style="fill:#CCCBCA;" width="168.085" height="7.475"/>
	<rect x="239.22" y="169.621" style="fill:#CCCBCA;" width="168.085" height="7.475"/>
	<rect x="239.22" y="46.846" style="fill:#CCCBCA;" width="60.053" height="22.409"/>
</g>
<rect x="246.685" y="54.315" style="fill:#FFFFFF;" width="45.099" height="7.469"/>
<polygon style="fill:#CCCBCA;" points="287.249,81.273 275.238,69.255 287.249,69.255 "/>
<g>
</g>
<g>
</g>
<g>
</g>
<g>
</g>
<g>
</g>
<g>
</g>
<g>
</g>
<g>
</g>
<g>
</g>
<g>
</g>
<g>
</g>
<g>
</g>
<g>
</g>
<g>
</g>
<g>
</g>
</svg>
