<?xml version="1.0" encoding="iso-8859-1"?>
<!-- Generator: Adobe Illustrator 19.0.0, SVG Export Plug-In . SVG Version: 6.00 Build 0)  -->
<svg version="1.1" id="Layer_1" xmlns="http://www.w3.org/2000/svg" xmlns:xlink="http://www.w3.org/1999/xlink" x="0px" y="0px"
	 viewBox="0 0 512 512" style="enable-background:new 0 0 512 512;" xml:space="preserve">
<circle style="fill:#FF6D3B;" cx="256" cy="256" r="256"/>
<g>
	<path style="fill:#D9D8D7;" d="M100.563,209.213h40.045v-8.01c0-10.253-3.911-20.493-11.73-28.325
		c-7.825-7.812-18.069-11.723-28.315-11.723l0,0L100.563,209.213L100.563,209.213z"/>
	<path style="fill:#D9D8D7;" d="M193.592,397.745h42.546v12.764c0,5.447-2.078,10.897-6.23,15.053
		c-4.155,4.155-9.596,6.233-15.049,6.233l0,0c-5.434,0-10.881-2.078-15.036-6.233c-4.155-4.155-6.233-9.602-6.233-15.053v-12.764
		H193.592z"/>
	<path style="fill:#D9D8D7;" d="M311.722,397.745h42.542v12.764c0,5.447-2.078,10.897-6.24,15.053
		c-4.149,4.155-9.586,6.233-15.033,6.233l0,0c-5.447,0-10.891-2.078-15.04-6.233c-4.162-4.155-6.233-9.602-6.233-15.053v-12.764
		H311.722z"/>
</g>
<path style="fill:#FFFFFF;" d="M85.887,287.509c0,30.743,11.73,61.493,35.193,84.962c23.46,23.453,54.203,35.186,84.949,35.186
	h100.514c30.756,0,61.496-11.736,84.962-35.186c23.469-23.466,35.199-54.219,35.199-84.962l0,0c0-30.753-11.73-61.509-35.199-84.966
	c-23.466-23.466-54.206-35.189-84.962-35.189H206.029c-30.746,0-61.49,11.723-84.949,35.189
	C97.617,226,85.887,256.756,85.887,287.509L85.887,287.509z"/>
<g>
	<path style="fill:#D9D8D7;" d="M306.543,398.353c-2.854,0-5.163-2.302-5.163-5.166c0-2.854,2.309-5.17,5.163-5.17
		c26.852,0,52.092-10.448,71.076-29.432c19-18.98,29.448-44.227,29.448-71.072c0-2.857,2.319-5.173,5.173-5.173
		c2.837,0,5.156,2.316,5.156,5.173c0,29.603-11.528,57.443-32.464,78.372C363.986,386.824,336.149,398.353,306.543,398.353z"/>
	<path style="fill:#D9D8D7;" d="M160.17,209.213h40.058v-8.01c0-10.253-3.914-20.493-11.74-28.325
		c-7.812-7.812-18.072-11.723-28.319-11.723l0,0V209.213z"/>
	<rect x="54.325" y="255.438" style="fill:#D9D8D7;" width="35.89" height="64.109"/>
	<path style="fill:#D9D8D7;" d="M300.128,170.562c0,2.045-0.77,4.096-2.335,5.658c-1.562,1.572-3.61,2.352-5.668,2.352h-71.667
		c-2.051,0-4.109-0.78-5.665-2.352c-1.566-1.562-2.355-3.614-2.355-5.658v-3.207h87.691V170.562L300.128,170.562z"/>
	<path style="fill:#D9D8D7;" d="M472.817,279.489c2.045,0,4.086,0.786,5.662,2.352c1.562,1.566,2.355,3.61,2.355,5.668
		c0,2.051-0.793,4.089-2.355,5.658c-1.576,1.562-3.617,2.349-5.662,2.349h-19.159v-16.027H472.817z"/>
</g>
<g>
	<rect x="426.479" y="279.486" style="fill:#FFFFFF;" width="27.166" height="16.027"/>
	<path style="fill:#FFFFFF;" d="M453.658,247.438c-13.282,0-24.034,10.762-24.034,24.038c0,13.276,10.755,24.038,24.034,24.038
		c13.279,0,24.038-10.762,24.038-24.038C477.696,258.2,466.934,247.438,453.658,247.438z M453.658,279.489
		c-4.426,0-8.017-3.591-8.017-8.014s3.591-8.014,8.017-8.014c4.426,0,8.01,3.591,8.01,8.014S458.085,279.489,453.658,279.489z"/>
</g>
<path style="fill:#D9D8D7;" d="M157.99,258.867c-2.857,0-5.17-2.306-5.17-5.163c0-6.828-5.569-12.394-12.407-12.394
	c-6.831,0-12.397,5.566-12.397,12.394c0,2.857-2.309,5.163-5.173,5.163c-2.851,0-5.163-2.306-5.163-5.163
	c0-12.529,10.2-22.729,22.736-22.729c12.546,0,22.743,10.2,22.743,22.729C163.156,256.562,160.834,258.867,157.99,258.867z"/>
<g>
	<path style="fill:#FFFFFF;" d="M158.228,397.745h42.542v12.764c0,5.447-2.071,10.897-6.227,15.053
		c-4.155,4.155-9.602,6.233-15.049,6.233l0,0c-5.447,0-10.887-2.078-15.04-6.233c-4.159-4.155-6.23-9.602-6.23-15.053v-12.764
		H158.228z"/>
	<path style="fill:#FFFFFF;" d="M276.348,397.745H318.9v12.764c0,5.447-2.084,10.897-6.223,15.053
		c-4.162,4.155-9.609,6.233-15.056,6.233l0,0c-5.447,0-10.884-2.078-15.043-6.233c-4.159-4.155-6.233-9.602-6.233-15.053v-12.764
		H276.348z"/>
</g>
<path style="fill:#FFB733;" d="M298.935,116.845c0,23.542-19.093,42.631-42.648,42.631c-23.569,0-42.651-19.089-42.651-42.631
	c0-23.549,19.083-42.671,42.651-42.671C279.843,74.174,298.935,93.296,298.935,116.845z"/>
<path style="fill:#FFD55C;" d="M290.393,116.845c0,18.852-15.258,34.103-34.106,34.103c-18.855,0-34.116-15.251-34.116-34.103
	c0-18.858,15.261-34.116,34.116-34.116C275.136,82.729,290.393,97.987,290.393,116.845z"/>
<g>
	<path style="fill:#FFB733;" d="M259.871,119.659H252.7c-2.986,0-5.8-1.169-7.895-3.3c-2.114-2.068-3.273-4.879-3.273-7.888
		c0-2.993,1.163-5.794,3.273-7.911c2.074-2.084,4.879-3.24,7.895-3.24h15.522v5.622H252.7c-1.5,0-2.89,0.578-3.898,1.599
		c-1.064,1.05-1.635,2.441-1.635,3.928c0,1.493,0.565,2.877,1.599,3.911c1.074,1.07,2.461,1.648,3.931,1.648h7.171v5.632H259.871z"
		/>
	<path style="fill:#FFB733;" d="M259.871,136.36h-15.525v-5.622h15.525c1.467,0,2.867-0.571,3.924-1.622
		c1.027-1.021,1.615-2.418,1.615-3.918s-0.581-2.877-1.609-3.898c-1.064-1.07-2.464-1.645-3.931-1.645H252.7v-5.629h7.171
		c2.98,0,5.791,1.163,7.898,3.28c2.091,2.058,3.27,4.882,3.27,7.891c0,2.999-1.166,5.814-3.28,7.911
		C265.635,135.214,262.821,136.36,259.871,136.36z"/>
	<rect x="253.457" y="95.361" style="fill:#FFB733;" width="5.625" height="42.975"/>
	<circle style="fill:#FFB733;" cx="175.368" cy="86.776" r="18.729"/>
</g>
<circle style="fill:#FFD55C;" cx="175.368" cy="86.776" r="14.983"/>
<g>
	<path style="fill:#FFB733;" d="M176.931,88.018h-3.145c-1.315,0-2.55-0.515-3.468-1.447c-0.928-0.905-1.44-2.144-1.44-3.462
		c0-1.318,0.509-2.547,1.44-3.478c0.905-0.915,2.14-1.427,3.468-1.427h6.811v2.471h-6.811c-0.664,0-1.275,0.251-1.718,0.704
		c-0.469,0.459-0.72,1.07-0.72,1.728c0,0.651,0.248,1.259,0.704,1.711c0.472,0.476,1.083,0.723,1.731,0.723h3.145v2.477H176.931z"/>
	<path style="fill:#FFB733;" d="M176.931,95.354h-6.815v-2.471h6.815c0.644,0,1.259-0.251,1.721-0.713
		c0.453-0.443,0.707-1.06,0.707-1.721c0-0.654-0.248-1.265-0.7-1.711c-0.472-0.472-1.083-0.723-1.728-0.723h-3.145v-2.477h3.145
		c1.308,0,2.543,0.512,3.468,1.447c0.918,0.902,1.434,2.14,1.434,3.465c0,1.315-0.509,2.553-1.437,3.472
		C179.464,94.852,178.229,95.354,176.931,95.354z"/>
	<rect x="174.12" y="77.345" style="fill:#FFB733;" width="2.471" height="18.868"/>
	<path style="fill:#FFB733;" d="M345.448,26.974c0,14.878-12.073,26.944-26.961,26.944c-14.901,0-26.961-12.067-26.961-26.944
		C291.526,12.087,303.586,0,318.487,0C333.375,0,345.448,12.087,345.448,26.974z"/>
</g>
<path style="fill:#FFD55C;" d="M340.044,26.974c0,11.911-9.645,21.554-21.557,21.554c-11.918,0-21.567-9.642-21.567-21.554
	c0-11.921,9.649-21.567,21.567-21.567C330.399,5.407,340.044,15.053,340.044,26.974z"/>
<g>
	<path style="fill:#FFB733;" d="M320.753,28.748h-4.535c-1.883,0-3.667-0.74-4.988-2.084c-1.331-1.305-2.074-3.082-2.074-4.981
		c0-1.896,0.743-3.67,2.074-5.008c1.308-1.315,3.085-2.051,4.988-2.051h9.811v3.561h-9.811c-0.941,0-1.83,0.36-2.461,1.007
		c-0.68,0.664-1.037,1.549-1.037,2.491c0,0.938,0.357,1.813,1.024,2.464c0.671,0.684,1.539,1.044,2.477,1.044h4.535v3.558H320.753z"
		/>
	<path style="fill:#FFB733;" d="M320.753,39.308h-9.814v-3.554h9.814c0.925,0,1.807-0.36,2.481-1.031
		c0.644-0.641,1.021-1.523,1.021-2.468c0-0.948-0.363-1.82-1.014-2.464c-0.68-0.677-1.562-1.044-2.487-1.044h-4.535v-3.554h4.535
		c1.88,0,3.653,0.737,4.988,2.071c1.328,1.305,2.061,3.092,2.061,4.994c0,1.889-0.727,3.67-2.061,4.998
		C324.39,38.588,322.616,39.308,320.753,39.308z"/>
	<rect x="316.713" y="13.395" style="fill:#FFB733;" width="3.551" height="27.156"/>
</g>
<g>
	<rect x="273.474" y="50.401" style="fill:#FFFFFF;" width="5.972" height="21.322"/>
	<rect x="253.291" y="44.319" style="fill:#FFFFFF;" width="5.972" height="21.326"/>
	<rect x="233.142" y="50.401" style="fill:#FFFFFF;" width="5.969" height="21.322"/>
</g>
<g>
</g>
<g>
</g>
<g>
</g>
<g>
</g>
<g>
</g>
<g>
</g>
<g>
</g>
<g>
</g>
<g>
</g>
<g>
</g>
<g>
</g>
<g>
</g>
<g>
</g>
<g>
</g>
<g>
</g>
</svg>
