<?xml version="1.0" encoding="iso-8859-1"?>
<!-- Generator: Adobe Illustrator 19.0.0, SVG Export Plug-In . SVG Version: 6.00 Build 0)  -->
<svg version="1.1" id="Layer_1" xmlns="http://www.w3.org/2000/svg" xmlns:xlink="http://www.w3.org/1999/xlink" x="0px" y="0px"
	 viewBox="0 0 512 512" style="enable-background:new 0 0 512 512;" xml:space="preserve">
<circle style="fill:#FF6D3B;" cx="256" cy="256" r="256"/>
<path style="fill:#242D3C;" d="M75.107,437.142c3.1,3.096,6.284,6.106,9.539,9.04v-9.04H75.107z"/>
<path style="fill:#F2F2F2;" d="M84.645,437.142v9.04c31.848,28.714,70.94,49.542,114.209,59.408v-68.448H84.645z"/>
<path style="fill:#242D3C;" d="M198.854,437.142v68.448C217.23,509.78,236.355,512,256,512s38.77-2.22,57.146-6.41v-68.448H198.854z
	"/>
<path style="fill:#F2F2F2;" d="M313.146,437.142v68.448c43.264-9.865,82.353-30.69,114.199-59.399v-9.049H313.146z"/>
<path style="fill:#242D3C;" d="M427.345,437.142v9.049c3.258-2.937,6.446-5.95,9.549-9.049H427.345L427.345,437.142z"/>
<path style="fill:#F2F2F2;" d="M84.645,361.221H22.556c12.847,28.458,30.745,54.145,52.55,75.921h9.539
	C84.645,437.142,84.645,361.221,84.645,361.221z"/>
<rect x="84.64" y="361.22" style="fill:#242D3C;" width="114.21" height="75.921"/>
<rect x="198.85" y="361.22" style="fill:#F2F2F2;" width="114.29" height="75.921"/>
<rect x="313.15" y="361.22" style="fill:#242D3C;" width="114.2" height="75.921"/>
<path style="fill:#F2F2F2;" d="M427.345,361.221L427.345,361.221v75.921l0,0h9.548c21.806-21.776,39.703-47.464,52.55-75.921
	H427.345z"/>
<g>
	<rect x="236.31" y="195.84" style="fill:#242D3C;" width="39.39" height="114.91"/>
	<rect x="236.31" y="142.65" style="fill:#242D3C;" width="39.39" height="45.29"/>
	<path style="fill:#242D3C;" d="M300.207,316.845H211.8c0,9.315-7.538,16.843-16.827,16.843h122.051
		C307.742,333.689,300.207,326.16,300.207,316.845z"/>
	<rect x="199.28" y="345.94" style="fill:#242D3C;" width="113.44" height="15.284"/>
</g>
<g>
	<path style="fill:#3E4959;" d="M304.102,313.813c0,0.766-0.304,1.566-0.895,2.16c-0.601,0.588-1.384,0.872-2.167,0.872h-90.072
		c-0.78,0-1.566-0.284-2.154-0.872c-0.608-0.598-0.912-1.394-0.912-2.16l0,0c0-0.78,0.307-1.572,0.912-2.174
		c0.591-0.588,1.374-0.885,2.154-0.885h90.072c0.783,0,1.569,0.297,2.167,0.885C303.798,312.241,304.102,313.033,304.102,313.813
		L304.102,313.813z"/>
	<path style="fill:#3E4959;" d="M194.973,333.689v7.954c0,1.1,0.423,2.193,1.262,3.026c0.836,0.846,1.922,1.268,3.022,1.268h113.486
		c1.1,0,2.187-0.423,3.022-1.268c0.839-0.832,1.259-1.926,1.259-3.026v-7.954H194.973z"/>
	<path style="fill:#3E4959;" d="M317.027,353.888c0,1.093-0.42,2.19-1.259,3.032c-0.836,0.819-1.922,1.242-3.022,1.242H199.257
		c-1.1,0-2.187-0.423-3.022-1.242c-0.839-0.842-1.262-1.939-1.262-3.032v-0.621c0-1.083,0.423-2.19,1.262-3.026
		c0.836-0.842,1.922-1.245,3.022-1.245h113.486c1.1,0,2.187,0.403,3.022,1.245c0.839,0.836,1.259,1.942,1.259,3.026v0.621H317.027z"
		/>
	<path style="fill:#3E4959;" d="M298.1,192.142c0,0.941-0.367,1.899-1.1,2.603c-0.707,0.723-1.655,1.087-2.593,1.087h-76.823
		c-0.951,0-1.883-0.363-2.616-1.087c-0.714-0.704-1.067-1.662-1.067-2.603v-0.525c0-0.932,0.353-1.899,1.067-2.596
		c0.733-0.737,1.665-1.08,2.616-1.08h76.823c0.938,0,1.886,0.344,2.593,1.08c0.733,0.697,1.1,1.665,1.1,2.596V192.142z"/>
</g>
<g>
	<path style="fill:#242D3C;" d="M236.306,240.234v70.534h-24.54C227.133,291.394,236.306,266.854,236.306,240.234z"/>
	<path style="fill:#242D3C;" d="M275.694,240.234v70.534h24.54C284.87,291.394,275.694,266.854,275.694,240.234z"/>
	<path style="fill:#242D3C;" d="M236.306,166.701v21.23h-12.76C231.147,183.917,236.306,175.917,236.306,166.701z"/>
	<path style="fill:#242D3C;" d="M275.694,166.701v21.23h12.76C280.853,183.917,275.694,175.917,275.694,166.701z"/>
	<path style="fill:#242D3C;" d="M236.306,142.653v22.402c0-12.357-10.045-22.402-22.406-22.402L236.306,142.653L236.306,142.653z"/>
	<path style="fill:#242D3C;" d="M275.694,142.653v22.402c0-12.357,10.045-22.402,22.406-22.402L275.694,142.653L275.694,142.653z"/>
</g>
<path style="fill:#3E4959;" d="M298.1,142.653c-7.049-16.275-23.235-27.668-42.1-27.668c-18.855,0-35.044,11.393-42.1,27.668H298.1z
	"/>
<g>
	<path style="fill:#242D3C;" d="M236.306,195.845v30.284c0-11.892-4.885-22.604-12.76-30.284H236.306z"/>
	<path style="fill:#242D3C;" d="M275.694,195.845v30.284c0-11.892,4.885-22.604,12.76-30.284H275.694z"/>
	<path style="fill:#242D3C;" d="M271.106,113.548c0,0.77-0.304,1.569-0.892,2.164c-0.601,0.588-1.384,0.872-2.17,0.872H243.96
		c-0.78,0-1.566-0.284-2.157-0.872c-0.604-0.598-0.908-1.394-0.908-2.164l0,0c0-0.78,0.307-1.569,0.908-2.17
		c0.595-0.591,1.377-0.885,2.157-0.885h24.084c0.786,0,1.572,0.294,2.17,0.885C270.802,111.979,271.106,112.769,271.106,113.548
		L271.106,113.548z"/>
	<polygon style="fill:#242D3C;" points="243.96,110.519 256.003,89.663 268.044,110.519 	"/>
	<polygon style="fill:#242D3C;" points="243.96,73.166 256.003,94.026 268.044,73.166 	"/>
	<polygon style="fill:#242D3C;" points="274.676,103.883 253.823,91.846 274.676,79.799 	"/>
	<polygon style="fill:#242D3C;" points="237.333,103.883 258.183,91.846 237.333,79.799 	"/>
</g>
<g>
	<rect x="322.34" y="162.93" style="fill:#FFFFFF;" width="17.273" height="4.727"/>
	
		<rect x="326.068" y="137.242" transform="matrix(0.2589 0.9659 -0.9659 0.2589 384.3031 -209.1223)" style="fill:#FFFFFF;" width="4.724" height="17.272"/>
	
		<rect x="318.598" y="119.163" transform="matrix(0.5 0.866 -0.866 0.5 271.1529 -214.0597)" style="fill:#FFFFFF;" width="4.724" height="17.272"/>
	
		<rect x="306.671" y="103.641" transform="matrix(0.7078 0.7064 -0.7064 0.7078 169.6111 -185.4977)" style="fill:#FFFFFF;" width="4.727" height="17.272"/>
	
		<rect x="319.794" y="182.329" transform="matrix(0.9659 0.259 -0.259 0.9659 59.0404 -78.7599)" style="fill:#FFFFFF;" width="17.273" height="4.724"/>
	
		<rect x="312.294" y="200.427" transform="matrix(0.8659 0.5003 -0.5003 0.8659 144.4991 -133.353)" style="fill:#FFFFFF;" width="17.271" height="4.724"/>
	
		<rect x="300.359" y="215.94" transform="matrix(0.7068 0.7074 -0.7074 0.7068 245.0241 -154.579)" style="fill:#FFFFFF;" width="17.269" height="4.727"/>
	<rect x="172.38" y="162.93" style="fill:#FFFFFF;" width="17.273" height="4.727"/>
	
		<rect x="174.943" y="143.515" transform="matrix(0.9659 0.259 -0.259 0.9659 44.0452 -42.5686)" style="fill:#FFFFFF;" width="17.273" height="4.724"/>
	
		<rect x="182.43" y="125.435" transform="matrix(0.866 0.5001 -0.5001 0.866 89.5173 -78.4217)" style="fill:#FFFFFF;" width="17.273" height="4.724"/>
	
		<rect x="194.34" y="109.915" transform="matrix(0.707 0.7072 -0.7072 0.707 138.8743 -110.6491)" style="fill:#FFFFFF;" width="17.272" height="4.727"/>
	
		<rect x="181.212" y="176.064" transform="matrix(0.2589 0.9659 -0.9659 0.2589 314.4489 -40.4331)" style="fill:#FFFFFF;" width="4.724" height="17.272"/>
	
		<rect x="188.728" y="194.156" transform="matrix(0.5 0.866 -0.866 0.5 271.1637 -64.0948)" style="fill:#FFFFFF;" width="4.724" height="17.269"/>
	
		<rect x="200.638" y="209.675" transform="matrix(0.7078 0.7064 -0.7064 0.7078 213.5309 -79.6129)" style="fill:#FFFFFF;" width="4.727" height="17.269"/>
</g>
<g>
</g>
<g>
</g>
<g>
</g>
<g>
</g>
<g>
</g>
<g>
</g>
<g>
</g>
<g>
</g>
<g>
</g>
<g>
</g>
<g>
</g>
<g>
</g>
<g>
</g>
<g>
</g>
<g>
</g>
</svg>
