<?xml version="1.0" encoding="iso-8859-1"?>
<!-- Generator: Adobe Illustrator 19.0.0, SVG Export Plug-In . SVG Version: 6.00 Build 0)  -->
<svg version="1.1" id="Layer_1" xmlns="http://www.w3.org/2000/svg" xmlns:xlink="http://www.w3.org/1999/xlink" x="0px" y="0px"
	 viewBox="0 0 512 512" style="enable-background:new 0 0 512 512;" xml:space="preserve">
<circle style="fill:#F2F2F2;" cx="256" cy="256" r="256"/>
<g>
	<rect x="158.687" y="382.679" style="fill:#242D3C;" width="32.818" height="129.321"/>
	<rect x="320.479" y="382.679" style="fill:#242D3C;" width="32.824" height="129.321"/>
	<rect x="191.501" y="454.194" style="fill:#242D3C;" width="128.991" height="16.78"/>
</g>
<path style="fill:#FF6D3B;" d="M256.007,433.089c-97.686,0-177.106-79.446-177.106-177.06c0-97.719,79.419-177.122,177.106-177.122
	c97.587,0,177.093,79.403,177.093,177.122C433.099,353.647,353.594,433.089,256.007,433.089z"/>
<path style="fill:#FFD55C;" d="M256.013,374.07c-65.163,0-118.09-52.974-118.09-118.037c0-65.14,52.928-118.09,118.09-118.09
	c65.064,0,118.057,52.951,118.057,118.09C374.07,321.097,321.077,374.07,256.013,374.07z"/>
<path style="fill:#FFFFFF;" d="M256.017,315.052c-32.543,0-59.052-26.495-59.052-59.019c0-32.613,26.508-59.058,59.052-59.058
	c32.547,0,59.019,26.446,59.019,59.058C315.035,288.553,288.56,315.052,256.017,315.052z"/>
<path style="fill:#E7E6E6;" d="M300.561,294.681c-1.784,2.114-3.769,4.063-5.88,5.913l-41.621-41.621
	c-1.652-1.652-1.652-4.294,0-5.916c1.619-1.619,4.261-1.619,5.88,0L300.561,294.681z"/>
<path style="fill:#E6BF53;" d="M342.313,336.434c-1.883,2.048-3.865,4.033-5.88,5.913l-41.753-41.753
	c2.114-1.85,4.096-3.799,5.88-5.913L342.313,336.434z"/>
<path style="fill:#E66235;" d="M384.033,378.153c-0.958,0.991-1.916,1.982-2.907,2.97c-0.991,0.988-1.982,1.985-2.97,2.94
	l-41.723-41.72c2.015-1.88,3.997-3.865,5.88-5.913L384,378.117L384.033,378.153z"/>
<polygon style="fill:#FF6D3B;" points="435.378,45.3 394.28,86.386 394.28,117.73 425.634,117.737 466.726,76.651 435.372,76.638 
	"/>
<path style="fill:#242D3C;" d="M448.089,58.015L253.054,253.063c-1.645,1.625-1.645,4.264,0,5.9
	c1.622,1.635,4.264,1.635,5.886-0.003L453.995,63.908L448.089,58.015z"/>
<g>
</g>
<g>
</g>
<g>
</g>
<g>
</g>
<g>
</g>
<g>
</g>
<g>
</g>
<g>
</g>
<g>
</g>
<g>
</g>
<g>
</g>
<g>
</g>
<g>
</g>
<g>
</g>
<g>
</g>
</svg>
