<?xml version="1.0" encoding="iso-8859-1"?>
<!-- Generator: Adobe Illustrator 19.0.0, SVG Export Plug-In . SVG Version: 6.00 Build 0)  -->
<svg version="1.1" id="Layer_1" xmlns="http://www.w3.org/2000/svg" xmlns:xlink="http://www.w3.org/1999/xlink" x="0px" y="0px"
	 viewBox="0 0 512 512" style="enable-background:new 0 0 512 512;" xml:space="preserve">
<circle style="fill:#F2F2F2;" cx="256" cy="256" r="256"/>
<g>
	<path style="fill:#D9D8D7;" d="M310.731,173.155c0-9.751,7.918-17.656,17.669-17.656h-79.879c9.754,0,17.662,7.905,17.662,17.656
		c0,9.764-7.908,17.669-17.662,17.669H328.4C318.652,190.824,310.731,182.919,310.731,173.155z"/>
	<path style="fill:#D9D8D7;" d="M341.897,190.824H199.393c-9.758,0-17.679,7.901-17.679,17.656c0,9.748,7.918,17.659,17.679,17.659
		h142.504c9.761,0,17.652-7.911,17.652-17.659C359.55,198.722,351.658,190.824,341.897,190.824z"/>
	<path style="fill:#D9D8D7;" d="M378.252,102.529c0-9.754,7.915-17.666,17.649-17.666H235.781c9.758,0,17.659,7.911,17.659,17.666
		c0,9.751-7.901,17.649-17.659,17.649h160.121C386.164,120.178,378.252,112.28,378.252,102.529z"/>
	<path style="fill:#D9D8D7;" d="M472.543,120.178H235.781c-9.751,0-17.652,7.915-17.652,17.666c0,9.751,7.901,17.659,17.652,17.659
		h236.762c9.735,0,17.656-7.908,17.656-17.659C490.199,128.092,482.278,120.178,472.543,120.178z"/>
	<path style="fill:#D9D8D7;" d="M395.902,49.548H154.558c-9.741,0-17.662,7.905-17.662,17.659s7.918,17.659,17.662,17.659h241.344
		c9.754,0,17.676-7.905,17.676-17.659S405.656,49.548,395.902,49.548z"/>
	<path style="fill:#D9D8D7;" d="M220.675,226.136c9.768,0,17.676,7.911,17.676,17.659h35.308c0-9.748,7.908-17.659,17.679-17.659
		H220.675z"/>
	<circle style="fill:#D9D8D7;" cx="134.227" cy="208.467" r="17.662"/>
	<circle style="fill:#D9D8D7;" cx="442.566" cy="67.207" r="17.666"/>
</g>
<rect x="171.9" y="243.795" style="fill:#FF6D3B;" width="168.204" height="218.641"/>
<rect x="256" y="243.795" style="fill:#F15424;" width="84.11" height="218.641"/>
<rect x="298.05" y="243.795" style="fill:#E64717;" width="42.05" height="218.641"/>
<path style="fill:#F15424;" d="M360.296,414.502H340.11v-18.488h20.186c4.264,0,8.271-1.655,11.287-4.677
	c3.022-3.013,4.694-7.046,4.694-11.3v-53.843c0-4.251-1.671-8.268-4.694-11.271c-3.016-3.022-7.023-4.677-11.287-4.677H340.11
	v-18.508h20.186c9.19,0,17.851,3.571,24.368,10.085c6.521,6.514,10.095,15.182,10.095,24.371v53.846
	c0,9.213-3.574,17.87-10.095,24.381C378.15,410.931,369.486,414.502,360.296,414.502z"/>
<rect x="295.969" y="243.795" style="fill:#FFFFFF;" width="4.159" height="67.627"/>
<rect x="277.504" y="311.428" style="fill:#242D3C;" width="41.109" height="53.215"/>
<g>
</g>
<g>
</g>
<g>
</g>
<g>
</g>
<g>
</g>
<g>
</g>
<g>
</g>
<g>
</g>
<g>
</g>
<g>
</g>
<g>
</g>
<g>
</g>
<g>
</g>
<g>
</g>
<g>
</g>
</svg>
