<?xml version="1.0" encoding="iso-8859-1"?>
<!-- Generator: Adobe Illustrator 19.0.0, SVG Export Plug-In . SVG Version: 6.00 Build 0)  -->
<svg version="1.1" id="Layer_1" xmlns="http://www.w3.org/2000/svg" xmlns:xlink="http://www.w3.org/1999/xlink" x="0px" y="0px"
	 viewBox="0 0 512 512" style="enable-background:new 0 0 512 512;" xml:space="preserve">
<circle style="fill:#FFD55C;" cx="256" cy="256" r="256"/>
<g>
	<polygon style="fill:#FF6D3B;" points="440.188,10.749 430.176,10.749 427.259,25.329 443.115,25.329 	"/>
	<polygon style="fill:#FF6D3B;" points="406.505,17.084 397.821,22.092 402.574,36.207 416.319,28.246 	"/>
	<polygon style="fill:#FF6D3B;" points="380.485,39.444 375.478,48.108 386.639,57.942 394.58,44.2 	"/>
	<polygon style="fill:#FF6D3B;" points="369.122,71.806 369.129,81.824 383.716,84.748 383.716,68.885 	"/>
	<polygon style="fill:#FF6D3B;" points="375.478,105.515 380.485,114.179 394.58,109.429 386.639,95.694 	"/>
	<polygon style="fill:#FF6D3B;" points="397.821,131.528 406.505,136.529 416.319,125.374 402.574,117.42 	"/>
	<polygon style="fill:#FF6D3B;" points="430.176,142.884 440.188,142.884 443.115,128.291 427.259,128.291 	"/>
	<polygon style="fill:#FF6D3B;" points="463.892,136.529 472.563,131.528 467.8,117.42 454.058,125.374 	"/>
	<polygon style="fill:#FF6D3B;" points="489.901,114.179 494.903,105.515 483.734,95.694 475.807,109.429 	"/>
	<polygon style="fill:#FF6D3B;" points="501.251,81.824 501.251,71.806 486.674,68.885 486.674,84.748 	"/>
	<polygon style="fill:#FF6D3B;" points="494.903,48.108 489.901,39.45 475.807,44.2 483.734,57.942 	"/>
	<polygon style="fill:#FF6D3B;" points="472.563,22.092 463.872,17.101 454.058,28.246 467.8,36.207 	"/>
</g>
<path style="fill:#F15424;" d="M435.18,24.735c-28.755,0-52.079,23.304-52.079,52.079s23.324,52.079,52.079,52.079
	c28.784,0,52.095-23.304,52.095-52.079S463.964,24.735,435.18,24.735z M435.18,91.235c-7.934,0-14.412-6.471-14.412-14.422
	c0-7.941,6.478-14.422,14.412-14.422c7.967,0,14.425,6.481,14.425,14.422C449.605,84.764,443.148,91.235,435.18,91.235z"/>
<path style="fill:#FFFFFF;" d="M435.18,51.821c-13.801,0-24.986,11.185-24.986,24.992c0,13.821,11.188,24.996,24.986,24.996
	c13.827,0,25.009-11.178,25.009-24.996C460.189,63.002,449.007,51.821,435.18,51.821z M435.18,89.313
	c-6.891,0-12.48-5.596-12.48-12.499c0-6.894,5.589-12.496,12.48-12.496c6.9,0,12.509,5.602,12.509,12.496
	C447.69,83.717,442.081,89.313,435.18,89.313z"/>
<g>
	<polygon style="fill:#3E4959;" points="268.509,90.832 243.481,90.832 236.171,127.283 275.826,127.283 	"/>
	<polygon style="fill:#3E4959;" points="184.284,106.671 162.581,119.19 174.476,154.485 208.833,134.573 	"/>
	<polygon style="fill:#3E4959;" points="119.233,162.575 106.727,184.237 134.63,208.807 154.489,174.46 	"/>
	<polygon style="fill:#3E4959;" points="90.839,243.477 90.859,268.523 127.323,275.833 127.323,236.177 	"/>
	<polygon style="fill:#3E4959;" points="106.727,327.749 119.233,349.405 154.489,337.53 134.63,303.2 	"/>
	<polygon style="fill:#3E4959;" points="162.581,392.787 184.284,405.276 208.833,377.394 174.476,357.505 	"/>
	<polygon style="fill:#3E4959;" points="243.481,421.168 268.509,421.168 275.826,384.697 236.181,384.697 	"/>
	<polygon style="fill:#3E4959;" points="327.756,405.276 349.438,392.787 337.537,357.505 303.187,377.394 	"/>
	<polygon style="fill:#3E4959;" points="392.787,349.405 405.296,327.749 377.384,303.2 357.551,337.53 	"/>
	<polygon style="fill:#3E4959;" points="421.161,268.523 421.161,243.477 384.723,236.177 384.723,275.833 	"/>
	<polygon style="fill:#3E4959;" points="405.296,184.237 392.787,162.598 357.551,174.46 377.384,208.807 	"/>
	<polygon style="fill:#3E4959;" points="349.438,119.19 327.716,106.711 303.187,134.573 337.537,154.485 	"/>
</g>
<path style="fill:#242D3C;" d="M255.99,125.803c-71.895,0-130.203,58.256-130.203,130.193c0,71.931,58.309,130.19,130.203,130.19
	c71.954,0,130.246-58.259,130.246-130.19C386.236,184.059,327.944,125.803,255.99,125.803z M255.99,292.055
	c-19.836,0-36.028-16.179-36.028-36.058c0-19.862,16.192-36.061,36.028-36.061c19.922,0,36.068,16.199,36.068,36.061
	C292.058,275.875,275.912,292.055,255.99,292.055z"/>
<path style="fill:#D9D8D7;" d="M363.355,256c0,59.283-48.039,107.355-107.358,107.355c-59.276,0-107.352-48.072-107.352-107.355
	c0-59.29,48.075-107.365,107.352-107.365C315.316,148.635,363.355,196.71,363.355,256z"/>
<path style="fill:#FFFFFF;" d="M358.44,256c0,56.568-45.859,102.426-102.443,102.426c-56.551,0-102.42-45.859-102.42-102.426
	c0-56.574,45.869-102.436,102.42-102.436C312.581,153.564,358.44,199.426,358.44,256z"/>
<g>
	<path style="fill:#242D3C;" d="M258.672,162.228c0,1.48-1.186,2.669-2.676,2.669c-1.463,0-2.659-1.186-2.659-2.669
		c0-1.46,1.192-2.649,2.659-2.649C257.483,159.582,258.672,160.768,258.672,162.228z"/>
	<path style="fill:#242D3C;" d="M211.443,173.469c0.733,1.275,0.294,2.9-0.984,3.64c-1.265,0.733-2.894,0.301-3.624-0.984
		c-0.74-1.272-0.307-2.887,0.965-3.62C209.084,171.761,210.706,172.197,211.443,173.469z"/>
	<path style="fill:#242D3C;" d="M176.148,206.805c1.275,0.75,1.708,2.365,0.961,3.647c-0.73,1.262-2.335,1.708-3.63,0.955
		c-1.265-0.723-1.701-2.345-0.971-3.61C173.251,206.508,174.876,206.072,176.148,206.805z"/>
	<path style="fill:#242D3C;" d="M162.254,253.331c1.48,0,2.666,1.186,2.666,2.669c0.01,1.457-1.183,2.649-2.666,2.649
		c-1.457,0-2.652-1.189-2.662-2.649C159.602,254.52,160.798,253.331,162.254,253.331z"/>
	<path style="fill:#242D3C;" d="M173.482,300.561c1.295-0.743,2.9-0.297,3.647,0.981c0.733,1.265,0.301,2.884-0.981,3.62
		c-1.272,0.737-2.887,0.317-3.624-0.948C171.781,302.909,172.227,301.297,173.482,300.561z"/>
	<path style="fill:#242D3C;" d="M206.835,335.846c0.74-1.278,2.359-1.698,3.637-0.961c1.272,0.73,1.704,2.342,0.971,3.627
		c-0.73,1.272-2.352,1.711-3.617,0.974C206.541,338.736,206.098,337.111,206.835,335.846z"/>
	<path style="fill:#242D3C;" d="M253.338,349.742c0-1.483,1.199-2.666,2.679-2.666c1.467,0,2.656,1.179,2.656,2.666
		c0,1.47-1.186,2.652-2.649,2.652C254.533,352.395,253.338,351.212,253.338,349.742z"/>
	<path style="fill:#242D3C;" d="M300.597,338.511c-0.75-1.292-0.307-2.897,0.968-3.64c1.268-0.73,2.887-0.304,3.62,0.974
		c0.743,1.265,0.314,2.89-0.958,3.634C302.949,340.219,301.324,339.773,300.597,338.511z"/>
	<path style="fill:#242D3C;" d="M335.875,305.162c-1.275-0.737-1.714-2.362-0.958-3.64c0.717-1.272,2.342-1.711,3.61-0.961
		c1.278,0.737,1.714,2.342,0.991,3.62C338.776,305.479,337.144,305.892,335.875,305.162z"/>
	<path style="fill:#242D3C;" d="M349.762,258.649c-1.473-0.007-2.649-1.196-2.656-2.669c0-1.477,1.179-2.656,2.662-2.649
		c1.457-0.007,2.656,1.169,2.656,2.643C352.421,257.457,351.225,258.643,349.762,258.649z"/>
	<path style="fill:#242D3C;" d="M338.525,211.416c-1.268,0.733-2.887,0.291-3.637-0.981c-0.73-1.265-0.291-2.89,0.991-3.624
		c1.265-0.743,2.894-0.307,3.624,0.958C340.239,209.051,339.803,210.673,338.525,211.416z"/>
	<path style="fill:#242D3C;" d="M305.185,176.128c-0.743,1.278-2.352,1.704-3.643,0.965c-1.252-0.727-1.695-2.352-0.945-3.627
		c0.727-1.278,2.352-1.714,3.61-0.978C305.496,173.231,305.915,174.853,305.185,176.128z"/>
	<rect x="252.796" y="256" style="fill:#242D3C;" width="6.448" height="52.046"/>
	<rect x="261.351" y="253.84" style="fill:#242D3C;" width="64.406" height="4.301"/>
	<path style="fill:#242D3C;" d="M267.987,255.993c0,6.606-5.361,11.981-11.991,11.981c-6.6,0-11.964-5.374-11.964-11.981
		c0-6.623,5.364-11.974,11.964-11.974C262.626,244.019,267.987,249.37,267.987,255.993z"/>
</g>
<g>
	<polygon style="fill:#FF6D3B;" points="268.324,266.491 266.517,268.318 205.794,207.595 207.608,205.768 	"/>
	<path style="fill:#FF6D3B;" d="M263.991,255.993c0,4.403-3.568,7.994-7.994,7.994c-4.403,0-7.987-3.591-7.987-7.987
		c0.003-4.413,3.597-7.984,7.997-7.994C260.423,248.006,263.991,251.577,263.991,255.993z"/>
</g>
<path style="fill:#242D3C;" d="M260.013,255.993c0,2.207-1.813,3.977-4.017,3.977c-2.183,0-3.977-1.771-3.977-3.977
	c0-2.22,1.794-3.994,3.977-3.994C258.2,252,260.013,253.774,260.013,255.993z"/>
<g>
</g>
<g>
</g>
<g>
</g>
<g>
</g>
<g>
</g>
<g>
</g>
<g>
</g>
<g>
</g>
<g>
</g>
<g>
</g>
<g>
</g>
<g>
</g>
<g>
</g>
<g>
</g>
<g>
</g>
</svg>
