<?xml version="1.0" encoding="iso-8859-1"?>
<!-- Generator: Adobe Illustrator 19.0.0, SVG Export Plug-In . SVG Version: 6.00 Build 0)  -->
<svg version="1.1" id="Layer_1" xmlns="http://www.w3.org/2000/svg" xmlns:xlink="http://www.w3.org/1999/xlink" x="0px" y="0px"
	 viewBox="0 0 512 512" style="enable-background:new 0 0 512 512;" xml:space="preserve">
<circle style="fill:#F2F2F2;" cx="256" cy="256" r="256"/>
<path style="fill:#FF6D3B;" d="M256,141.781c-68.013,0-124.479,49.36-135.568,114.212C131.521,320.869,187.987,370.219,256,370.219
	c68.02,0,124.466-49.35,135.574-114.226C380.466,191.141,324.02,141.781,256,141.781z"/>
<path style="fill:#FFFFFF;" d="M256,190.15c-56.28,0-105.426,26.495-131.7,65.837c26.274,39.374,75.419,65.86,131.7,65.86
	c56.264,0,105.426-26.489,131.723-65.86C361.426,216.649,312.264,190.15,256,190.15z"/>
<path style="fill:#21D8DE;" d="M325.373,204.644c-20.805-9.257-44.386-14.493-69.373-14.493c-24.994,0-48.573,5.235-69.374,14.49
	c-7.401,12.226-11.664,26.561-11.664,41.889c0,30.505,16.869,57.048,41.771,70.868c12.528,2.893,25.687,4.449,39.267,4.449
	c13.582,0,26.743-1.557,39.276-4.453c24.897-13.822,41.756-40.364,41.756-70.864C337.031,231.203,332.771,216.869,325.373,204.644z
	 M256,286.099c-21.818,0-39.543-17.745-39.543-39.569c0-4.218,0.668-8.279,1.893-12.091c-5.342-3.271-8.919-9.144-8.919-15.867
	c0-10.28,8.334-18.614,18.614-18.614c6.722,0,12.594,3.575,15.866,8.916c3.812-1.225,7.873-1.894,12.089-1.894
	c21.828,0,39.543,17.715,39.543,39.55C295.543,268.357,277.828,286.099,256,286.099z"/>
<path style="fill:#242D3C;" d="M256,206.98c-4.216,0-8.277,0.668-12.089,1.894c1.732,2.827,2.748,6.139,2.748,9.697
	c0,10.28-8.334,18.614-18.614,18.614c-3.557,0-6.869-1.016-9.695-2.746c-1.225,3.812-1.893,7.873-1.893,12.091
	c0,21.824,17.725,39.569,39.543,39.569c21.828,0,39.543-17.742,39.543-39.569C295.543,224.695,277.828,206.98,256,206.98z"/>
<path style="fill:#FFFFFF;" d="M246.659,218.571c0-3.558-1.016-6.871-2.748-9.697c-3.272-5.341-9.144-8.916-15.866-8.916
	c-10.28,0-18.614,8.334-18.614,18.614c0,6.723,3.577,12.596,8.919,15.867c2.826,1.731,6.138,2.746,9.695,2.746
	C238.325,237.185,246.659,228.851,246.659,218.571z"/>
<g>
	<rect x="253.07" y="57.02" style="fill:#3E4959;" width="5.85" height="21.815"/>
	
		<rect x="213.967" y="61.119" transform="matrix(-0.9782 0.2076 -0.2076 -0.9782 444.0184 97.458)" style="fill:#3E4959;" width="5.857" height="21.818"/>
	
		<rect x="176.576" y="73.277" transform="matrix(-0.9138 0.4061 -0.4061 -0.9138 377.7184 88.2189)" style="fill:#3E4959;" width="5.847" height="21.816"/>
	
		<rect x="142.534" y="92.937" transform="matrix(-0.8093 0.5874 -0.5874 -0.8093 324.1728 102.4515)" style="fill:#3E4959;" width="5.843" height="21.821"/>
	
		<rect x="113.305" y="119.255" transform="matrix(-0.6686 0.7436 -0.7436 -0.6686 290.73 130.7604)" style="fill:#3E4959;" width="5.847" height="21.814"/>
	
		<rect x="90.195" y="151.047" transform="matrix(-0.4992 0.8665 -0.8665 -0.4992 279.9388 162.1152)" style="fill:#3E4959;" width="5.85" height="21.818"/>
	
		<rect x="74.195" y="186.975" transform="matrix(-0.3088 0.9511 -0.9511 -0.3088 289.1452 185.6378)" style="fill:#3E4959;" width="5.85" height="21.813"/>
	
		<rect x="66.035" y="225.444" transform="matrix(-0.1031 0.9947 -0.9947 -0.1031 311.1588 192.1228)" style="fill:#3E4959;" width="5.85" height="21.81"/>
	
		<rect x="58.038" y="272.733" transform="matrix(-0.9945 0.1045 -0.1045 -0.9945 166.3081 542.5961)" style="fill:#3E4959;" width="21.803" height="5.843"/>
	
		<rect x="66.212" y="311.212" transform="matrix(-0.951 0.3092 -0.3092 -0.951 247.5932 589.0352)" style="fill:#3E4959;" width="21.818" height="5.85"/>
	
		<rect x="82.22" y="347.108" transform="matrix(-0.866 0.5001 -0.5001 -0.866 348.8222 606.5846)" style="fill:#3E4959;" width="21.816" height="5.853"/>
	
		<rect x="105.337" y="378.927" transform="matrix(-0.7433 0.669 -0.669 -0.7433 458.0921 587.9057)" style="fill:#3E4959;" width="21.81" height="5.844"/>
	
		<rect x="134.537" y="405.242" transform="matrix(-0.5885 0.8085 -0.8085 -0.5885 561.0272 530.776)" style="fill:#3E4959;" width="21.805" height="5.837"/>
	
		<rect x="168.592" y="424.922" transform="matrix(-0.4066 0.9136 -0.9136 -0.4066 643.3621 437.8224)" style="fill:#3E4959;" width="21.808" height="5.85"/>
	
		<rect x="205.987" y="437.067" transform="matrix(-0.2081 0.9781 -0.9781 -0.2081 692.3824 319.4075)" style="fill:#3E4959;" width="21.808" height="5.843"/>
	<rect x="253.07" y="433.18" style="fill:#3E4959;" width="5.85" height="21.801"/>
	
		<rect x="292.194" y="429.061" transform="matrix(-0.978 0.2086 -0.2086 -0.978 675.5146 808.6863)" style="fill:#3E4959;" width="5.843" height="21.805"/>
	
		<rect x="329.589" y="416.962" transform="matrix(-0.914 0.4058 -0.4058 -0.914 810.058 683.9893)" style="fill:#3E4959;" width="5.866" height="21.808"/>
	
		<rect x="363.607" y="397.25" transform="matrix(-0.8095 0.5871 -0.5871 -0.8095 902.8657 523.3541)" style="fill:#3E4959;" width="5.847" height="21.794"/>
	<polygon style="fill:#3E4959;" points="385.698,376.733 389.612,372.396 405.814,386.966 401.917,391.333 	"/>
	
		<rect x="415.958" y="339.136" transform="matrix(-0.5003 0.8659 -0.8659 -0.5003 931.522 162.4685)" style="fill:#3E4959;" width="5.84" height="21.81"/>
	
		<rect x="431.944" y="303.225" transform="matrix(-0.3094 0.9509 -0.9509 -0.3094 868.1298 -2.196)" style="fill:#3E4959;" width="5.837" height="21.813"/>
	
		<rect x="440.106" y="264.751" transform="matrix(-0.1033 0.9947 -0.9947 -0.1033 762.9686 -136.5273)" style="fill:#3E4959;" width="5.84" height="21.807"/>
	<polygon style="fill:#3E4959;" points="431.903,234.588 453.586,232.296 454.194,238.116 432.505,240.396 	"/>
	
		<rect x="423.957" y="194.946" transform="matrix(-0.9511 0.309 -0.309 -0.9511 909.5933 251.6902)" style="fill:#3E4959;" width="21.82" height="5.85"/>
	
		<rect x="407.982" y="159.046" transform="matrix(-0.8658 0.5003 -0.5003 -0.8658 862.6071 92.6355)" style="fill:#3E4959;" width="21.803" height="5.85"/>
	
		<rect x="384.865" y="127.26" transform="matrix(-0.7428 0.6695 -0.6695 -0.7428 776.9044 -38.0917)" style="fill:#3E4959;" width="21.808" height="5.84"/>
	
		<rect x="355.648" y="100.907" transform="matrix(-0.5874 0.8093 -0.8093 -0.5874 665.8919 -131.8186)" style="fill:#3E4959;" width="21.801" height="5.857"/>
	<polygon style="fill:#3E4959;" points="325.401,92.969 334.257,73.051 339.605,75.413 330.749,95.334 	"/>
	<polygon style="fill:#3E4959;" points="289.987,82.098 294.506,60.766 300.24,61.978 295.701,83.317 	"/>
</g>
<g>
</g>
<g>
</g>
<g>
</g>
<g>
</g>
<g>
</g>
<g>
</g>
<g>
</g>
<g>
</g>
<g>
</g>
<g>
</g>
<g>
</g>
<g>
</g>
<g>
</g>
<g>
</g>
<g>
</g>
</svg>
