<?xml version="1.0" encoding="iso-8859-1"?>
<!-- Generator: Adobe Illustrator 19.0.0, SVG Export Plug-In . SVG Version: 6.00 Build 0)  -->
<svg version="1.1" id="Layer_1" xmlns="http://www.w3.org/2000/svg" xmlns:xlink="http://www.w3.org/1999/xlink" x="0px" y="0px"
	 viewBox="0 0 512 512" style="enable-background:new 0 0 512 512;" xml:space="preserve">
<circle style="fill:#21D8DE;" cx="256" cy="256" r="256"/>
<g>
	<path style="fill:#FFFFFF;" d="M395.954,267.31c0.013,0,0.017,0,0.023,0c-0.007-0.294-0.023-0.581-0.023-0.875
		c0-16.946,13.735-30.68,30.674-30.68c13.85,0,25.55,9.186,29.359,21.795c2.316-1.093,4.892-1.704,7.621-1.704
		c9.867,0,17.877,8.007,17.877,17.877c0,2.283-0.426,4.453-1.202,6.454c0.202-0.017,0.39-0.033,0.591-0.033
		c6.329,0,11.462,5.13,11.462,11.462c0,6.326-5.133,11.469-11.462,11.469h-84.916c-9.873,0-17.874-8.01-17.874-17.88
		C378.081,275.314,386.081,267.31,395.954,267.31z"/>
	<path style="fill:#FFFFFF;" d="M206.729,212.87l-4.671-4.671c1.731-1.731,3.468-3.455,5.199-5.166l4.644,4.697
		C210.178,209.434,208.453,211.145,206.729,212.87z"/>
	<path style="fill:#FFFFFF;" d="M222.046,197.83l-4.588-4.753c3.445-3.323,6.887-6.6,10.323-9.837l4.529,4.813
		C228.894,191.267,225.472,194.527,222.046,197.83z M242.695,178.404l-4.466-4.872c3.528-3.234,7.052-6.425,10.564-9.569
		l4.407,4.922C249.707,172.009,246.203,175.18,242.695,178.404z M263.825,159.509l-4.337-4.981c3.62-3.155,7.227-6.253,10.821-9.292
		l4.264,5.044C271.01,153.303,267.426,156.381,263.825,159.509z M285.461,141.206l-4.195-5.103
		c3.719-3.059,7.419-6.048,11.092-8.972l4.116,5.166C292.828,135.204,289.154,138.174,285.461,141.206z M307.629,123.574
		l-4.027-5.239c3.832-2.946,7.634-5.817,11.39-8.602l3.934,5.308C315.197,117.803,311.428,120.647,307.629,123.574z
		 M330.382,106.717l-3.832-5.381c3.957-2.821,7.872-5.54,11.733-8.162l3.71,5.464C338.168,101.234,334.3,103.929,330.382,106.717z
		 M353.782,90.835l-3.581-5.556c4.119-2.652,8.166-5.179,12.139-7.584l3.419,5.652C361.835,85.719,357.842,88.216,353.782,90.835z
		 M377.939,76.242l-3.234-5.761c4.307-2.415,8.569-4.691,12.661-6.765l2.986,5.89C386.342,71.64,382.163,73.873,377.939,76.242z
		 M403.033,63.584l-2.666-6.045c4.651-2.051,9.163-3.861,13.421-5.374l2.213,6.227C411.899,59.848,407.539,61.595,403.033,63.584z
		 M429.258,54.444l-1.49-6.438c5.341-1.239,10.29-1.919,14.713-2.028l0.162,6.606C438.668,52.68,434.166,53.307,429.258,54.444z"/>
	<path style="fill:#FFFFFF;" d="M460.133,58.011c-1.391-1.391-3.075-2.527-5.011-3.379l2.672-6.045
		c2.686,1.186,5.041,2.788,7.009,4.753L460.133,58.011z"/>
</g>
<polygon style="fill:#E6E5E5;" points="342.65,60.948 378.005,85.174 257.387,155.328 "/>
<g>
	<polygon style="fill:#FFFFFF;" points="344.094,74.689 349.442,124.994 257.387,155.328 	"/>
	<polygon style="fill:#FFFFFF;" points="339.383,30.297 342.65,60.948 257.387,155.328 	"/>
</g>
<polygon style="fill:#CCCBCA;" points="378.005,85.174 344.094,74.689 347.1,103.156 "/>
<path style="fill:#FFFFFF;" d="M393.084,255.987c0,75.697-61.361,137.081-137.1,137.081c-75.7,0-137.067-61.384-137.067-137.081
	c0-75.72,61.367-137.077,137.067-137.077C331.723,118.91,393.084,180.267,393.084,255.987z"/>
<path style="fill:#D9D8D7;" d="M304.115,127.627c25.012,22.839,40.709,55.709,40.709,92.252
	c0,68.981-55.934,124.928-124.964,124.928c-36.534,0-69.384-15.69-92.229-40.699c19.482,51.966,69.589,88.962,128.35,88.962
	c75.74,0,137.1-61.384,137.1-137.081C393.084,197.212,356.108,147.112,304.115,127.627z"/>
<path style="fill:#3E4959;" d="M223.909,370.586c0.548,0.106,2.038-0.403,2.454-0.515c-1.014-0.832-3.221-0.918-4.512-1.704
	c0.116,0.053-4.122-2.524-3.227-0.406c0.238,0.515,1.024,0.053,1.394,0.317c-0.509,0.756-0.73,0.509-0.178,0.856
	c0-0.01-4.687-2.547,0.02-2.702c-3.254-2.937,0.215-2.022-0.816-3.871c-0.704-1.278,2.768-2.487,0.892-3.577
	c-0.882-0.515-1.86-0.419-2.788-1.057c-1.285-0.928-0.069-2.583,1.15-2.418c0.116,0,0.75-2.953,0.978-3.419
	c-0.357-0.145-2.778-3.141-2.197-3.786c0.73-0.753,3.865,1.946,4.644-0.05c0.304-0.72-1.097-2.659-0.981-3.465
	c1.427-0.126,10.782,0.228,9.18-4.063c-0.548-1.483-4.482-3.716-4.063-4.942c1.361,0.208,3.634,2.187,5.084,1.387
	c1.219-0.611,2.174,0.704,3.432-0.7c0.218-0.258,2.302-2.487,1.701-2.907c-0.634-0.017-0.978,0.35-1.041,1.1
	c-0.743-1.007,0.545-1.708,1.209-2.441c0.172,0.221,0.32,0.446,0.476,0.638c0.78-1.173,5.107-6.815,5.246-6.943
	c2.22-2.557,0.406-6.018,2.6-8.07c1.989-1.889,4.175-3.115,6.666-4.116c0.776-0.311,3.528-1.767,4.089-1.599
	c4.591,1.417,4.037-4.07,6.96-6.547c2.96-2.477,0.78-15.175,3.191-16.12c1.321-0.512,5.222-5.325,7.247-7.512
	c1.965-2.111,2.207-4.826,1.447-7.515c-1.169-4.106-2.335-1.784-5.295-3.551c-2.378-1.417-4.198-4.255-7.142-4.654
	c-1.724-0.238-3.538,0.277-5.236-0.225c-0.737-0.218-2.709-1.427-3.452-0.41c0.129-0.175-1.582,0.634-1.457,0.68
	c-0.182-0.112-0.033-2.243-0.608-2.775c-0.885-0.846-3.957-1.721-5.057-1.998c-2.553-0.651-3.181,2.375-3.838-1.239
	c-2.114-0.568-4.198-3.026-3.838-3.634c0.201-0.254-3.27-7.587-3.756-6.904c-0.04-2.454-7.67-5.516-9.602-4.344
	c-1.734,1.265-4.938-1.14-6.009-2.279c-1.209-1.308-1.179-2.709-3.204-3.548c-0.869-0.373-2.352-0.175-2.018-1.662
	c0.347-1.576-3.749-1.883-4.139-3.422c0.581,0.109,1.07-0.175,1.612-0.324c-1.592,0.555-3.541-0.614-5.11,0.677
	c-2.283,1.903-3.647-0.895-6.147-0.403c-3.188,0.598-1.044-0.555-3.046-1.784c0.823,0.512-3.716-2.071-2.656-1.979
	c-0.951-0.106,0.135,1.569-0.918,1.932c-1.648,0.618-3.082,0.988-2.005,2.98c1.827,3.647-3.805,1.929-1.166-0.555
	c0.472-0.419,0.611-5.15,1.14-4.985c-0.667-0.228-5.807,3.108-6.402,3.809c-1.645-2.633-4.44,6.547-5.368,6.62
	c-0.466-2.263-2.613-3.181-4.482-3.848c-1.602-0.611-3.207,3.198-5.282,1.1c-3.719-3.749-2.081-9.794-0.198-14.082
	c0.793-1.975-6.844-2.583-7.776-1.774c-1.876,1.516,0.277-3.145,0.271-3.009c0.208-1.883,0.631-3.122,1.463-3.098
	c0.489-1.11,3.34-6.2,3.039-6.818c-1.136-2.669-5.962,2.074-6.418,3.26c-0.479,1.159-1.407,1.8-1.856,2.851
	c-0.459,1.057-1.335-0.231-2.107,0.188c-2.084,1.179-5.057,0.575-4.608-2.444c0.476-3.64-0.902-10.811,3.174-13.302
	c1.245-0.773,1.447-4.39,2.884-5.682c0.175-0.152,4.304-2.543,3.898-3.013c0.614,0.638,3.858-0.657,4.258,0.185
	c0.324,0.687,2.23,1.42,2.9,1.031c-0.03,0.089,0.334-1.599,0.334-1.615c-0.059-0.02-1.328-0.195-1.278-0.604
	c0.152-0.562,4.02-0.178,4.149-0.165c1.83,0.126,3.188,1.642,4.549,0.737c2.111-1.44,0.819,7.984,1.671,8.846
	c0.453,0.502,0.109,1.642,1.007,1.549c1.199-0.132,1.582-12.222,4.704-14.742c2.273-1.84,4.753-3.485,7.277-4.852
	c0.806-0.4,2.884-1.417,3.323-2.207c-0.092-0.377-0.476-0.852-0.902-0.446c-0.129-0.737,1.11-0.277,1.341-1.057
	c0.231-0.78-0.641-1.037-0.538-1.308c-0.04,0.076,0.77-1.579,0.499-1.361c0.04,0.056,0.04,0.129,0.059,0.172
	c1.252,0.205-0.277-1.166-0.337-1.377c1.642,0.859,0.951-1.8,2.567-1.932c-1.156,0.476-0.932,1.764-0.78,2.55
	c0.33,1.721,1.86-2.395,1.675-2.233c1.539-0.631,3.937-1.916,5.582-3.079c-0.39-0.159-0.796,0.139-1.265-0.188
	c1.691-0.614,3.587-0.413,5.193-1.249c-0.069-1.701,0.955-3.492,2.867-3.802c2.927-0.482,6.352-2.273,9.282-3.264
	c-0.433,1.007,0.244,0.231,1.037,0.608c-0.951-2.471-6.141,4.588-3.676,3.155c2.091-1.199,9.117-2.296,10.081-4.331
	c-0.033-0.106-0.476-1.46-0.462-1.46c-1.731,0-1.87,2.14-4.013,2.131c-3.878-0.043-1.536-2.425-2.342-3.501
	c-0.684,0.162-1.278-0.026-1.741-0.555c0.393-0.083,5.166-1.189,2.639-1.761c-4.096-0.879-6.828,3.686-10.2,3.581
	c2.517-1.536,5.956-4.816,9.018-5.226c3.244-0.459,7.776,1.143,10.64-0.879c2.547-1.767,4.298-0.466,5.741-3.349
	c0.439-0.78-1.863-1.767-2.458-1.899c0.254-0.291,0.766,0,0.955-0.486c-3.838-1.718-4.641-3.412-5.103-7.852
	c-1.956,1.42-8.516,4.469-5.008-0.489c-1.262-0.542-5.246-3.865-6.768-1.576c-0.714,1.034-1.83,2.768-3.006,3.297
	c-2.59,1.179-0.284,0.955-1.146,2.695c-1.493,2.877-5.037,2.477-6.739,4.994c-1.064,1.586-1.381,2.695-3.032,3.442
	c-1.447,0.638-1.995-1.067-1.295-2.421c0.512,0.568,0.978,0.657,1.391,0.235c0.122-0.621-0.756-0.32-1.031-0.565
	c0.492-0.885,1.133-1.701,1.846-2.451c-0.238-0.135-3.921-0.713-3.789-1.691c0.244-2.012-2.296-0.902-2.728-1.51
	c1.962-2.477,1.962-3.627,5.827-5.569c1.315-0.657,8.724-4.446,10.105-3.505c-0.178,0.856-1.097,0.674-1.582,1.117
	c1.057,0.274,4.155,0.604,5.203-0.129c-0.221-0.202-1.467-2.259-0.836-2.748c-0.089,0.099,2.127,0.059,2.296-0.01
	c1.192-0.287,2.497-0.429,3.174-1.635c0.588-1.07,4.499-2.448,5.434-1.922c5.11,2.887-6.94,5.969-7.062,5.645
	c0.251,0.839,3.482-0.588,4.311,1.642c0.205,0.545,3.914,1.734,4.261,1.222c0.218-0.258-1.057-1.612-1.1-1.936
	c3.885,1.876,3.65,0.895,3.016-1.704c-0.611-2.471,2.276,0.175,2.434,0.244c0.647,0.33,3.26-1.173,3.653-1.711
	c-0.941-0.73-2.573-0.717-3.386-1.599c-0.799-0.77,2.008-0.955,1.037-1.761c-1.176-0.968-3.042-0.723-2.388-2.613
	c-0.677-0.185-1.328-0.102-1.926,0.248c0.185,0.347,0.571,0.086,0.714,0.268c-0.644,0.393-1.371,0.466-2.098,0.446
	c0.218-0.33,0.902-0.33,0.908-0.974c-2.008-0.231-3.072,0.974-4.826,1.51c0.489-0.727,1.338-0.941,1.942-1.486
	c-1.909,0.241-3.736,0.958-5.239,2.203c0.225,0.221,0.439,0.429,0.581,0.707c-1.457,1.295-3.406,1.691-5.13,2.487
	c0.297-1.159,1.546-0.889,1.946-1.738c-0.628,0.003-1.249,0.145-1.8,0.416c0.727-0.096,2.887-2.253,3.373-2.801
	c-3.112-0.36-4.423,3.67-7.379,3.102c0.621-0.717,1.866-0.34,2.276-1.467c-1.074,0.129-5.209,2.937-5.886,1.467
	c-0.04-0.083,7.558-3.102,8.354-4.202c-0.515-0.056-1.087,0.476-1.562-0.132c0.373-0.416,0.981-0.453,1.42-0.902
	c-2.487-0.026-9.883,2.98-9.335,4.72c-0.955,0.776-1.989,0.998-3.161,0.505c0.466-0.72,2.084-0.733,0.773-1.767
	c-2.395,0.879-4.71,1.853-7.033,2.861c-5.335,2.372-10.593,5.163-15.548,8.242c-8.195,5.067-14.967,11.059-21.745,17.854
	c-3.594,3.647-17.286,19.628-17.243,22.977c0.046,2.454-1.414,4.644-2.332,6.854c-0.753,1.817-0.829,4.35-1.734,6.018
	c-1.989,3.554-1.074,7.647-1.982,11.736c1.14-0.856,3.458-19.519,5.473-18.822c0.393,0.135-1.245,7.759-1.675,8.707
	c-1.691,3.914,0.538,8.697-0.578,12.79c-0.116,0.396-0.677,2.468-0.69,2.877c-1.883,1.45,0.495,3.614,0.482,5.206
	c0,0.941,4.803,5.16,5.734,5.711c2.015,1.212,2.421-0.941,4.258-0.552c1.662,0.344,2.134,3.353,3.022,4.621
	c1.173,1.767,5.682,1.582,6.445,2.408c0.515,0.638,0.089,4.066,2.134,4.552c-0.02-0.235-0.066-1.453,0.211-1.622
	c0.638-0.38,1.949,1.899,1.523,2.329c-0.651,0.142-1.239-0.083-1.728-0.707c0,0.307-0.347,4.803,0.978,3.924
	c0.023-0.264,0.099-0.562,0.129-0.829c1.721,0.743,1.582,3.264,2.798,3.61c1.685,0.466,2.943,2.567,4.195,3.168
	c1.143,0.568,0.826-3.951,2.973-4.162c1.718-0.162,2.699,4.344,3.29,5.434c0.905,1.586-1.212,5.407-0.04,6.639
	c1.196,1.252-2.96,4.264-3.174,5.53c-0.135,0.984-2.253,1.886-2.174,2.253c0.162,1.064-0.476,2.501-0.839,3.498
	c-1.057,2.821-0.535,3.065,1.285,4.367c0.053,0.04-3.379,6.864-1.407,8.608c3.122,2.56,7.237,8.882,8.232,12.869
	c2.051,5.457,5.156,8.82,10.372,11.515c4.235,2.233,7.227,6.025,7.227,11.125c0.152,2.996-0.281,6.752,0.984,9.576
	c0.892,1.969-0.799,5.179,0.479,6.967c0.813,1.1-0.264,1.721,0.218,2.765c0.495,1.107,1.655,2.946,1.628,4.228
	c-0.03,2.147-0.007,4.697,0.139,6.831c0.05,0.723-0.631,1.962-0.268,2.411c0.495,0.598,3.382,7.71,3.382,9.787
	c-0.013,0.505,2.223-0.139,0.202-2.16c2.395-1.341,1.922,4.281,2.084,4.334c-2.154-0.727-0.766-0.149-0.601,2.623
	c0.109,1.622-0.426,0.846,0.908,1.159c2.121,0.466,0,1.886,0.806,3.026c1.582,2.302,4.027,4.41,5.705,6.203
	C215.995,370.361,220.665,369.902,223.909,370.586C224.375,370.662,223.311,370.46,223.909,370.586z M232.838,147.145
	c-0.756,0.674-1.569,0.803-2.421,1.054C231.014,147.288,231.929,147.426,232.838,147.145z M225.716,146.528
	c0.555-0.073,0.991,0.076,1.282,0.472c0.007,0.211-2.913,0.344-3.366,1.097C224.012,146.812,225.079,147.033,225.716,146.528
	C226,146.911,225.079,147.033,225.716,146.528z M218.535,151.605C219.156,151.757,217.63,151.466,218.535,151.605
	C218.555,151.611,218.356,151.585,218.535,151.605z M214.594,144.09c0.264-0.297,0.479-0.251,0.614,0.152
	C214.921,144.543,214.716,144.503,214.594,144.09C214.614,143.925,214.554,144.272,214.594,144.09z M210.653,155.813
	C209.56,155.734,211.829,155.849,210.653,155.813C210.511,155.813,210.832,155.826,210.653,155.813z M211.829,151.268
	c-3.809,3.567-0.842,0.043-1.962,1.15c0.033,0.059,0,0.112-0.05,0.119C209.51,152.193,211.75,151.298,211.829,151.268
	C211.34,151.737,211.169,151.387,211.829,151.268z M210.435,147.043c-0.707,0.803-0.707,0.803-1.662,0.621
	C209.276,147.324,209.956,147.446,210.435,147.043z M227.463,133.586c-0.244,0.013-0.489,0.013-0.889,0.013
	C227.8,132.575,227.592,133.586,227.463,133.586C227.219,133.599,227.639,133.586,227.463,133.586z M230.222,131.756
	c-0.416,0.479-1.017,0.192-1.543,0.426C229.231,131.115,229.33,131.098,230.222,131.756z M214.769,133.008
	c0.324-0.291,0.714-0.433,1.146-0.4C216.279,133.15,213.58,133.45,214.769,133.008C214.921,132.724,214.634,133.067,214.769,133.008
	z M214.085,132.231c0.439,0.201,0.4,0.39-0.122,0.614C213.587,132.621,213.649,132.433,214.085,132.231
	C214.241,132.231,213.867,132.258,214.085,132.231z M194.104,166.331c0.03-0.02-5.992,2.408-5.53,0.912
	c-0.152,0.482,2.058-1.704,1.595-1.493c0.489-0.215,4.519-0.466,5.698-0.449C195.247,165.914,194.679,166.129,194.104,166.331
	C192.766,166.836,194.679,166.129,194.104,166.331z M198.897,163.364c4.975,0.482-2.953,1.985-3.792,1.1
	C196.228,163.49,197.536,163.206,198.897,163.364C199.294,163.404,197.536,163.206,198.897,163.364z M198.085,132.506
	c1.325-0.849,2.748-1.486,4.482-1.866c-1.272,1.034-2.973,1.477-4.522,1.903L198.085,132.506z M198.355,159.321
	c-0.211,0.211-0.439,0.208-0.641-0.007C198.025,159.206,198.309,159.11,198.355,159.321
	C198.458,159.529,198.309,159.11,198.355,159.321z M196.902,162.291C196.793,162.291,196.406,162.188,196.902,162.291
	C196.928,162.291,196.743,162.251,196.902,162.291z M195.442,159.761c1.787,0.839,0.763,3.64-0.776,1.457
	c-0.066,1.298-2.312,3.492-3.534,3.759c0.469-0.512,0.621-1.08,0.476-1.701c-0.39-0.304-1.143,0.571-1.562,0.548
	c0.178,0.786,3.247-5.259,0.667-3.511c-0.941,0.727-7.142,7.32-7.502,6.95c-0.581-0.581,2.748-5.434,2.989-5.612
	C188.314,159.896,192.766,158.502,195.442,159.761z M191.983,136.701c0.251-0.145,2.249-1.364,2.494-1.074
	c0.638,0.789-3.194,1.767-3.386,1.787C191.316,136.935,191.696,136.872,191.983,136.701
	C192.69,136.304,191.696,136.872,191.983,136.701z M192.403,152.877c-0.007,0.096-0.793,1.605-1.275,1.014
	C190.748,153.471,192.268,152.193,192.403,152.877C192.35,153.283,192.367,152.695,192.403,152.877z M188.046,140.39
	c0.231,0,3.452-2.015,3.558-1.189C191.64,139.436,187.689,140.453,188.046,140.39z M187.161,143.704
	c-0.205,0.367-0.383,0.558-0.836,0.552C186.494,143.869,186.778,143.832,187.161,143.704z M184.918,151.466
	c0.443-0.337,1.49-2.028,0.984-2.686c0.277,0.36-1.936-0.244-0.912-0.624c0.41-0.132,2.927-1.51,3.323-1.093
	c0.74,0.756-3.135,4.81-3.914,5.153C184.479,151.81,184.703,151.625,184.918,151.466
	C185.555,150.994,184.703,151.625,184.918,151.466z M187.115,156.58c2.775-0.885,3.792-2.451,5.45-0.33
	c0.638,0.786,0.515,2.831-0.965,2.342c0.396,0.142-4.512-0.324-3.604-0.856c-0.981,0.601-2.9,1.044-4.053,0.532
	C185.02,157.66,185.968,156.969,187.115,156.58C187.812,156.368,185.968,156.969,187.115,156.58z M183.253,151.433
	c0.264,0.657,0.069,0.984-0.697,1.103C182.853,152.09,183.061,151.744,183.253,151.433z M143.902,211.261
	C142.627,211.212,144.883,211.212,143.902,211.261C143.753,211.255,144.027,211.255,143.902,211.261z M159.774,222.664
	C159.427,222.793,160.775,222.429,159.774,222.664C159.718,222.684,159.955,222.641,159.774,222.664z M198.537,235.474
	C197.87,235.371,199.32,235.537,198.537,235.474C198.478,235.474,198.646,235.494,198.537,235.474z M204.883,349.075
	C203.793,348.89,205.477,348.219,204.883,349.075C204.622,349.045,204.896,349.045,204.883,349.075z M207.697,292.253
	C207.31,291.85,207.948,292.468,207.697,292.253C207.657,292.2,207.793,292.309,207.697,292.253z M208.153,327.647
	C207.439,327.898,208.906,327.376,208.153,327.647C207.968,327.713,208.249,327.611,208.153,327.647z M211.882,365.812
	c-0.492-0.291-0.492-0.466-0.023-0.562C212.407,365.475,212.414,365.667,211.882,365.812
	C211.671,365.779,212.057,365.845,211.882,365.812z M216.827,367.963c-0.509-0.089-0.472-0.304,0.155-0.591
	C217.408,367.55,217.362,367.755,216.827,367.963C216.606,367.963,216.956,367.92,216.827,367.963z M206.353,353.871
	c-0.053,0.033-0.119,0.046-0.178,0.066C206.346,353.815,206.382,353.785,206.353,353.871z M218.627,125.721c0,0-0.007,0-0.013,0
	c0.007,0,0.007-0.013,0.007-0.013L218.627,125.721z M172.065,147.8c0,0.02-0.013,0.02-0.013,0.02L172.065,147.8z M173.357,146.723
	L173.357,146.723L173.357,146.723z M390.834,231.414l0.017,0.013c-2.679-9.867-4.681-19.631-8.77-29.214
	c-4.869-11.366-11.238-22.079-18.957-31.724c-7.277-9.117-15.71-17.289-25.045-24.269c-4.549-3.402-9.275-6.507-14.224-9.318
	c-2.349-1.361-4.75-2.636-7.191-3.852c-1.064-0.495-4.8-1.477-5.358-2.388c0.03,0.416,2.17,1.496,2.468,1.78
	c-1.447-0.38-5.298-2.002-5.341-2.253c0.083-0.168,0.4,0,0.35-0.284c-2.157-1.381-10.25-4.364-11.868-2.154
	c0.353-0.436,5.579,5.606,5.711,6.682c0.353,2.359,4.033,4.852,6.382,5.619c3.264,1.09,0.813-0.38,2.177-1.14
	c0.912-0.443,1.728,1.493,2.557,1.047c-0.02-0.02,0-0.04,0.033-0.059c-0.231-0.456-0.495-0.895-0.76-1.341
	c-0.231,0,5.923,6.342,6.696,4.961c-0.737-1.721-1.827-3.67-3.587-5.288c-1.536-1.447-3.974-1.572-5.642-3.032
	c-0.849-0.733-3.977-3.029-4.314-4.079c4.136,0.135,8.902,8.882,13.044,5.493c-0.575-0.39-1.14-0.819-1.678-1.268
	c0.766,0.211,4.222,1.328,3.072,2.781c-3.31-0.585,2.781,2.775,2.88,3.148c-0.604-0.046-1.011-0.525-1.576-0.568
	c0.241,1.15,3.495,2.329,3.729,4.284c-1.949,0.311-1.107-1.179-2.395,0.413c-0.41,0.509-2.164,0.353-3.118,0.423
	c-2.269,0.178-4.806-3.667-6.451-4.849c0.694,2.14,1.883,3.181,4.274,4.691c1.153,0.657-1.625,0.948-1.589,1.916
	c0.083,0,0.766,0.344,0.737,0.522c0,0.122-0.628-0.433-0.737-0.522c0.228-0.149-0.396,3.776-0.453,3.716
	c1.873,2.16-2.491,1.529-2.573,1.605c0.344,0.499,1.031,0.756,1.173,1.46c-1.252,0.073-2.283-0.112-3.511,0.34
	c1.78,0.519,11.621,5.064,9.464,8.489c-0.694,1.11-7.34-0.277-8.588-0.33c-2.567-0.175-0.168,2.461-0.102,2.765
	c0.413,1.959,1.922,2.811,1.794,5.107c-0.122,1.612,1.539,1.671,2.045,3.026c0.453,1.186,0.188,1.292,1.42,1.47
	c2.193,0.277,2.253-0.066,4.109,1.374c1.305,1.027,1.807-0.951,3.369-1.021c3.911-0.162,0.585-0.951,2.448-1.477
	c2.302-0.638-0.641-4.258-0.505-4.961c0.182-0.948-0.142-2.015,1.126-2.368c1.972-0.525-0.519-2.58-0.654-3.122
	c-0.393-1.628,5.437,1.384,4.737-2.732c3.359,1.054,6.811,4.086,9.913,5.827c1.82,1.103,3.634,2.154,4.985,3.885
	c1.576,2.061-2.283,1.229-2.53,1.817c-0.235,0.651,3.402,2.292,3.994,2.263c0.083-0.36-0.446-2.474-0.499-2.821
	c-0.168-1.457-2.276-2.9-2.127-4.063c0.657,0.069,1.265,0.34,1.797,0.75c-1.972-2.418-5.153-2.656-7.386-4.44
	c-1.344-1.103-3.042-1.998-4.364-3.135c-0.007-0.013-2.372-3.026-0.72-2.451c2.623,0.908,5.467,3.561,8.139,4.948
	c2.117,1.11,2.646,1.79,4.202,3.614c0.621,0.714,3.878,4.506,4.605,4.625c-0.033-0.04,2.659,2.375,3.743,2.735
	c-0.482-1.09-0.895-2.477-1.457-3.349c-0.743-1.192-3.786-1.87-3.786-3.647c0.7,0.053,0.776-0.667,2.253-0.618
	c-0.78-0.033,0.961-1.159,0.865-0.998c-2.851-1.619-6.666-6.369-7.71-9.579c0.78,0.046,1.212,1.077,2.074,0.542
	c-0.291-0.542-0.357-1.11-0.291-1.704c0.221,0.244,2.913,2.56,2.378,3.013c-0.763-0.02-1.381-0.344-1.936-0.928
	c0.393,1.351,1.734,1.374,2.289,2.309c0.053-0.367-0.201-0.684,0.129-1.093c2.339,0.984,7.135,4.714,7.776,7.346
	c-1.031,0.102-3.009-2.088-3.696-1.556c-0.221,0.535-0.198,1.057,0.099,1.572c-0.304,0.02-0.581,0.086-0.859,0.241
	c0.38,0.291,0.581,0.69,0.644,1.169c-0.38,0.119-0.756,0.228-1.156,0.337c0.314,1.321,7.27,7.954,7.769,7.28
	c0.135-0.235-0.291-0.905-0.195-1.014c0.367-0.416,1.463,1.5,2.051,1.123c0.453-0.294-0.469-0.898,0.04-1.156
	c1.054-0.538,5.213,7.627,5.741,8.585c1.998,3.782,0.674,1.48-0.849,2.005c-0.228,0.393-0.386,0.789-0.436,1.245
	c-2.418-0.558-5.084-1.962-7.049-3.373c-3.161-2.266,0.998,6.174-0.809,5.117c-1.07-0.611-1.711-1.51-3.029-1.619
	c-1.913-0.188-2.448-2.24-4.205-2.821c-1.44-0.486-7.112-0.991-6.379-3.597c0.595-2.22-2.25-4.06-3.207-4.912
	c-0.482-0.436-6.782,0.377-7.789,0.694c-1.734,0.552-4.473,1.123-5.45,2.732c-1.658,3.019-5.497-0.951-7.052-0.324
	c-0.809,0.317-0.023,2.804-0.449,3.584c-0.621,1.186-2.164,1.272-2.547,2.669c-0.671,2.577,1.285,4.687,0.383,7.049
	c-0.71,1.876-4.337,2.689-4.39,4.238c-0.02,0.819-0.182,1.738-0.948,2.174c-1.655,0.955,0.033,3.122-0.981,4.198
	c-5.592,5.682,1.787,11.234,0.529,17.471c-0.727,3.525-1.14,4.255,0.377,7.287c0.357,0.763,0.089,6.25,2.874,4.03
	c0.337,3.201,4.459,3.855,5.193,6.891c0.872,3.61,4.413,5.193,7.145,7.35c1.1,0.852,2.041,1.969,3.323,2.613
	c2.256,1.159,3.762-0.618,5.923-1.226c1.959-0.555,3.984-0.36,5.824,0.512c1.044,0.499,8.905-5.067,11.046-4.01
	c1.562,0.78,1.638,2.679,2.355,4.04c1.034,1.922,3.207-0.595,4.648,0.066c2.577,1.146,3.346,10.567,1.166,12.305
	c-1.635,1.209,2.104,6.355,2.606,7.409c1.483,2.917,2.811,8,2.349,11.228c-0.367,2.613,0.347,6.755-1.14,9.061
	c-1.5,2.319-2.365,4.757-3.564,7.386c-3.102,6.719-0.135,14.333-2.801,21.316c-1.619,3.567-1.325,7.383-2.2,11.119
	c-0.581,2.408-3.491,5.886-2.349,8.397c1.737-1.582,4.354-1.377,6.316-2.365c4.07-2.002,6.002-6.676,8.942-9.807
	c1.582-1.652,2.56-3.729,3.492-5.764c0.892-1.939,2.679-3.181,3.518-5.074c2.068-4.786,3.937-9.566,6.009-14.343
	c4.344-10.342,5.061-20.259,6.573-31.321C393.008,254.249,393.044,243.117,390.834,231.414z M380.499,204.186
	c-0.558-1.381-7.855-12.087-7.003-12.678c0.978-0.614,16.582,27.02,14.891,31.308C385.995,216.513,383.161,210.386,380.499,204.186
	C380.469,204.123,381.027,205.451,380.499,204.186z M387.191,253.09c-0.294-0.76,0.106-1.427,0.32-2.325
	C387.838,251.712,387.32,252.37,387.191,253.09z M386.382,257.44c-0.04-0.482-0.046-0.852,0.244-1.186
	C386.844,256.707,386.639,257.034,386.382,257.44z M383.765,292.917c-0.261,0.092-0.552,0.195-0.836,0.287
	c-0.495,0,0.925-0.68,1.004-0.737C383.848,292.715,383.848,292.818,383.765,292.917
	C383.574,293.217,383.848,292.818,383.765,292.917z M384.159,278.498c-0.013-1.305,0.059-1.368,1.374-2.203
	C385.265,277.207,384.33,277.639,384.159,278.498z M385.645,271.789c-0.033-2.405-0.083-5.232,0.436-7.571
	c0.089,4.079,0.301,8.209,0.162,12.298C385.595,275.657,385.645,272.827,385.645,271.789
	C385.635,270.917,385.645,272.622,385.645,271.789z M387.789,279.466c-0.046,2.203-0.347,8.182-1.794,9.887
	c0.135-3.713,1.506-7.082,1.576-10.759C387.878,278.938,387.789,279.208,387.789,279.466
	C387.789,279.711,387.789,279.208,387.789,279.466z M389.506,257.067c-0.628,2.623-0.017,3.442-1.569,4.905
	c-0.02-1.962-0.733-5.691,1.278-6.851C389.467,255.765,389.708,256.284,389.506,257.067
	C389.246,258.141,389.708,256.284,389.506,257.067z M303.451,384.38c0.215,0.386-17.22,5.308-19.013,5.698
	c-7.251,1.523-14.607,2.471-22.026,2.837c-14.082,0.697-28.807-0.601-42.341-4.71c1.741,0.188,3.838,1.097,5.619,0.813
	c-1.698-1.047-3.782-0.69-5.285-2.005c5.645,0.922,11.039,0.482,16.206,1.156c-0.538-0.717-5.259-1.85-5.232-2.342
	c0.671-0.066,4.311-0.175,4.449-0.277c1.721-1.328-2.712-1.169-2.325-2.131c0.132-0.244,1.348,0.168,1.774-0.39
	c0.674-0.912,0-1.364,0.254-1.83c0.201-0.393,7.023-1.586,7.746-1.259c-0.793,0.472-1.734-0.086-1.374,1.245
	c-0.707-0.092-2.821-0.033-2.943,0.892c0.053-0.218,2.312,2.937,2.398,3.085c0.776,1.229,3.521,1.985,3.749,3.458
	c0.456,2.481,13.434,2.236,15.38,2.018c4.849-0.555,9.391-2.279,14.161-3.115c2.847-0.499,5.675-1.305,8.559-1.582
	c1.335-0.135,5.804-1.698,6.818-1.331C290.694,386.923,301.053,383.911,303.451,384.38
	C303.477,384.426,303.064,384.304,303.451,384.38z M382.411,308.71c0.558-1.407,1.011-2.864,1.698-4.225
	C383.67,305.955,383.045,307.316,382.411,308.71z M384.684,303.028c0.066-0.168,0.142-0.35,0.208-0.515
	C384.902,302.727,384.766,302.866,384.684,303.028z M234.76,123.57c-0.73-0.112-1.516-0.023-2.289-0.145
	c0.406-0.367,2.715-0.453,1.691-1.083c3.178-1.946,9.781-2.339,13.421-1.903c4.083,0.505,8.169-0.756,12.182-0.122
	c1.628,0.264,3.046,0.304,4.658,0.4c1.407,0.175-0.201,1.625,1.407,1.86c0.965,0.112,2.854,2.269,3.723,1.804
	c-0.046,1.496-0.717,0.462-0.244,1.86c0.109,0.32,1.79,1.262,1.721,1.387c-0.162,0.218-4.717-0.109-4.502-0.05
	c-0.36-0.063,0.073,0.7,0.363,0.588c0.912,0.235,2.887-0.063,3.871,0.013c-2.292,2.081-5.734,1.837-8.288,3.495
	c-1.562,1.034-3.911,0.935-5.619,1.562c0,1.747-1.325,3.878-2.487,5.688c-0.816,1.252-6.623-1.638-7.211-2.378
	c-1.268-1.519-4.155-5.497-1.027-6.742c3.799-1.51,0.02-0.277-1.093-1.09c0.898-1.278,1.903-0.839,3.359-0.638
	c-0.737-1.017-1.662-1.272-2.761-0.74c-0.357-1.093,1.576-2.081-0.122-3.24c-0.743-0.512-4.753,0.083-4.866-0.621
	c-0.251-1.741,4.879-0.816,5.774-2.249C242.592,120.409,238.49,124.145,234.76,123.57
	C234.034,123.458,235.437,123.676,234.76,123.57z M306.926,149.715c0.621-0.066-0.776-2.031-1.143-2.428
	c0.423,0.04,0.789,0.086,1.209-0.175c-0.304-0.892-4.324-3.198-4.588-3.036c-1.516,0.948-3.406-3.27-3.594-3.852
	c2.577-0.344,4.182,2.408,6.507,3.554c1.989,0.961,9.153,4.36,9.351,6.524c0.168,1.083-5.414,0.624-6.24,1.906
	c-0.624-1.582,1.401-1.566,1.354-2.065C309.704,149.781,307.216,149.679,306.926,149.715
	C306.78,149.742,307.788,149.587,306.926,149.715z M233.898,151.737c-0.393,0.268-5.249,4.859-5.127,5.302
	c0.099,0.413,5.031,0.122,5.893,0.601c-0.066,0.555-0.733,0.271-0.849,0.763c0.651,0,2.643-1.242,2.96-0.875
	c0.053,0.314,0,0.621-0.162,0.905c2.2,2.147,1.975-2.53,2.098-2.761c-1.536-0.221,0.33-2.372-2.266-1.453
	c0.168-0.069-2.804-0.892-2.643-0.717c-0.235-0.218,2.104-2.273,2.283-2.53C234.717,150.63,234.536,151.232,233.898,151.737
	C233.066,152.335,234.06,151.585,233.898,151.737z M238.678,156.807C238.866,156.979,238.334,156.979,238.678,156.807
	C238.711,156.837,238.605,156.831,238.678,156.807z M237.571,156.698c0.145-0.172,0.965-0.515,0.462-0.04
	C237.855,156.969,237.135,157.194,237.571,156.698C237.627,156.626,237.485,156.807,237.571,156.698z M234.149,151.096l0.013-0.007
	c0,0.007,0,0.033,0.026,0.059C234.162,151.123,234.162,151.123,234.149,151.096z M229.776,155.496c0.129,0,0.228,0,0.34,0.096
	C229.99,155.595,229.452,155.572,229.776,155.496C229.905,155.496,229.677,155.513,229.776,155.496z M182.199,212.675
	c-1.331,0.145,0.869-1.041,0.684-1.473c-0.908-2.081-7.115-2.543-7.697-4.198c0.274-0.116,0.459-0.301,0.538-0.562
	c-2.131-0.879-3.217,1.728-5.146,1.559c4-6.772,13.913,0.984,17.904,4.109C186.388,212.364,184.29,212.384,182.199,212.675
	C182.037,212.688,183.349,212.516,182.199,212.675z M187.375,216.285c-0.994-0.433,3.287-0.393,3.871-0.621
	c-0.852-1.308-0.076-2.015-1.734-2.527c1.51-1.827,6.488,0.311,8.07,1.001c-0.129,0.231-0.436,0.023-0.588,0.314
	c0.122,0.096,3.412,2.821,1.192,1.899c-2.415-1.031-3.762,0.413-5.477,1.364C191.369,215.8,189.163,217.131,187.375,216.285
	C187.174,216.203,187.782,216.48,187.375,216.285z M303.434,146.941c2.335,2.411-1.268,4.264-2.907,2.725
	c-0.796-0.823-0.327-2.778-2.183-3.346c0.492-0.162,0.998-0.317,1.483-0.486C298.569,142.858,302.853,146.323,303.434,146.941
	C303.96,147.489,303.279,146.759,303.434,146.941z M273.091,132.294c-0.135-0.486,3.349-0.268,3.928-0.37
	c0.932-0.168,7.885,0.522,5.444,1.645c-1.896,0.852-4.671,1.823-6.471,0.182C275.542,133.361,273.117,132.397,273.091,132.294
	C272.995,131.961,273.22,132.757,273.091,132.294z M336.562,166.74c0.806,0,2.788,3.125,2.444,3.624
	c-0.922,1.477-2.474-2.259-3.445-2.828C335.902,167.295,336.239,167.034,336.562,166.74z M228.091,124.525
	c2.355-1.784,2.904-0.773,5.857-0.479C233.006,124.911,230.737,125.09,228.091,124.525
	C228.738,124.033,230.737,125.09,228.091,124.525z M280.408,122.49c-1.747-0.489-3.581-0.571-5.285-1.242
	c2.045-0.218,4.496,0.565,5.909,0.965C281.521,122.365,280.285,122.441,280.408,122.49
	C278.657,122.001,280.579,122.523,280.408,122.49z M275.122,121.248c-0.168,0.036-0.38,0.05-0.565,0.069
	C274.743,121.123,274.947,121.103,275.122,121.248C274.954,121.285,275.046,121.225,275.122,121.248z M182.741,216.401
	c0.39,0.033,0.588,0.231,0.664,0.595c-0.238,0.988-3.33-0.406-3.663-0.849C180.819,215.535,181.806,215.889,182.741,216.401z
	 M204.826,216.328C203.205,220.309,199.089,213.537,204.826,216.328C204.572,216.896,203.852,215.853,204.826,216.328z
	 M211.188,235.708L211.188,235.708c0.046-0.109,0.142-0.162,0.304-0.175C211.387,235.599,211.317,235.639,211.188,235.708z
	 M211.75,235.599c-0.076-0.033,0.439-1.638,1.483-1.718C214.465,234.658,212.361,235.672,211.75,235.599
	C211.664,235.566,213.104,235.761,211.75,235.599z M224.725,123.676c-1.093,0.73-2.408,0.238-3.538,0.657
	C222.77,123.257,223.476,123.342,224.725,123.676C223.632,124.406,224.53,123.62,224.725,123.676z M183.531,204.044
	c-0.429-1.628-1.047-1.665,0.046-3.092C184,202.478,184,203.399,183.531,204.044C183.349,203.38,184,203.399,183.531,204.044z
	 M153.815,260.737c-0.033,0.595-0.317,0.823-0.882,0.614c-0.195-0.162-0.297-2.15,0.066-2.56
	C153.263,259.432,153.56,260.06,153.815,260.737C153.93,261.004,153.56,260.06,153.815,260.737z M222.515,153.517
	c1.278-0.033,2.309,0.36,3.432,1.199C224.438,155.01,223.476,154.426,222.515,153.517z M336.04,166.185l0.017,0.017
	c-0.373-0.122-2.6-1.477-1.701-2.2C335.016,163.529,335.948,165.947,336.04,166.185z M359.044,177.634
	c-0.423-0.459-1.315-0.149-1.562-1.047c0.77,0.406,1.625,0.202,2.372,0.786C359.586,177.588,359.302,177.862,359.044,177.634
	C358.621,177.178,359.302,177.862,359.044,177.634z M226.671,124.429c-0.231-0.32-0.621-0.106-0.846-0.396
	c0.628-0.697,1.503-0.462,2.273-0.671C228.058,123.458,227.143,125.136,226.671,124.429
	C226.439,124.109,226.783,124.644,226.671,124.429z M222.816,125.285c-1.004,0.756-2.055,1.516-3.472,1.384
	C220.289,125.675,221.577,125.536,222.816,125.285z M222.472,159.212c0.277,0.056,0.565-0.013,1.007-0.053
	c-1.348,1.645-2.917-0.657-2.586-0.753C220.652,158.472,222.38,159.206,222.472,159.212
	C222.75,159.268,221.937,159.13,222.472,159.212z M223.037,125.939c0.938-0.756,2.041-0.889,3.217-0.803
	C225.244,125.721,224.22,126.041,223.037,125.939z M330.29,170.03c-1.067-0.152,2.028-1.14,0.912,0.294
	C330.874,170.298,330.567,170.199,330.29,170.03C330.128,170.007,330.646,170.05,330.29,170.03z M364.534,177.849
	c-0.651-0.311-0.902-0.747-0.723-1.51C364.356,176.736,364.587,177.169,364.534,177.849z M225.382,130.917
	c0.39-0.697,0.816-0.879,2.157-0.862C226.875,130.814,226.155,130.95,225.382,130.917z M215.479,135.508
	c-0.77,0.426-1.361,0.737-2.203,0.677C213.867,135.508,214.554,135.535,215.479,135.508z M297.766,141.16
	c-0.159,0.297-0.007,0.505,0.208,0.723c-0.235-0.109-1.189-1.311-0.462-1.493C297.849,140.549,297.938,140.787,297.766,141.16
	C297.607,141.457,297.882,140.988,297.766,141.16z M173.786,208.305c-0.04,0.479-0.274,0.707-0.704,0.697
	C172.864,208.592,173.571,207.459,173.786,208.305C173.845,208.582,173.727,208.13,173.786,208.305z M219.935,350.664
	c0.353,0.129,0.562,0.413,0.608,0.799C220.543,352.666,218.386,350.813,219.935,350.664
	C220.16,350.637,219.589,350.69,219.935,350.664z M216.827,136.218c-0.264,0.393-0.618,0.595-1.199,0.786
	C215.925,136.364,216.341,136.255,216.827,136.218z M154.812,260.519C154.71,261.896,154.419,259.198,154.812,260.519
	C154.806,260.7,154.773,260.373,154.812,260.519z M225.98,138.501c0.033-0.023,0.116,0.017,0.168,0.043
	C225.98,138.64,225.69,138.64,225.98,138.501z M219.849,125.433c-0.152,0.026-0.32,0.04-0.476,0.059
	C219.509,125.381,219.688,125.371,219.849,125.433z M219.314,125.523c-0.112,0,0.033-0.033,0.063-0.033
	C219.344,125.496,219.321,125.496,219.314,125.523z M218.637,125.708l-0.013,0.013C218.621,125.708,218.627,125.708,218.637,125.708
	z M218.637,125.708c0.168-0.215,0.406-0.172,0.634-0.185C219.096,125.754,218.905,125.787,218.637,125.708z M223.007,125.939h0.03
	C223.03,125.962,223.007,125.975,223.007,125.939z M223.007,125.962c-0.046,0.238-0.235,0.208-0.42,0.208
	C222.664,125.962,222.816,125.929,223.007,125.962z M172.561,266.389C172.253,266.157,172.762,266.557,172.561,266.389
	C172.452,266.29,172.722,266.521,172.561,266.389z M319.181,136.701C320.023,136.935,319.227,136.882,319.181,136.701
	C319.181,136.701,319.214,136.846,319.181,136.701z M297.987,141.91c-0.007-0.007-0.007-0.026-0.017-0.026
	c0.083,0.02,0.099,0.069,0.083,0.182C298.043,141.999,298.017,141.956,297.987,141.91
	C297.981,141.903,298.017,141.956,297.987,141.91z M222.555,126.167c0.02,0,0.02,0,0.033,0c0,0.02-0.013,0.02-0.04,0.007
	C222.548,126.173,222.555,126.173,222.555,126.167z M222.297,126.233c0.083-0.04,0.175-0.04,0.251-0.059
	C222.439,126.358,222.343,126.378,222.297,126.233C222.38,126.193,222.31,126.253,222.297,126.233z M347.189,168.587v-0.007
	l0.017,0.017L347.189,168.587z M238.381,256.978C237.954,256.638,238.691,256.72,238.381,256.978
	C238.334,256.948,238.49,256.892,238.381,256.978z M303.547,384.347c-0.036,0.026-0.053,0.026-0.092,0.026
	c0.026-0.069,0.043-0.112,0.092-0.083C303.547,384.291,303.547,384.34,303.547,384.347z M303.451,384.38
	c0-0.007-0.017-0.007,0-0.007V384.38z M193.942,159.922c0.076-0.02,1.354-0.155,0.902,0.344
	C194.355,160.524,194.065,160.395,193.942,159.922C194.104,159.903,193.959,160.2,193.942,159.922z M185.955,148.781
	c-0.367-0.244-0.284-0.489,0.225-0.756C186.626,148.179,186.543,148.447,185.955,148.781
	C185.767,148.764,186.229,148.691,185.955,148.781z"/>
<path style="fill:#242D3C;" d="M335.561,167.533c0.344-0.235,0.677-0.495,1.001-0.793c0.806,0,2.788,3.125,2.444,3.624
	C338.085,171.837,336.533,168.104,335.561,167.533z M334.359,163.999c-0.898,0.723,1.325,2.078,1.701,2.2l-0.017-0.017
	C335.948,165.947,335.016,163.529,334.359,163.999z M223.909,370.586c-3.244-0.684-7.915-0.225-10.653-3.102
	c-1.678-1.794-4.122-3.901-5.705-6.203c-0.806-1.14,1.311-2.56-0.806-3.026c-1.334-0.314-0.799,0.466-0.908-1.159
	c-0.168-2.771-1.556-3.349,0.601-2.623c-0.162-0.053,0.311-5.675-2.084-4.334c2.022,2.022-0.211,2.669-0.201,2.16
	c0-1.698-1.942-6.775-2.917-8.889c6.085,0.915,12.305,1.394,18.624,1.394c0.423,0,0.789-0.026,1.212-0.033
	c-0.139,0.007-0.238,0.013-0.334,0.013c-0.116,0.806,1.285,2.745,0.981,3.465c-0.78,1.995-3.918-0.704-4.644,0.05
	c-0.581,0.641,1.84,3.64,2.197,3.785c-0.228,0.469-0.862,3.419-0.978,3.419c-1.219-0.165-2.431,1.49-1.15,2.418
	c0.925,0.638,1.906,0.542,2.788,1.057c1.876,1.09-1.592,2.299-0.892,3.577c1.034,1.85-2.438,0.935,0.816,3.871
	c-4.707,0.155-0.02,2.692-0.02,2.702c-0.552-0.344-0.334-0.099,0.178-0.856c-0.37-0.264-1.156,0.202-1.394-0.317
	c-0.895-2.117,3.343,0.459,3.227,0.406c1.295,0.783,3.501,0.872,4.512,1.704c-0.416,0.112-1.86,0.614-2.434,0.515
	C223.787,370.556,223.559,370.51,223.909,370.586z M204.826,349.055c-0.066-0.003-0.086,0,0.059,0.02
	C205.457,348.246,203.921,348.854,204.826,349.055z M211.859,365.251c-0.472,0.096-0.472,0.271,0.023,0.562
	c-0.208-0.033,0.178,0.033,0,0C212.414,365.667,212.407,365.475,211.859,365.251z M216.982,367.372
	c-0.595,0.281-0.651,0.476-0.201,0.585c-0.033,0-0.046,0.007,0.046,0.007C217.362,367.755,217.408,367.55,216.982,367.372z
	 M216.781,367.956c0.007,0,0.013,0.007,0.046,0.007C216.903,367.936,216.827,367.936,216.781,367.956z M206.174,353.934
	c0.059-0.02,0.126-0.033,0.178-0.066C206.382,353.785,206.346,353.815,206.174,353.934z M223.929,370.586c0,0-0.007,0-0.02,0
	C224.084,370.615,224.031,370.605,223.929,370.586z M312.987,136.588c2.018,2.266,3.954,4.595,5.814,6.996
	c0.426,0.192,0.763,0.205,0.908-0.056c-0.737-1.721-1.827-3.67-3.587-5.288C315.27,137.427,314.114,137.028,312.987,136.588z
	 M319.181,136.701C319.227,136.882,320.023,136.935,319.181,136.701L319.181,136.701z M359.064,177.634h-0.02
	C359.123,177.704,359.11,177.671,359.064,177.634z M387.789,279.466c0-0.007,0-0.02,0-0.026
	C387.789,279.393,387.789,279.357,387.789,279.466z M386.53,215.07c0.69,2.425,1.331,4.849,1.962,7.284
	C388.651,220.963,387.838,218.294,386.53,215.07z M389.473,257.173c0.017-0.04,0.017-0.069,0.033-0.106
	C389.374,257.609,389.43,257.404,389.473,257.173z M363.814,176.339c-0.182,0.763,0.069,1.199,0.723,1.51
	C364.587,177.169,364.356,176.736,363.814,176.339z M347.189,168.58v0.007l0.017,0.01L347.189,168.58z M359.853,177.373
	c-0.747-0.588-1.599-0.38-2.372-0.786c0.244,0.898,1.14,0.591,1.562,1.047c-0.311-0.32-0.076-0.096,0.02,0
	C359.315,177.849,359.592,177.588,359.853,177.373z M391.399,265.986c-1.513,11.066-2.23,20.982-6.573,31.321
	c-2.071,4.776-3.941,9.556-6.009,14.343c-0.842,1.893-2.629,3.135-3.518,5.074c-0.928,2.035-1.909,4.113-3.492,5.764
	c-2.94,3.128-4.872,7.802-8.942,9.807c-1.962,0.988-4.578,0.78-6.316,2.365c-1.143-2.51,1.767-5.989,2.349-8.397
	c0.875-3.736,0.581-7.551,2.2-11.119c2.666-6.983-0.304-14.597,2.801-21.316c1.199-2.629,2.065-5.067,3.564-7.386
	c1.486-2.306,0.77-6.448,1.14-9.061c0.462-3.231-0.865-8.314-2.349-11.228c-0.502-1.054-4.241-6.2-2.606-7.409
	c2.18-1.734,1.414-11.158-1.166-12.305c-1.444-0.657-3.617,1.86-4.648-0.066c-0.717-1.361-0.793-3.257-2.355-4.04
	c-2.137-1.057-9.999,4.509-11.046,4.01c-0.737-0.347-1.51-0.555-2.296-0.674c1.767-8.327,2.689-16.962,2.689-25.795
	c0-15.922-3.003-31.103-8.417-45.102c2.216-0.334,5.705-0.69,6.061-0.37c0.958,0.856,3.799,2.692,3.207,4.912
	c-0.737,2.606,4.938,3.108,6.379,3.597c1.757,0.585,2.292,2.636,4.205,2.821c1.318,0.109,1.959,1.011,3.029,1.619
	c1.807,1.057-2.352-7.379,0.809-5.117c1.965,1.414,4.628,2.818,7.049,3.373c0.05-0.456,0.208-0.852,0.436-1.245
	c1.523-0.525,2.847,1.774,0.849-2.005c-0.529-0.958-4.687-9.124-5.741-8.585c-0.505,0.254,0.413,0.862-0.04,1.156
	c-0.588,0.377-1.685-1.539-2.051-1.123c-0.096,0.106,0.33,0.776,0.195,1.014c-0.496,0.674-7.455-5.959-7.769-7.28
	c0.4-0.106,0.773-0.215,1.156-0.337c-0.066-0.479-0.264-0.879-0.644-1.169c0.277-0.155,0.555-0.221,0.859-0.241
	c-0.297-0.512-0.324-1.034-0.099-1.572c0.687-0.532,2.669,1.658,3.696,1.556c-0.641-2.633-5.437-6.362-7.776-7.346
	c-0.33,0.41-0.076,0.727-0.129,1.093c-0.555-0.935-1.896-0.958-2.289-2.309c0.555,0.585,1.169,0.908,1.936,0.928
	c0.535-0.453-2.154-2.768-2.378-3.013c-0.069,0.595,0,1.163,0.291,1.704c-0.862,0.535-1.295-0.495-2.074-0.542
	c1.044,3.214,4.859,7.961,7.71,9.579c0.096-0.162-1.645,0.965-0.865,0.998c-1.473-0.053-1.553,0.667-2.253,0.618
	c0,1.774,3.046,2.451,3.785,3.647c0.562,0.872,0.974,2.259,1.457,3.349c-1.083-0.36-3.776-2.775-3.743-2.735
	c-0.727-0.119-3.984-3.914-4.605-4.625c-1.559-1.823-2.088-2.504-4.202-3.614c-2.672-1.387-5.516-4.04-8.139-4.948
	c-1.652-0.575,0.714,2.438,0.72,2.451c1.321,1.136,3.019,2.031,4.364,3.135c2.236,1.784,5.417,2.018,7.386,4.44
	c-0.532-0.41-1.14-0.677-1.797-0.75c-0.152,1.166,1.959,2.606,2.127,4.063c0.056,0.347,0.585,2.461,0.499,2.821
	c-0.591,0.033-4.228-1.609-3.994-2.263c0.244-0.588,4.103,0.244,2.53-1.817c-1.351-1.728-3.164-2.781-4.985-3.885
	c-3.102-1.737-6.554-4.77-9.913-5.827c0.195,1.093-0.096,1.668-0.588,1.979c-3.065-5.999-6.587-11.717-10.567-17.094
	c0.981-0.033,2.395,0.033,2.745-0.41c1.288-1.592,0.446-0.102,2.395-0.413c-0.235-1.956-3.488-3.135-3.729-4.284
	c0.565,0.043,0.971,0.522,1.576,0.568c-0.099-0.373-6.19-3.733-2.88-3.148c1.153-1.45-2.302-2.567-3.072-2.781
	c0.538,0.449,1.103,0.879,1.678,1.268c-3.28,2.676-6.943-2.203-10.362-4.449c-1.387-1.394-2.801-2.771-4.258-4.109
	c1.787,0.608,3.399,1.331,4.192,1.847c0.05,0.284-0.268,0.116-0.35,0.284c0.046,0.248,3.895,1.87,5.341,2.253
	c-0.297-0.284-2.438-1.364-2.468-1.78c0.558,0.908,4.294,1.889,5.358,2.388c2.438,1.216,4.843,2.491,7.191,3.852
	c4.948,2.814,9.675,5.916,14.224,9.318c9.335,6.976,17.768,15.152,25.045,24.269c7.72,9.645,14.092,20.354,18.957,31.724
	c1.804,4.258,3.217,8.549,4.449,12.859c-3.911-9.573-12.321-24.005-13.031-23.562c-0.852,0.591,6.445,11.297,7.003,12.678
	c-0.033-0.066,0.525,1.265,0,0c2.662,6.2,5.497,12.324,7.888,18.63c0.059-0.132,0.089-0.287,0.102-0.462
	c0.78,3.006,1.543,6.045,2.362,9.071l-0.017-0.013C393.044,243.117,393.008,254.249,391.399,265.986z M387.191,253.09
	c0.129-0.72,0.647-1.377,0.32-2.325C387.297,251.666,386.897,252.33,387.191,253.09z M386.382,257.44
	c0.258-0.403,0.466-0.733,0.244-1.186C386.335,256.588,386.342,256.958,386.382,257.44z M383.765,292.917
	c0.083-0.099,0.083-0.202,0.168-0.449c-0.076,0.056-1.5,0.737-1.004,0.737C383.214,293.108,383.505,293.009,383.765,292.917
	C383.574,293.217,383.848,292.818,383.765,292.917z M385.533,276.295c-1.315,0.836-1.387,0.898-1.374,2.203
	C384.33,277.639,385.265,277.207,385.533,276.295z M385.645,271.789c0,1.034-0.05,3.868,0.598,4.727
	c0.139-4.086-0.069-8.215-0.162-12.298C385.562,266.557,385.612,269.388,385.645,271.789
	C385.635,270.917,385.645,272.622,385.645,271.789z M387.571,278.594c-0.069,3.676-1.44,7.046-1.576,10.759
	c1.447-1.708,1.747-7.683,1.794-9.887c0,0.145,0,0.046,0-0.026C387.789,279.192,387.861,278.924,387.571,278.594z M389.506,257.067
	c0.201-0.783-0.04-1.305-0.291-1.946c-2.008,1.163-1.298,4.889-1.278,6.851c1.529-1.444,0.958-2.266,1.536-4.8
	C389.546,256.948,389.602,256.677,389.506,257.067z M220.543,351.463c-0.046-0.386-0.251-0.671-0.608-0.799
	C218.386,350.813,220.543,352.666,220.543,351.463z M303.305,384.367c-2.61-0.353-12.622,2.52-13.282,0.241
	c-1.017-0.363-5.483,1.196-6.818,1.331c-2.884,0.277-5.711,1.08-8.559,1.582c-4.77,0.836-9.312,2.56-14.161,3.115
	c-1.946,0.215-14.927,0.462-15.38-2.018c-0.225-1.473-2.97-2.23-3.749-3.458c-0.083-0.149-2.345-3.303-2.398-3.085
	c0.122-0.922,2.236-0.984,2.943-0.892c-0.36-1.331,0.581-0.773,1.374-1.245c-0.723-0.33-7.545,0.865-7.746,1.259
	c-0.254,0.466,0.419,0.915-0.254,1.83c-0.426,0.558-1.642,0.145-1.774,0.39c-0.386,0.961,4.046,0.799,2.325,2.131
	c-0.139,0.102-3.779,0.211-4.449,0.277c-0.026,0.492,4.694,1.625,5.232,2.342c-5.166-0.671-10.56-0.231-16.206-1.156
	c1.503,1.315,3.587,0.958,5.285,2.005c-1.78,0.284-3.878-0.624-5.619-0.813c13.537,4.109,28.262,5.407,42.341,4.71
	c7.419-0.367,14.775-1.315,22.026-2.837c1.794-0.386,19.228-5.308,19.013-5.698C303.477,384.406,303.355,384.386,303.305,384.367z
	 M303.305,384.367c0.05,0.013,0.116,0.013,0.145,0.013C303.282,384.347,303.282,384.357,303.305,384.367z M219.935,350.664
	C220.16,350.637,219.589,350.69,219.935,350.664L219.935,350.664z M303.451,384.373c0.043,0,0.059,0,0.092-0.026
	c0-0.01,0-0.059,0-0.059C303.494,384.261,303.477,384.304,303.451,384.373z M384.892,302.513c-0.066,0.165-0.142,0.347-0.208,0.515
	C384.766,302.866,384.902,302.727,384.892,302.513z M384.106,304.485c-0.687,1.361-1.14,2.821-1.698,4.225
	C383.045,307.316,383.67,305.955,384.106,304.485z"/>
<path style="fill:#FFFFFF;" d="M68.337,478.419c-8.562,0.003-15.862-2.21-21.124-7.472c-12.569-12.565-8.899-39.487,10.61-77.85
	l5.89,2.993c-17.828,35.06-22.033,59.987-11.829,70.187c12.43,12.433,46.305,3.511,92.933-24.464
	c48.518-29.111,105.505-75.416,160.471-130.385C404.814,211.895,473.408,106.952,464.85,67.32l6.458-1.394
	c9.143,42.321-58.712,147.532-161.349,250.173c-55.336,55.339-112.779,101.997-161.742,131.376
	C122.46,462.934,90.991,478.419,68.337,478.419z"/>
<g>
	<path style="fill:#D9D8D7;" d="M464.804,53.337c-1.969-1.969-4.327-3.567-7.009-4.753l-2.672,6.045
		c1.936,0.856,3.62,1.992,5.011,3.379L464.804,53.337z"/>
	<path style="fill:#D9D8D7;" d="M460.047,101.439c1.572,2.068,3.082,4.185,4.588,6.303c6.478-17.104,8.925-31.381,6.673-41.816
		l-6.458,1.394C466.696,75.878,464.932,87.496,460.047,101.439z"/>
	<path style="fill:#D9D8D7;" d="M442.642,52.584l-0.162-6.606c-4.423,0.109-9.371,0.789-14.713,2.028l1.49,6.438
		C434.166,53.307,438.668,52.68,442.642,52.584z"/>
	<path style="fill:#D9D8D7;" d="M104.772,462.521c-25.815,10.765-44.382,12.268-52.888,3.759
		c-8.298-8.298-7.066-26.333,3.273-51.639c-1.562-1.972-3.138-3.928-4.641-5.949c-12.879,30.089-14.092,51.474-3.303,62.259
		c5.262,5.262,12.562,7.475,21.124,7.472c12.407,0,27.456-4.658,42.76-11.396C108.964,465.55,106.856,464.05,104.772,462.521z"/>
	<path style="fill:#D9D8D7;" d="M414.931,55.388l-1.146-3.224c-0.644,0.228-1.335,0.512-1.995,0.756
		C412.847,53.73,413.891,54.559,414.931,55.388z"/>
</g>
<g>
	<path style="fill:#FFFFFF;" d="M378.963,417.663c-1.15,0-2.246,0.195-3.273,0.552c0.294-1.536,0.462-3.112,0.462-4.734
		c0-13.484-10.927-24.404-24.417-24.404c-13.48,0-24.417,10.927-24.417,24.404c0,0.188,0.017,0.36,0.017,0.535
		c-1.543-0.68-3.247-1.064-5.044-1.064c-6.907,0-12.483,5.586-12.483,12.476c0,6.884,5.589,12.47,12.483,12.47h56.673
		c5.586,0,10.118-4.529,10.118-10.121C389.08,422.199,384.548,417.663,378.963,417.663z"/>
	<path style="fill:#FFFFFF;" d="M54.972,137.827c-0.04-0.671-0.066-1.335-0.066-1.998c0-18.039,14.64-32.672,32.672-32.672
		c17.137,0,31.176,13.186,32.55,29.977c1.695-0.525,3.482-0.809,5.348-0.809c4.79,0,9.14,1.873,12.387,4.922
		c3.587-5.216,9.612-8.645,16.437-8.645c10.584,0,19.248,8.251,19.889,18.69c0.951-0.277,1.949-0.42,2.973-0.42
		c5.976,0,10.805,4.839,10.808,10.808c0,5.972-4.846,10.808-10.808,10.808H56.852c-8.502,0-15.393-6.891-15.393-15.4
		C41.459,145.236,47.362,138.742,54.972,137.827z"/>
</g>
<g>
</g>
<g>
</g>
<g>
</g>
<g>
</g>
<g>
</g>
<g>
</g>
<g>
</g>
<g>
</g>
<g>
</g>
<g>
</g>
<g>
</g>
<g>
</g>
<g>
</g>
<g>
</g>
<g>
</g>
</svg>
