<?xml version="1.0" encoding="iso-8859-1"?>
<!-- Generator: Adobe Illustrator 19.0.0, SVG Export Plug-In . SVG Version: 6.00 Build 0)  -->
<svg version="1.1" id="Layer_1" xmlns="http://www.w3.org/2000/svg" xmlns:xlink="http://www.w3.org/1999/xlink" x="0px" y="0px"
	 viewBox="0 0 508 508" style="enable-background:new 0 0 508 508;" xml:space="preserve">
<circle style="fill:#FFD05B;" cx="254" cy="254" r="254"/>
<path style="fill:#324A5E;" d="M390.1,419.7H117.9c-1.2,0-2.2-1-2.2-2.2v-327c0-1.2,1-2.2,2.2-2.2h272.2c1.2,0,2.2,1,2.2,2.2v327
	C392.3,418.7,391.3,419.7,390.1,419.7z"/>
<rect x="140.3" y="112.9" style="fill:#54C0EB;" width="227.4" height="58"/>
<rect x="140.3" y="188.5" style="fill:#FFD05B;" width="31.7" height="31.7"/>
<g>
	<rect x="189.2" y="188.5" style="fill:#E6E9EE;" width="31.7" height="31.7"/>
	<rect x="238.1" y="188.5" style="fill:#E6E9EE;" width="31.7" height="31.7"/>
	<rect x="287" y="188.5" style="fill:#E6E9EE;" width="31.7" height="31.7"/>
	<rect x="336" y="188.5" style="fill:#E6E9EE;" width="31.7" height="31.7"/>
	<rect x="140.3" y="232.9" style="fill:#E6E9EE;" width="31.7" height="31.7"/>
	<rect x="189.2" y="232.9" style="fill:#E6E9EE;" width="31.7" height="31.7"/>
	<rect x="238.1" y="232.9" style="fill:#E6E9EE;" width="31.7" height="31.7"/>
	<rect x="287" y="232.9" style="fill:#E6E9EE;" width="31.7" height="31.7"/>
	<rect x="336" y="232.9" style="fill:#E6E9EE;" width="31.7" height="31.7"/>
	<rect x="140.3" y="277.3" style="fill:#E6E9EE;" width="31.7" height="31.7"/>
	<rect x="189.2" y="277.3" style="fill:#E6E9EE;" width="31.7" height="31.7"/>
	<rect x="238.1" y="277.3" style="fill:#E6E9EE;" width="31.7" height="31.7"/>
	<rect x="287" y="277.3" style="fill:#E6E9EE;" width="31.7" height="31.7"/>
	<rect x="336" y="277.3" style="fill:#E6E9EE;" width="31.7" height="31.7"/>
	<rect x="140.3" y="321.7" style="fill:#E6E9EE;" width="31.7" height="31.7"/>
	<rect x="189.2" y="321.7" style="fill:#E6E9EE;" width="31.7" height="31.7"/>
	<rect x="238.1" y="321.7" style="fill:#E6E9EE;" width="31.7" height="31.7"/>
	<rect x="287" y="321.7" style="fill:#E6E9EE;" width="31.7" height="31.7"/>
	<rect x="140.3" y="366.1" style="fill:#E6E9EE;" width="31.7" height="31.7"/>
	<rect x="189.2" y="366.1" style="fill:#E6E9EE;" width="31.7" height="31.7"/>
	<rect x="238.1" y="366.1" style="fill:#E6E9EE;" width="31.7" height="31.7"/>
	<rect x="287" y="366.1" style="fill:#E6E9EE;" width="31.7" height="31.7"/>
	<rect x="336" y="321.7" style="fill:#E6E9EE;" width="31.7" height="76.1"/>
</g>
<g>
</g>
<g>
</g>
<g>
</g>
<g>
</g>
<g>
</g>
<g>
</g>
<g>
</g>
<g>
</g>
<g>
</g>
<g>
</g>
<g>
</g>
<g>
</g>
<g>
</g>
<g>
</g>
<g>
</g>
</svg>
