<?xml version="1.0" encoding="iso-8859-1"?>
<!-- Generator: Adobe Illustrator 19.0.0, SVG Export Plug-In . SVG Version: 6.00 Build 0)  -->
<svg version="1.1" id="Layer_1" xmlns="http://www.w3.org/2000/svg" xmlns:xlink="http://www.w3.org/1999/xlink" x="0px" y="0px"
	 viewBox="0 0 505 505" style="enable-background:new 0 0 505 505;" xml:space="preserve">
<path style="fill:#324A5E;" d="M0,252.5C0,113,113,0,252.5,0S505,113,505,252.5S392,505,252.5,505S0,392,0,252.5z"/>
<g>
	<rect x="411.9" y="128.4" style="fill:#FFD05B;" width="21.1" height="107.7"/>
	<rect x="376.4" y="159.1" style="fill:#FFD05B;" width="21.1" height="77.1"/>
	<rect x="341" y="181" style="fill:#FFD05B;" width="21.1" height="55.1"/>
	<rect x="305.5" y="196.7" style="fill:#FFD05B;" width="21.1" height="39.4"/>
</g>
<g>
	<rect x="183.6" y="268.9" style="fill:#FF7058;" width="21.1" height="107.7"/>
	<rect x="219.1" y="268.9" style="fill:#FF7058;" width="21.1" height="77.1"/>
	<rect x="254.6" y="268.9" style="fill:#FF7058;" width="21.1" height="55.1"/>
	<rect x="290" y="268.9" style="fill:#FF7058;" width="21.1" height="39.4"/>
</g>
<polygon style="fill:#E6E9EE;" points="133.6,244.6 133.6,209 162.2,209 162.2,193.2 133.6,193.2 133.6,157.6 162.2,157.6 
	162.2,141.9 133.6,141.9 133.6,106.3 162.2,106.3 162.2,90.5 117.8,90.5 117.8,414.5 162.2,414.5 162.2,398.7 133.6,398.7 
	133.6,363.1 162.2,363.1 162.2,347.4 133.6,347.4 133.6,311.8 162.2,311.8 162.2,296 133.6,296 133.6,260.4 446.5,260.4 
	446.5,244.6 "/>
<g>
</g>
<g>
</g>
<g>
</g>
<g>
</g>
<g>
</g>
<g>
</g>
<g>
</g>
<g>
</g>
<g>
</g>
<g>
</g>
<g>
</g>
<g>
</g>
<g>
</g>
<g>
</g>
<g>
</g>
</svg>
